{
.appVersion = "895";
copyright = "Copyright 2016 Google Inc. All Rights Reserved.";
customParameters = (
{
name = description;
value = "Designed by Monotype design team.";
},
{
name = license;
value = "This Font Software is licensed under the SIL Open Font License, Version 1.1. This Font Software is distributed on an \"AS IS\" BASIS, WITHOUT WARRANTIES OR CONDITIONS OF ANY KIND, either express or implied. See the SIL Open Font License for the specific language, permissions and limitations governing your use of this Font Software.";
},
{
name = licenseURL;
value = "http://scripts.sil.org/OFL";
},
{
name = vendorID;
value = GOOG;
},
{
name = trademark;
value = "Noto is a trademark of Google Inc.";
},
{
name = fsType;
value = ();
},
{
name = panose;
value = (
2,
11,
5,
2,
4,
5,
4,
2,
2,
4
);
},
{
name = unicodeRanges;
value = (
57,
101
);
},
{
name = codePageRanges;
value = (
1252
);
}
);
date = "2016-11-10 14:31:32 +0000";
designer = "Monotype Design Team";
designerURL = "http://www.monotype.com/studio";
familyName = "Noto Sans Linear B";
fontMaster = (
{
ascender = 2189;
capHeight = 2089;
customParameters = (
{
name = typoAscender;
value = 2189;
},
{
name = typoDescender;
value = -600;
},
{
name = typoLineGap;
value = 0;
},
{
name = winAscent;
value = 2189;
},
{
name = winDescent;
value = 600;
},
{
name = hheaAscender;
value = 2189;
},
{
name = hheaDescender;
value = -600;
}
);
descender = -600;
id = "04B77939-8555-4652-993D-1D9FD1321E1B";
weightValue = 400;
widthValue = 5;
xHeight = 1462;
}
);
glyphs = (
{
glyphname = .notdef;
lastChange = "2016-11-10 14:31:18 +0000";
layers = (
{
layerId = "04B77939-8555-4652-993D-1D9FD1321E1B";
paths = (
{
closed = 1;
nodes = (
"1034 0 LINE",
"1034 1462 LINE",
"193 1462 LINE",
"193 0 LINE"
);
},
{
closed = 1;
nodes = (
"297 1358 LINE",
"930 1358 LINE",
"930 104 LINE",
"297 104 LINE"
);
}
);
width = 1229;
}
);
note = .notdef;
},
{
glyphname = g4;
lastChange = "2016-11-10 14:31:18 +0000";
layers = (
{
layerId = "04B77939-8555-4652-993D-1D9FD1321E1B";
paths = (
{
closed = 1;
nodes = (
"780 0 LINE",
"780 1116 LINE",
"1073 1116 LINE",
"1073 676 LINE",
"1217 676 LINE",
"1217 1638 LINE",
"1073 1638 LINE",
"1073 1245 LINE",
"346 1245 LINE",
"346 1638 LINE",
"203 1638 LINE",
"203 676 LINE",
"346 676 LINE",
"346 1116 LINE",
"637 1116 LINE",
"637 0 LINE"
);
}
);
width = 1419;
}
);
note = g4;
},
{
glyphname = g5;
lastChange = "2016-11-10 14:31:18 +0000";
layers = (
{
layerId = "04B77939-8555-4652-993D-1D9FD1321E1B";
paths = (
{
closed = 1;
nodes = (
"279 0 LINE",
"290 223 OFFCURVE",
"330 515 OFFCURVE",
"383 768 CURVE",
"1065 768 LINE",
"1120 519 OFFCURVE",
"1156 263 OFFCURVE",
"1174 0 CURVE",
"1319 0 LINE",
"1298 367 OFFCURVE",
"1225 804 OFFCURVE",
"1124 1116 CURVE",
"1194 1116 LINE",
"1194 1245 LINE",
"1077 1245 LINE",
"973 1517 OFFCURVE",
"852 1659 OFFCURVE",
"725 1659 CURVE SMOOTH",
"605 1659 OFFCURVE",
"490 1521 OFFCURVE",
"381 1245 CURVE",
"266 1245 LINE",
"266 1116 LINE",
"336 1116 LINE",
"231 791 OFFCURVE",
"154 357 OFFCURVE",
"135 0 CURVE"
);
},
{
closed = 1;
nodes = (
"429 960 OFFCURVE",
"449 1033 OFFCURVE",
"473 1116 CURVE",
"975 1116 LINE",
"996 1053 OFFCURVE",
"1016 980 OFFCURVE",
"1036 897 CURVE",
"414 897 LINE"
);
},
{
closed = 1;
nodes = (
"549 1334 OFFCURVE",
"584 1401 OFFCURVE",
"620 1447 CURVE SMOOTH",
"656 1493 OFFCURVE",
"691 1516 OFFCURVE",
"725 1516 CURVE SMOOTH",
"759 1516 OFFCURVE",
"794 1493 OFFCURVE",
"830 1447 CURVE SMOOTH",
"866 1401 OFFCURVE",
"901 1334 OFFCURVE",
"936 1245 CURVE",
"514 1245 LINE"
);
}
);
width = 1454;
}
);
note = g5;
},
{
glyphname = g6;
lastChange = "2016-11-10 14:31:18 +0000";
layers = (
{
layerId = "04B77939-8555-4652-993D-1D9FD1321E1B";
paths = (
{
closed = 1;
nodes = (
"717 0 LINE",
"717 561 LINE SMOOTH",
"717 647 OFFCURVE",
"715 715 OFFCURVE",
"711 766 CURVE",
"742 763 OFFCURVE",
"825 762 OFFCURVE",
"961 762 CURVE SMOOTH",
"979 762 LINE",
"979 891 LINE",
"941 891 OFFCURVE",
"903 889 OFFCURVE",
"866 885 CURVE",
"860 891 LINE",
"883 926 OFFCURVE",
"915 993 OFFCURVE",
"956 1090 CURVE SMOOTH",
"1178 1606 LINE",
"1044 1659 LINE",
"913 1329 OFFCURVE",
"834 1124 OFFCURVE",
"806 1045 CURVE SMOOTH",
"778 966 OFFCURVE",
"762 912 OFFCURVE",
"758 885 CURVE",
"711 885 LINE",
"715 957 OFFCURVE",
"717 1034 OFFCURVE",
"717 1116 CURVE SMOOTH",
"717 1638 LINE",
"573 1638 LINE",
"573 1116 LINE SMOOTH",
"573 1051 OFFCURVE",
"575 974 OFFCURVE",
"580 885 CURVE",
"530 885 LINE",
"517 959 OFFCURVE",
"467 1103 OFFCURVE",
"381 1317 CURVE SMOOTH",
"246 1659 LINE",
"113 1606 LINE",
"284 1208 OFFCURVE",
"376 995 OFFCURVE",
"390 966 CURVE SMOOTH",
"403 937 OFFCURVE",
"417 912 OFFCURVE",
"430 891 CURVE",
"424 885 LINE",
"387 889 OFFCURVE",
"349 891 OFFCURVE",
"311 891 CURVE",
"311 762 LINE",
"330 762 LINE SMOOTH",
"470 762 OFFCURVE",
"553 763 OFFCURVE",
"580 766 CURVE",
"575 722 OFFCURVE",
"573 654 OFFCURVE",
"573 561 CURVE SMOOTH",
"573 0 LINE"
);
}
);
width = 1290;
}
);
note = g6;
},
{
glyphname = g7;
lastChange = "2016-11-10 14:31:18 +0000";
layers = (
{
layerId = "04B77939-8555-4652-993D-1D9FD1321E1B";
paths = (
{
closed = 1;
nodes = (
"1245 0 LINE",
"1245 1006 LINE",
"1166 1006 OFFCURVE",
"1096 1020 OFFCURVE",
"1037 1047 CURVE SMOOTH",
"918 1102 OFFCURVE",
"851 1179 OFFCURVE",
"742 1438 CURVE SMOOTH",
"685 1575 OFFCURVE",
"623 1638 OFFCURVE",
"532 1638 CURVE SMOOTH",
"227 1638 LINE",
"227 0 LINE"
);
},
{
closed = 1;
nodes = (
"365 1509 LINE",
"500 1509 LINE SMOOTH",
"527 1509 OFFCURVE",
"551 1496 OFFCURVE",
"573 1469 CURVE SMOOTH",
"594 1442 OFFCURVE",
"617 1398 OFFCURVE",
"642 1337 CURVE SMOOTH",
"757 1052 OFFCURVE",
"887 934 OFFCURVE",
"1102 895 CURVE",
"1102 129 LINE",
"365 129 LINE"
);
},
{
closed = 1;
nodes = (
"1226 1212 OFFCURVE",
"1278 1303 OFFCURVE",
"1278 1366 CURVE SMOOTH",
"1278 1459 OFFCURVE",
"1199 1538 OFFCURVE",
"1104 1538 CURVE SMOOTH",
"1031 1538 OFFCURVE",
"921 1474 OFFCURVE",
"840 1393 CURVE",
"915 1309 LINE",
"991 1385 OFFCURVE",
"1052 1423 OFFCURVE",
"1098 1423 CURVE SMOOTH",
"1137 1423 OFFCURVE",
"1165 1391 OFFCURVE",
"1165 1356 CURVE SMOOTH",
"1165 1317 OFFCURVE",
"1136 1270 OFFCURVE",
"1077 1216 CURVE SMOOTH",
"1042 1182 LINE",
"1122 1108 LINE"
);
}
);
width = 1458;
}
);
note = g7;
},
{
glyphname = g8;
lastChange = "2016-11-10 14:31:18 +0000";
layers = (
{
layerId = "04B77939-8555-4652-993D-1D9FD1321E1B";
paths = (
{
closed = 1;
nodes = (
"346 0 LINE",
"346 987 LINE",
"678 987 LINE",
"705 795 LINE",
"838 813 LINE",
"813 987 LINE",
"987 987 LINE",
"987 1116 LINE",
"797 1116 LINE",
"743 1511 LINE",
"771 1509 OFFCURVE",
"803 1505 OFFCURVE",
"838 1499 CURVE",
"860 1626 LINE",
"788 1641 OFFCURVE",
"700 1649 OFFCURVE",
"596 1649 CURVE SMOOTH",
"329 1649 OFFCURVE",
"203 1463 OFFCURVE",
"203 1067 CURVE SMOOTH",
"203 0 LINE"
);
},
{
closed = 1;
nodes = (
"347 1213 OFFCURVE",
"357 1291 OFFCURVE",
"376 1350 CURVE SMOOTH",
"412 1469 OFFCURVE",
"477 1520 OFFCURVE",
"608 1520 CURVE",
"662 1116 LINE",
"346 1116 LINE"
);
}
);
width = 1122;
}
);
note = g8;
},
{
glyphname = g9;
lastChange = "2016-11-10 14:31:18 +0000";
layers = (
{
layerId = "04B77939-8555-4652-993D-1D9FD1321E1B";
paths = (
{
closed = 1;
nodes = (
"371 0 LINE",
"371 829 LINE",
"889 829 LINE",
"889 958 LINE",
"371 958 LINE",
"371 1638 LINE",
"227 1638 LINE",
"227 0 LINE"
);
}
);
width = 1024;
}
);
note = g9;
},
{
glyphname = g10;
lastChange = "2016-11-10 14:31:18 +0000";
layers = (
{
layerId = "04B77939-8555-4652-993D-1D9FD1321E1B";
paths = (
{
closed = 1;
nodes = (
"509 129 OFFCURVE",
"598 253 OFFCURVE",
"696 354 CURVE SMOOTH",
"751 411 OFFCURVE",
"784 454 OFFCURVE",
"797 483 CURVE",
"805 483 LINE",
"811 465 OFFCURVE",
"823 445 OFFCURVE",
"841 422 CURVE SMOOTH",
"858 399 OFFCURVE",
"900 351 OFFCURVE",
"966 278 CURVE SMOOTH",
"1041 193 OFFCURVE",
"1110 95 OFFCURVE",
"1171 -18 CURVE",
"1305 47 LINE",
"1197 230 OFFCURVE",
"1094 360 OFFCURVE",
"901 547 CURVE",
"927 571 OFFCURVE",
"953 595 OFFCURVE",
"979 620 CURVE SMOOTH",
"1005 644 OFFCURVE",
"1030 667 OFFCURVE",
"1055 690 CURVE SMOOTH",
"1104 735 OFFCURVE",
"1152 776 OFFCURVE",
"1196 807 CURVE",
"1196 936 LINE",
"406 936 LINE",
"406 807 LINE",
"457 770 OFFCURVE",
"530 707 OFFCURVE",
"623 620 CURVE SMOOTH",
"700 547 LINE",
"507 362 OFFCURVE",
"398 220 OFFCURVE",
"297 47 CURVE",
"430 -18 LINE"
);
},
{
closed = 1;
nodes = (
"778 640 OFFCURVE",
"749 674 OFFCURVE",
"709 709 CURVE",
"665 752 OFFCURVE",
"600 804 OFFCURVE",
"571 811 CURVE",
"571 823 LINE",
"597 819 OFFCURVE",
"636 817 OFFCURVE",
"688 817 CURVE SMOOTH",
"913 817 LINE SMOOTH",
"967 817 OFFCURVE",
"1006 819 OFFCURVE",
"1030 823 CURVE",
"1030 811 LINE",
"993 802 OFFCURVE",
"837 674 OFFCURVE",
"805 606 CURVE",
"797 606 LINE"
);
},
{
closed = 1;
nodes = (
"633 993 LINE",
"731 1241 LINE SMOOTH",
"758 1305 OFFCURVE",
"788 1436 OFFCURVE",
"795 1481 CURVE",
"803 1481 LINE",
"808 1432 OFFCURVE",
"831 1350 OFFCURVE",
"872 1237 CURVE SMOOTH",
"967 997 LINE",
"1094 997 LINE",
"1153 1130 OFFCURVE",
"1192 1221 OFFCURVE",
"1213 1271 CURVE SMOOTH",
"1234 1320 OFFCURVE",
"1247 1355 OFFCURVE",
"1253 1376 CURVE",
"1260 1374 LINE",
"1260 1351 OFFCURVE",
"1261 1325 OFFCURVE",
"1263 1297 CURVE",
"1264 1269 OFFCURVE",
"1274 1190 OFFCURVE",
"1292 1061 CURVE",
"1419 1083 LINE",
"1337 1526 LINE",
"1376 1612 LINE",
"1249 1675 LINE",
"1149 1452 LINE SMOOTH",
"1108 1361 OFFCURVE",
"1062 1200 OFFCURVE",
"1051 1133 CURVE",
"1042 1133 LINE",
"1025 1204 OFFCURVE",
"974 1358 OFFCURVE",
"938 1454 CURVE SMOOTH",
"852 1681 LINE",
"745 1681 LINE",
"662 1452 LINE SMOOTH",
"629 1357 OFFCURVE",
"584 1198 OFFCURVE",
"575 1133 CURVE",
"567 1133 LINE",
"556 1191 OFFCURVE",
"517 1297 OFFCURVE",
"451 1452 CURVE SMOOTH",
"350 1675 LINE",
"223 1612 LINE",
"262 1526 LINE",
"180 1083 LINE",
"307 1061 LINE",
"326 1190 OFFCURVE",
"337 1269 OFFCURVE",
"340 1299 CURVE SMOOTH",
"343 1328 OFFCURVE",
"344 1353 OFFCURVE",
"344 1374 CURVE",
"350 1376 LINE",
"354 1360 OFFCURVE",
"362 1337 OFFCURVE",
"374 1306 CURVE SMOOTH",
"385 1275 OFFCURVE",
"429 1171 OFFCURVE",
"506 993 CURVE"
);
}
);
width = 1599;
}
);
note = g10;
},
{
glyphname = g11;
lastChange = "2016-11-10 14:31:18 +0000";
layers = (
{
layerId = "04B77939-8555-4652-993D-1D9FD1321E1B";
paths = (
{
closed = 1;
nodes = (
"1217 1509 LINE",
"1217 1638 LINE",
"203 1638 LINE",
"203 1509 LINE"
);
},
{
closed = 1;
nodes = (
"780 0 LINE",
"780 727 LINE",
"637 727 LINE",
"637 0 LINE"
);
},
{
closed = 1;
nodes = (
"346 840 LINE",
"346 1393 LINE",
"203 1393 LINE",
"203 840 LINE"
);
},
{
closed = 1;
nodes = (
"780 840 LINE",
"780 1393 LINE",
"637 1393 LINE",
"637 840 LINE"
);
},
{
closed = 1;
nodes = (
"1217 840 LINE",
"1217 1393 LINE",
"1073 1393 LINE",
"1073 840 LINE"
);
}
);
width = 1419;
}
);
note = g11;
},
{
glyphname = g12;
lastChange = "2016-11-10 14:31:18 +0000";
layers = (
{
layerId = "04B77939-8555-4652-993D-1D9FD1321E1B";
paths = (
{
closed = 1;
nodes = (
"635 0 LINE",
"635 799 LINE SMOOTH",
"635 909 OFFCURVE",
"582 1000 OFFCURVE",
"477 1072 CURVE SMOOTH",
"412 1117 OFFCURVE",
"369 1150 OFFCURVE",
"349 1171 CURVE SMOOTH",
"329 1192 OFFCURVE",
"319 1214 OFFCURVE",
"319 1239 CURVE SMOOTH",
"319 1295 OFFCURVE",
"358 1340 OFFCURVE",
"454 1403 CURVE SMOOTH",
"554 1468 OFFCURVE",
"617 1539 OFFCURVE",
"643 1616 CURVE",
"512 1659 LINE",
"487 1587 OFFCURVE",
"440 1534 OFFCURVE",
"320 1446 CURVE SMOOTH",
"220 1373 OFFCURVE",
"180 1310 OFFCURVE",
"180 1227 CURVE SMOOTH",
"180 1140 OFFCURVE",
"225 1078 OFFCURVE",
"336 1009 CURVE SMOOTH",
"451 937 OFFCURVE",
"492 882 OFFCURVE",
"492 799 CURVE SMOOTH",
"492 0 LINE"
);
},
{
closed = 1;
nodes = (
"995 1083 LINE",
"936 1088 OFFCURVE",
"892 1096 OFFCURVE",
"862 1105 CURVE SMOOTH",
"832 1114 OFFCURVE",
"817 1128 OFFCURVE",
"817 1149 CURVE SMOOTH",
"817 1178 OFFCURVE",
"845 1209 OFFCURVE",
"900 1256 CURVE SMOOTH",
"955 1302 OFFCURVE",
"983 1350 OFFCURVE",
"983 1401 CURVE SMOOTH",
"983 1513 OFFCURVE",
"898 1569 OFFCURVE",
"707 1597 CURVE",
"674 1475 LINE",
"735 1468 OFFCURVE",
"779 1458 OFFCURVE",
"807 1443 CURVE SMOOTH",
"834 1428 OFFCURVE",
"848 1407 OFFCURVE",
"848 1380 CURVE SMOOTH",
"848 1369 OFFCURVE",
"842 1355 OFFCURVE",
"829 1340 CURVE SMOOTH",
"816 1324 OFFCURVE",
"795 1301 OFFCURVE",
"764 1272 CURVE SMOOTH",
"708 1219 OFFCURVE",
"680 1167 OFFCURVE",
"680 1116 CURVE SMOOTH",
"680 1012 OFFCURVE",
"772 968 OFFCURVE",
"969 961 CURVE"
);
}
);
width = 1130;
}
);
note = g12;
},
{
glyphname = g13;
lastChange = "2016-11-10 14:31:18 +0000";
layers = (
{
layerId = "04B77939-8555-4652-993D-1D9FD1321E1B";
paths = (
{
closed = 1;
nodes = (
"414 43 LINE",
"355 127 OFFCURVE",
"334 191 OFFCURVE",
"334 319 CURVE SMOOTH",
"334 423 OFFCURVE",
"367 523 OFFCURVE",
"400 628 CURVE SMOOTH",
"432 733 OFFCURVE",
"465 844 OFFCURVE",
"465 971 CURVE SMOOTH",
"465 1016 OFFCURVE",
"461 1065 OFFCURVE",
"453 1116 CURVE",
"635 1116 LINE",
"648 1053 OFFCURVE",
"655 989 OFFCURVE",
"655 924 CURVE SMOOTH",
"655 861 OFFCURVE",
"645 760 OFFCURVE",
"624 621 CURVE SMOOTH",
"603 481 OFFCURVE",
"592 385 OFFCURVE",
"592 332 CURVE SMOOTH",
"592 214 OFFCURVE",
"623 97 OFFCURVE",
"684 -20 CURVE",
"815 43 LINE",
"760 152 OFFCURVE",
"733 266 OFFCURVE",
"733 383 CURVE SMOOTH",
"733 438 OFFCURVE",
"744 531 OFFCURVE",
"765 664 CURVE SMOOTH",
"786 796 OFFCURVE",
"797 898 OFFCURVE",
"797 971 CURVE SMOOTH",
"797 1020 OFFCURVE",
"793 1069 OFFCURVE",
"784 1116 CURVE",
"963 1116 LINE",
"976 1053 OFFCURVE",
"983 989 OFFCURVE",
"983 924 CURVE SMOOTH",
"983 537 OFFCURVE",
"1031 316 OFFCURVE",
"1176 -20 CURVE",
"1307 43 LINE",
"1250 194 OFFCURVE",
"1210 312 OFFCURVE",
"1187 399 CURVE SMOOTH",
"1141 571 OFFCURVE",
"1124 734 OFFCURVE",
"1124 971 CURVE SMOOTH",
"1124 1016 OFFCURVE",
"1120 1065 OFFCURVE",
"1112 1116 CURVE",
"1260 1116 LINE",
"1243 1213 OFFCURVE",
"1235 1307 OFFCURVE",
"1235 1397 CURVE SMOOTH",
"1235 1504 OFFCURVE",
"1243 1584 OFFCURVE",
"1260 1638 CURVE",
"1116 1661 LINE",
"1103 1601 OFFCURVE",
"1096 1527 OFFCURVE",
"1096 1440 CURVE SMOOTH",
"1096 1355 OFFCURVE",
"1099 1290 OFFCURVE",
"1106 1245 CURVE",
"315 1245 LINE",
"326 1300 OFFCURVE",
"332 1363 OFFCURVE",
"332 1436 CURVE SMOOTH",
"332 1514 OFFCURVE",
"322 1589 OFFCURVE",
"301 1661 CURVE",
"158 1638 LINE",
"179 1569 OFFCURVE",
"190 1484 OFFCURVE",
"190 1382 CURVE SMOOTH",
"190 1301 OFFCURVE",
"181 1213 OFFCURVE",
"164 1116 CURVE",
"303 1116 LINE",
"317 1047 OFFCURVE",
"324 983 OFFCURVE",
"324 924 CURVE SMOOTH",
"324 804 OFFCURVE",
"292 693 OFFCURVE",
"260 586 CURVE SMOOTH",
"227 478 OFFCURVE",
"195 375 OFFCURVE",
"195 268 CURVE SMOOTH",
"195 165 OFFCURVE",
"227 69 OFFCURVE",
"291 -20 CURVE"
);
}
);
width = 1442;
}
);
note = g13;
},
{
glyphname = g14;
lastChange = "2016-11-10 14:31:18 +0000";
layers = (
{
layerId = "04B77939-8555-4652-993D-1D9FD1321E1B";
paths = (
{
closed = 1;
nodes = (
"1143 0 LINE",
"1143 1638 LINE",
"227 1638 LINE",
"227 0 LINE"
);
},
{
closed = 1;
nodes = (
"365 395 LINE",
"999 395 LINE",
"999 129 LINE",
"365 129 LINE"
);
},
{
closed = 1;
nodes = (
"365 1116 LINE",
"999 1116 LINE",
"999 524 LINE",
"365 524 LINE"
);
},
{
closed = 1;
nodes = (
"365 1509 LINE",
"999 1509 LINE",
"999 1245 LINE",
"365 1245 LINE"
);
}
);
width = 1370;
}
);
note = g14;
},
{
glyphname = g15;
lastChange = "2016-11-10 14:31:18 +0000";
layers = (
{
layerId = "04B77939-8555-4652-993D-1D9FD1321E1B";
paths = (
{
closed = 1;
nodes = (
"562 389 OFFCURVE",
"703 608 OFFCURVE",
"721 638 CURVE SMOOTH",
"739 667 OFFCURVE",
"751 688 OFFCURVE",
"758 701 CURVE",
"764 711 LINE",
"774 686 OFFCURVE",
"806 632 OFFCURVE",
"860 549 CURVE SMOOTH",
"1231 -20 LINE",
"1352 53 LINE",
"987 612 LINE",
"883 764 LINE",
"838 827 LINE",
"983 1034 LINE",
"1352 1604 LINE",
"1231 1677 LINE",
"956 1253 OFFCURVE",
"811 1029 OFFCURVE",
"797 1006 CURVE SMOOTH",
"783 983 OFFCURVE",
"774 965 OFFCURVE",
"769 954 CURVE",
"764 944 LINE",
"757 957 LINE",
"740 992 OFFCURVE",
"707 1047 OFFCURVE",
"659 1120 CURVE SMOOTH",
"299 1677 LINE",
"178 1604 LINE",
"431 1213 OFFCURVE",
"575 992 OFFCURVE",
"610 941 CURVE SMOOTH",
"644 890 OFFCURVE",
"671 852 OFFCURVE",
"690 827 CURVE",
"639 758 OFFCURVE",
"605 710 OFFCURVE",
"588 684 CURVE SMOOTH",
"570 658 OFFCURVE",
"551 630 OFFCURVE",
"532 600 CURVE SMOOTH",
"178 53 LINE",
"299 -20 LINE"
);
},
{
closed = 1;
nodes = (
"346 1268 LINE",
"219 1292 LINE",
"135 838 LINE",
"262 815 LINE"
);
},
{
closed = 1;
nodes = (
"1393 838 LINE",
"1309 1292 LINE",
"1182 1268 LINE",
"1266 815 LINE"
);
}
);
width = 1528;
}
);
note = g15;
},
{
glyphname = g16;
lastChange = "2016-11-10 14:31:18 +0000";
layers = (
{
layerId = "04B77939-8555-4652-993D-1D9FD1321E1B";
paths = (
{
closed = 1;
nodes = (
"723 0 LINE",
"603 169 OFFCURVE",
"512 417 OFFCURVE",
"512 569 CURVE SMOOTH",
"512 641 OFFCURVE",
"552 723 OFFCURVE",
"629 828 CURVE SMOOTH",
"706 933 OFFCURVE",
"745 1023 OFFCURVE",
"745 1096 CURVE SMOOTH",
"745 1257 OFFCURVE",
"648 1356 OFFCURVE",
"481 1356 CURVE SMOOTH",
"408 1356 OFFCURVE",
"340 1327 OFFCURVE",
"301 1290 CURVE",
"301 1495 LINE",
"1169 1495 LINE",
"1169 1638 LINE",
"158 1638 LINE",
"158 1110 LINE",
"256 1083 LINE",
"295 1170 OFFCURVE",
"375 1221 OFFCURVE",
"475 1221 CURVE SMOOTH",
"552 1221 OFFCURVE",
"602 1161 OFFCURVE",
"602 1081 CURVE SMOOTH",
"602 1010 OFFCURVE",
"566 940 OFFCURVE",
"486 843 CURVE SMOOTH",
"408 747 OFFCURVE",
"369 650 OFFCURVE",
"369 553 CURVE SMOOTH",
"369 390 OFFCURVE",
"443 180 OFFCURVE",
"555 0 CURVE"
);
}
);
width = 1282;
}
);
note = g16;
},
{
glyphname = g17;
lastChange = "2016-11-10 14:31:18 +0000";
layers = (
{
layerId = "04B77939-8555-4652-993D-1D9FD1321E1B";
paths = (
{
closed = 1;
nodes = (
"604 0 LINE",
"604 809 LINE",
"864 809 LINE",
"864 0 LINE",
"1008 0 LINE",
"1008 809 LINE",
"1290 809 LINE",
"1290 0 LINE",
"1427 0 LINE",
"1427 809 LINE",
"1694 809 LINE",
"1694 0 LINE",
"1831 0 LINE",
"1831 938 LINE",
"1427 938 LINE",
"1427 1219 LINE",
"1290 1219 LINE",
"1290 938 LINE",
"604 938 LINE",
"604 1243 LINE SMOOTH",
"604 1538 OFFCURVE",
"520 1649 OFFCURVE",
"291 1649 CURVE SMOOTH",
"234 1649 OFFCURVE",
"167 1641 OFFCURVE",
"90 1626 CURVE",
"113 1499 LINE",
"170 1513 OFFCURVE",
"229 1520 OFFCURVE",
"289 1520 CURVE SMOOTH",
"336 1520 OFFCURVE",
"371 1511 OFFCURVE",
"394 1494 CURVE SMOOTH",
"441 1459 OFFCURVE",
"461 1384 OFFCURVE",
"461 1243 CURVE SMOOTH",
"461 0 LINE"
);
}
);
width = 2011;
}
);
note = g17;
},
{
glyphname = g18;
lastChange = "2016-11-10 14:31:18 +0000";
layers = (
{
layerId = "04B77939-8555-4652-993D-1D9FD1321E1B";
paths = (
{
closed = 1;
nodes = (
"972 104 OFFCURVE",
"1090 135 OFFCURVE",
"1199 198 CURVE SMOOTH",
"1417 323 OFFCURVE",
"1554 558 OFFCURVE",
"1554 813 CURVE SMOOTH",
"1554 942 OFFCURVE",
"1522 1061 OFFCURVE",
"1458 1171 CURVE SMOOTH",
"1329 1390 OFFCURVE",
"1097 1522 OFFCURVE",
"846 1522 CURVE SMOOTH",
"719 1522 OFFCURVE",
"600 1491 OFFCURVE",
"491 1428 CURVE SMOOTH",
"271 1302 OFFCURVE",
"135 1066 OFFCURVE",
"135 813 CURVE SMOOTH",
"135 686 OFFCURVE",
"167 567 OFFCURVE",
"231 458 CURVE SMOOTH",
"359 238 OFFCURVE",
"593 104 OFFCURVE",
"846 104 CURVE SMOOTH"
);
},
{
closed = 1;
nodes = (
"514 274 OFFCURVE",
"308 493 OFFCURVE",
"281 752 CURVE",
"774 752 LINE",
"774 242 LINE"
);
},
{
closed = 1;
nodes = (
"905 752 LINE",
"1407 752 LINE",
"1397 665 OFFCURVE",
"1369 584 OFFCURVE",
"1322 509 CURVE SMOOTH",
"1229 357 OFFCURVE",
"1072 257 OFFCURVE",
"905 240 CURVE"
);
},
{
closed = 1;
nodes = (
"312 1141 OFFCURVE",
"518 1349 OFFCURVE",
"774 1384 CURVE",
"774 881 LINE",
"283 881 LINE"
);
},
{
closed = 1;
nodes = (
"905 1384 LINE",
"1166 1355 OFFCURVE",
"1375 1144 OFFCURVE",
"1407 881 CURVE",
"905 881 LINE"
);
}
);
width = 1690;
}
);
note = g18;
},
{
glyphname = g19;
lastChange = "2016-11-10 14:31:18 +0000";
layers = (
{
layerId = "04B77939-8555-4652-993D-1D9FD1321E1B";
paths = (
{
closed = 1;
nodes = (
"581 207 OFFCURVE",
"658 422 OFFCURVE",
"745 625 CURVE SMOOTH",
"764 669 OFFCURVE",
"777 725 OFFCURVE",
"786 793 CURVE",
"795 793 LINE",
"810 709 OFFCURVE",
"823 654 OFFCURVE",
"836 629 CURVE",
"919 441 OFFCURVE",
"1001 225 OFFCURVE",
"1081 -20 CURVE",
"1214 23 LINE",
"1100 356 OFFCURVE",
"992 619 OFFCURVE",
"891 813 CURVE",
"893 819 LINE",
"990 812 OFFCURVE",
"1046 808 OFFCURVE",
"1061 808 CURVE",
"1076 807 OFFCURVE",
"1091 807 OFFCURVE",
"1106 807 CURVE SMOOTH",
"1280 807 LINE",
"1280 936 LINE",
"291 936 LINE",
"291 807 LINE",
"492 807 LINE SMOOTH",
"560 807 OFFCURVE",
"663 817 OFFCURVE",
"692 825 CURVE",
"696 819 LINE",
"583 594 OFFCURVE",
"476 328 OFFCURVE",
"375 23 CURVE",
"512 -20 LINE"
);
},
{
closed = 1;
nodes = (
"864 0 LINE",
"864 315 LINE",
"721 315 LINE",
"721 0 LINE"
);
},
{
closed = 1;
nodes = (
"633 993 LINE",
"731 1241 LINE SMOOTH",
"758 1305 OFFCURVE",
"788 1436 OFFCURVE",
"795 1481 CURVE",
"803 1481 LINE",
"808 1432 OFFCURVE",
"831 1350 OFFCURVE",
"872 1237 CURVE SMOOTH",
"967 997 LINE",
"1094 997 LINE",
"1153 1130 OFFCURVE",
"1192 1221 OFFCURVE",
"1213 1271 CURVE SMOOTH",
"1234 1320 OFFCURVE",
"1247 1355 OFFCURVE",
"1253 1376 CURVE",
"1260 1374 LINE",
"1260 1351 OFFCURVE",
"1261 1325 OFFCURVE",
"1263 1297 CURVE",
"1264 1269 OFFCURVE",
"1274 1190 OFFCURVE",
"1292 1061 CURVE",
"1419 1083 LINE",
"1337 1526 LINE",
"1376 1612 LINE",
"1249 1675 LINE",
"1149 1452 LINE SMOOTH",
"1108 1361 OFFCURVE",
"1062 1200 OFFCURVE",
"1051 1133 CURVE",
"1042 1133 LINE",
"1025 1204 OFFCURVE",
"974 1358 OFFCURVE",
"938 1454 CURVE SMOOTH",
"852 1681 LINE",
"745 1681 LINE",
"662 1452 LINE SMOOTH",
"629 1357 OFFCURVE",
"584 1198 OFFCURVE",
"575 1133 CURVE",
"567 1133 LINE",
"556 1191 OFFCURVE",
"517 1297 OFFCURVE",
"451 1452 CURVE SMOOTH",
"350 1675 LINE",
"223 1612 LINE",
"262 1526 LINE",
"180 1083 LINE",
"307 1061 LINE",
"326 1190 OFFCURVE",
"337 1269 OFFCURVE",
"340 1299 CURVE SMOOTH",
"343 1328 OFFCURVE",
"344 1353 OFFCURVE",
"344 1374 CURVE",
"350 1376 LINE",
"354 1360 OFFCURVE",
"362 1337 OFFCURVE",
"374 1306 CURVE SMOOTH",
"385 1275 OFFCURVE",
"429 1171 OFFCURVE",
"506 993 CURVE"
);
}
);
width = 1599;
}
);
note = g19;
},
{
glyphname = g20;
lastChange = "2016-11-10 14:31:18 +0000";
layers = (
{
layerId = "04B77939-8555-4652-993D-1D9FD1321E1B";
paths = (
{
closed = 1;
nodes = (
"1233 0 LINE",
"1233 129 LINE",
"1038 129 LINE",
"1339 1116 LINE",
"1339 1245 LINE",
"637 1245 LINE",
"724 1300 OFFCURVE",
"797 1358 OFFCURVE",
"858 1419 CURVE",
"758 1522 LINE",
"563 1298 LINE",
"557 1305 LINE",
"568 1344 OFFCURVE",
"573 1379 OFFCURVE",
"573 1409 CURVE SMOOTH",
"573 1542 OFFCURVE",
"478 1657 OFFCURVE",
"346 1657 CURVE SMOOTH",
"203 1657 OFFCURVE",
"113 1566 OFFCURVE",
"113 1427 CURVE SMOOTH",
"113 1386 OFFCURVE",
"125 1348 OFFCURVE",
"149 1313 CURVE SMOOTH",
"197 1243 OFFCURVE",
"285 1198 OFFCURVE",
"365 1198 CURVE SMOOTH",
"410 1198 OFFCURVE",
"436 1210 OFFCURVE",
"473 1229 CURVE",
"479 1223 LINE",
"225 989 LINE",
"328 889 LINE",
"397 958 OFFCURVE",
"475 1060 OFFCURVE",
"520 1137 CURVE",
"825 129 LINE",
"631 129 LINE",
"631 0 LINE"
);
},
{
closed = 1;
nodes = (
"928 168 OFFCURVE",
"910 312 OFFCURVE",
"887 385 CURVE SMOOTH",
"674 1116 LINE",
"1188 1116 LINE",
"977 383 LINE SMOOTH",
"956 310 OFFCURVE",
"936 180 OFFCURVE",
"936 111 CURVE",
"928 111 LINE"
);
},
{
closed = 1;
nodes = (
"322 1284 OFFCURVE",
"252 1346 OFFCURVE",
"252 1434 CURVE SMOOTH",
"252 1481 OFFCURVE",
"292 1520 OFFCURVE",
"340 1520 CURVE SMOOTH",
"432 1520 OFFCURVE",
"487 1453 OFFCURVE",
"487 1356 CURVE SMOOTH",
"487 1315 OFFCURVE",
"455 1284 OFFCURVE",
"418 1284 CURVE SMOOTH"
);
}
);
width = 1497;
}
);
note = g20;
},
{
glyphname = g21;
lastChange = "2016-11-10 14:31:18 +0000";
layers = (
{
layerId = "04B77939-8555-4652-993D-1D9FD1321E1B";
paths = (
{
closed = 1;
nodes = (
"728 -20 OFFCURVE",
"761 14 OFFCURVE",
"785 103 CURVE SMOOTH",
"797 147 OFFCURVE",
"808 213 OFFCURVE",
"819 301 CURVE SMOOTH",
"829 388 OFFCURVE",
"843 567 OFFCURVE",
"862 838 CURVE",
"911 846 OFFCURVE",
"961 869 OFFCURVE",
"1012 907 CURVE SMOOTH",
"1114 982 OFFCURVE",
"1180 1096 OFFCURVE",
"1180 1225 CURVE SMOOTH",
"1180 1304 OFFCURVE",
"1157 1375 OFFCURVE",
"1112 1440 CURVE SMOOTH",
"1021 1569 OFFCURVE",
"839 1659 OFFCURVE",
"662 1659 CURVE SMOOTH",
"572 1659 OFFCURVE",
"485 1639 OFFCURVE",
"400 1598 CURVE SMOOTH",
"230 1516 OFFCURVE",
"135 1377 OFFCURVE",
"135 1225 CURVE SMOOTH",
"135 1162 OFFCURVE",
"150 1103 OFFCURVE",
"179 1049 CURVE SMOOTH",
"237 941 OFFCURVE",
"345 859 OFFCURVE",
"434 846 CURVE",
"445 638 OFFCURVE",
"457 481 OFFCURVE",
"468 374 CURVE SMOOTH",
"479 267 OFFCURVE",
"491 186 OFFCURVE",
"505 132 CURVE SMOOTH",
"533 24 OFFCURVE",
"570 -20 OFFCURVE",
"653 -20 CURVE SMOOTH"
);
},
{
closed = 1;
nodes = (
"637 98 OFFCURVE",
"625 111 OFFCURVE",
"617 136 CURVE",
"608 161 OFFCURVE",
"601 202 OFFCURVE",
"594 259 CURVE SMOOTH",
"587 316 OFFCURVE",
"581 392 OFFCURVE",
"576 489 CURVE SMOOTH",
"565 682 OFFCURVE",
"556 965 OFFCURVE",
"549 1372 CURVE",
"418 1372 LINE",
"432 961 LINE",
"341 985 OFFCURVE",
"279 1100 OFFCURVE",
"279 1225 CURVE SMOOTH",
"279 1285 OFFCURVE",
"296 1338 OFFCURVE",
"329 1384 CURVE SMOOTH",
"396 1476 OFFCURVE",
"522 1530 OFFCURVE",
"662 1530 CURVE SMOOTH",
"731 1530 OFFCURVE",
"794 1518 OFFCURVE",
"851 1493 CURVE SMOOTH",
"966 1443 OFFCURVE",
"1036 1346 OFFCURVE",
"1036 1225 CURVE SMOOTH",
"1036 1101 OFFCURVE",
"962 988 OFFCURVE",
"870 961 CURVE",
"889 1372 LINE",
"760 1372 LINE",
"743 873 OFFCURVE",
"724 466 OFFCURVE",
"711 315 CURVE SMOOTH",
"704 239 OFFCURVE",
"697 184 OFFCURVE",
"689 150 CURVE SMOOTH",
"681 115 OFFCURVE",
"669 98 OFFCURVE",
"653 98 CURVE SMOOTH"
);
}
);
width = 1315;
}
);
note = g21;
},
{
glyphname = g22;
lastChange = "2016-11-10 14:31:18 +0000";
layers = (
{
layerId = "04B77939-8555-4652-993D-1D9FD1321E1B";
paths = (
{
closed = 1;
nodes = (
"728 99 OFFCURVE",
"924 429 OFFCURVE",
"948 762 CURVE",
"1028 764 LINE SMOOTH",
"1117 764 OFFCURVE",
"1161 738 OFFCURVE",
"1161 686 CURVE SMOOTH",
"1161 657 OFFCURVE",
"1132 635 OFFCURVE",
"1104 608 CURVE SMOOTH",
"1076 580 OFFCURVE",
"1047 547 OFFCURVE",
"1047 494 CURVE SMOOTH",
"1047 418 LINE",
"1178 418 LINE",
"1178 494 LINE SMOOTH",
"1178 522 OFFCURVE",
"1192 540 OFFCURVE",
"1239 579 CURVE SMOOTH",
"1280 612 OFFCURVE",
"1300 654 OFFCURVE",
"1300 705 CURVE SMOOTH",
"1300 814 OFFCURVE",
"1190 885 OFFCURVE",
"1034 885 CURVE SMOOTH",
"948 883 LINE",
"933 1267 OFFCURVE",
"738 1574 OFFCURVE",
"434 1667 CURVE",
"379 1544 LINE",
"642 1457 OFFCURVE",
"795 1212 OFFCURVE",
"807 868 CURVE",
"737 857 OFFCURVE",
"662 839 OFFCURVE",
"583 816 CURVE SMOOTH",
"513 795 OFFCURVE",
"462 784 OFFCURVE",
"430 784 CURVE SMOOTH",
"341 784 OFFCURVE",
"297 821 OFFCURVE",
"297 895 CURVE SMOOTH",
"297 962 OFFCURVE",
"351 1006 OFFCURVE",
"430 1006 CURVE",
"426 1126 LINE",
"270 1126 OFFCURVE",
"158 1030 OFFCURVE",
"158 895 CURVE SMOOTH",
"158 756 OFFCURVE",
"257 666 OFFCURVE",
"397 666 CURVE SMOOTH",
"446 666 OFFCURVE",
"508 676 OFFCURVE",
"583 696 CURVE SMOOTH",
"680 721 OFFCURVE",
"753 738 OFFCURVE",
"803 745 CURVE",
"776 454 OFFCURVE",
"615 198 OFFCURVE",
"399 94 CURVE",
"471 -20 LINE"
);
},
{
closed = 1;
nodes = (
"1178 0 LINE",
"1178 313 LINE",
"1047 313 LINE",
"1047 0 LINE"
);
}
);
width = 1481;
}
);
note = g22;
},
{
glyphname = g23;
lastChange = "2016-11-10 14:31:18 +0000";
layers = (
{
layerId = "04B77939-8555-4652-993D-1D9FD1321E1B";
paths = (
{
closed = 1;
nodes = (
"842 0 LINE",
"842 776 LINE",
"1153 1386 LINE",
"1161 1386 LINE",
"1161 1327 OFFCURVE",
"1167 1272 OFFCURVE",
"1178 1219 CURVE",
"1190 1142 OFFCURVE",
"1196 1064 OFFCURVE",
"1196 985 CURVE SMOOTH",
"1196 836 OFFCURVE",
"1170 636 OFFCURVE",
"1126 473 CURVE",
"1110 477 OFFCURVE",
"1093 479 OFFCURVE",
"1075 479 CURVE",
"1010 473 LINE",
"1026 369 LINE",
"1118 369 OFFCURVE",
"1178 339 OFFCURVE",
"1178 276 CURVE SMOOTH",
"1178 216 OFFCURVE",
"1124 177 OFFCURVE",
"1040 166 CURVE",
"1067 43 LINE",
"1219 68 OFFCURVE",
"1313 160 OFFCURVE",
"1313 283 CURVE SMOOTH",
"1313 344 OFFCURVE",
"1284 393 OFFCURVE",
"1227 432 CURVE",
"1290 619 OFFCURVE",
"1333 833 OFFCURVE",
"1333 985 CURVE SMOOTH",
"1333 1104 OFFCURVE",
"1312 1264 OFFCURVE",
"1245 1540 CURVE",
"1276 1597 LINE",
"1149 1661 LINE",
"956 1271 OFFCURVE",
"850 1056 OFFCURVE",
"831 1016 CURVE SMOOTH",
"794 936 OFFCURVE",
"774 884 OFFCURVE",
"774 840 CURVE",
"766 840 LINE",
"766 879 OFFCURVE",
"753 918 OFFCURVE",
"722 987 CURVE SMOOTH",
"706 1022 OFFCURVE",
"595 1246 OFFCURVE",
"389 1661 CURVE",
"262 1597 LINE",
"289 1546 LINE",
"230 1304 OFFCURVE",
"201 1117 OFFCURVE",
"201 985 CURVE SMOOTH",
"201 845 OFFCURVE",
"241 624 OFFCURVE",
"305 432 CURVE",
"249 393 OFFCURVE",
"221 343 OFFCURVE",
"221 283 CURVE SMOOTH",
"221 155 OFFCURVE",
"314 68 OFFCURVE",
"467 43 CURVE",
"494 166 LINE",
"410 177 OFFCURVE",
"354 216 OFFCURVE",
"354 276 CURVE SMOOTH",
"354 338 OFFCURVE",
"405 369 OFFCURVE",
"506 369 CURVE",
"524 473 LINE",
"459 479 LINE",
"442 479 OFFCURVE",
"424 477 OFFCURVE",
"406 473 CURVE",
"365 621 OFFCURVE",
"336 826 OFFCURVE",
"336 985 CURVE SMOOTH",
"336 1070 OFFCURVE",
"343 1168 OFFCURVE",
"357 1281 CURVE SMOOTH",
"362 1327 OFFCURVE",
"365 1369 OFFCURVE",
"365 1407 CURVE",
"373 1407 LINE",
"698 772 LINE",
"698 0 LINE"
);
}
);
width = 1534;
}
);
note = g23;
},
{
glyphname = g24;
lastChange = "2016-11-10 14:31:18 +0000";
layers = (
{
layerId = "04B77939-8555-4652-993D-1D9FD1321E1B";
paths = (
{
closed = 1;
nodes = (
"834 0 LINE",
"834 1067 LINE SMOOTH",
"834 1238 OFFCURVE",
"847 1356 OFFCURVE",
"873 1422 CURVE SMOOTH",
"898 1487 OFFCURVE",
"941 1520 OFFCURVE",
"1001 1520 CURVE SMOOTH",
"1063 1520 OFFCURVE",
"1094 1499 OFFCURVE",
"1094 1456 CURVE SMOOTH",
"1094 1425 OFFCURVE",
"1079 1399 OFFCURVE",
"1044 1348 CURVE SMOOTH",
"1010 1301 OFFCURVE",
"993 1249 OFFCURVE",
"993 1192 CURVE SMOOTH",
"993 1093 OFFCURVE",
"1072 1008 OFFCURVE",
"1171 983 CURVE",
"1139 852 LINE",
"1253 831 LINE",
"1266 977 LINE",
"1299 977 OFFCURVE",
"1327 978 OFFCURVE",
"1348 981 CURVE",
"1315 852 LINE",
"1430 831 LINE",
"1446 995 LINE",
"1475 1002 OFFCURVE",
"1520 1015 OFFCURVE",
"1579 1034 CURVE",
"1540 1149 LINE",
"1513 1136 OFFCURVE",
"1488 1127 OFFCURVE",
"1466 1120 CURVE",
"1497 1241 LINE",
"1386 1257 LINE",
"1368 1102 LINE",
"1338 1098 OFFCURVE",
"1317 1096 OFFCURVE",
"1305 1096 CURVE SMOOTH",
"1286 1096 LINE",
"1321 1241 LINE",
"1210 1257 LINE",
"1194 1102 LINE",
"1147 1110 OFFCURVE",
"1118 1147 OFFCURVE",
"1118 1192 CURVE SMOOTH",
"1118 1245 OFFCURVE",
"1146 1284 OFFCURVE",
"1174 1324 CURVE SMOOTH",
"1201 1363 OFFCURVE",
"1229 1405 OFFCURVE",
"1229 1466 CURVE SMOOTH",
"1229 1583 OFFCURVE",
"1152 1649 OFFCURVE",
"1001 1649 CURVE SMOOTH",
"874 1649 OFFCURVE",
"778 1536 OFFCURVE",
"762 1368 CURVE",
"754 1368 LINE",
"718 1564 OFFCURVE",
"613 1649 OFFCURVE",
"440 1649 CURVE SMOOTH",
"317 1649 OFFCURVE",
"215 1639 OFFCURVE",
"135 1620 CURVE",
"158 1499 LINE",
"250 1511 LINE",
"352 795 LINE",
"492 813 LINE",
"481 882 OFFCURVE",
"468 940 OFFCURVE",
"455 987 CURVE",
"690 987 LINE",
"690 0 LINE"
);
},
{
closed = 1;
nodes = (
"396 1415 LINE SMOOTH",
"391 1452 OFFCURVE",
"383 1487 OFFCURVE",
"373 1520 CURVE",
"440 1520 LINE SMOOTH",
"609 1520 OFFCURVE",
"684 1395 OFFCURVE",
"692 1116 CURVE",
"440 1116 LINE"
);
}
);
width = 1669;
}
);
note = g24;
},
{
glyphname = g25;
lastChange = "2016-11-10 14:31:18 +0000";
layers = (
{
layerId = "04B77939-8555-4652-993D-1D9FD1321E1B";
paths = (
{
closed = 1;
nodes = (
"434 0 LINE",
"1090 913 LINE SMOOTH",
"1145 991 OFFCURVE",
"1181 1048 OFFCURVE",
"1198 1084 CURVE SMOOTH",
"1215 1120 OFFCURVE",
"1223 1153 OFFCURVE",
"1223 1182 CURVE SMOOTH",
"1223 1224 OFFCURVE",
"1201 1265 OFFCURVE",
"1157 1304 CURVE SMOOTH",
"1112 1344 OFFCURVE",
"1090 1372 OFFCURVE",
"1090 1403 CURVE SMOOTH",
"1090 1466 OFFCURVE",
"1121 1508 OFFCURVE",
"1192 1556 CURVE",
"1094 1659 LINE",
"985 1575 OFFCURVE",
"946 1514 OFFCURVE",
"946 1401 CURVE SMOOTH",
"946 1344 OFFCURVE",
"968 1294 OFFCURVE",
"1013 1253 CURVE SMOOTH",
"1054 1213 OFFCURVE",
"1079 1184 OFFCURVE",
"1079 1159 CURVE SMOOTH",
"1079 1142 OFFCURVE",
"1069 1118 OFFCURVE",
"1048 1089 CURVE SMOOTH",
"1027 1059 OFFCURVE",
"1000 1021 OFFCURVE",
"967 975 CURVE SMOOTH",
"551 391 LINE SMOOTH",
"478 288 OFFCURVE",
"449 228 OFFCURVE",
"422 156 CURVE",
"416 158 LINE",
"429 221 OFFCURVE",
"436 361 OFFCURVE",
"436 578 CURVE SMOOTH",
"436 1415 LINE SMOOTH",
"436 1472 OFFCURVE",
"429 1517 OFFCURVE",
"414 1550 CURVE SMOOTH",
"384 1616 OFFCURVE",
"328 1646 OFFCURVE",
"197 1657 CURVE",
"180 1518 LINE",
"271 1507 OFFCURVE",
"293 1486 OFFCURVE",
"293 1411 CURVE SMOOTH",
"293 0 LINE"
);
}
);
width = 1313;
}
);
note = g25;
},
{
glyphname = g26;
lastChange = "2016-11-10 14:31:18 +0000";
layers = (
{
layerId = "04B77939-8555-4652-993D-1D9FD1321E1B";
paths = (
{
closed = 1;
nodes = (
"926 0 LINE",
"926 649 LINE SMOOTH",
"926 764 OFFCURVE",
"920 851 OFFCURVE",
"909 909 CURVE SMOOTH",
"885 1024 OFFCURVE",
"839 1100 OFFCURVE",
"752 1137 CURVE",
"758 1145 LINE",
"813 1145 OFFCURVE",
"856 1150 OFFCURVE",
"887 1160 CURVE SMOOTH",
"950 1179 OFFCURVE",
"1019 1222 OFFCURVE",
"1128 1311 CURVE",
"1053 1434 LINE",
"951 1359 OFFCURVE",
"876 1307 OFFCURVE",
"828 1278 CURVE SMOOTH",
"780 1249 OFFCURVE",
"738 1230 OFFCURVE",
"702 1221 CURVE",
"711 1248 OFFCURVE",
"715 1277 OFFCURVE",
"715 1309 CURVE SMOOTH",
"715 1367 OFFCURVE",
"701 1419 OFFCURVE",
"672 1465 CURVE SMOOTH",
"615 1556 OFFCURVE",
"506 1625 OFFCURVE",
"389 1649 CURVE",
"340 1528 LINE",
"379 1521 OFFCURVE",
"419 1507 OFFCURVE",
"459 1486 CURVE SMOOTH",
"539 1442 OFFCURVE",
"588 1380 OFFCURVE",
"588 1315 CURVE SMOOTH",
"588 1291 OFFCURVE",
"586 1268 OFFCURVE",
"582 1247 CURVE",
"297 1423 LINE",
"233 1313 LINE",
"528 1151 LINE",
"501 1104 OFFCURVE",
"448 1081 OFFCURVE",
"371 1081 CURVE SMOOTH",
"308 1081 OFFCURVE",
"231 1125 OFFCURVE",
"166 1194 CURVE",
"90 1098 LINE",
"162 1015 OFFCURVE",
"264 963 OFFCURVE",
"373 963 CURVE SMOOTH",
"480 963 OFFCURVE",
"571 1011 OFFCURVE",
"631 1083 CURVE",
"742 1014 OFFCURVE",
"782 916 OFFCURVE",
"782 649 CURVE SMOOTH",
"782 0 LINE"
);
}
);
width = 1241;
}
);
note = g26;
},
{
glyphname = g27;
lastChange = "2016-11-10 14:31:18 +0000";
layers = (
{
layerId = "04B77939-8555-4652-993D-1D9FD1321E1B";
paths = (
{
closed = 1;
nodes = (
"633 0 LINE",
"633 1116 LINE",
"1159 1116 LINE",
"1159 803 LINE",
"1036 803 LINE",
"1036 674 LINE",
"1430 674 LINE",
"1430 803 LINE",
"1303 803 LINE",
"1303 1509 LINE",
"1503 1509 LINE",
"1503 1638 LINE",
"1159 1638 LINE",
"1159 1245 LINE",
"633 1245 LINE",
"633 1311 LINE SMOOTH",
"633 1393 OFFCURVE",
"624 1460 OFFCURVE",
"607 1511 CURVE SMOOTH",
"572 1613 OFFCURVE",
"512 1659 OFFCURVE",
"395 1659 CURVE SMOOTH",
"266 1659 OFFCURVE",
"180 1565 OFFCURVE",
"180 1425 CURVE SMOOTH",
"180 1245 OFFCURVE",
"314 1116 OFFCURVE",
"489 1116 CURVE",
"489 0 LINE"
);
},
{
closed = 1;
nodes = (
"385 1245 OFFCURVE",
"313 1307 OFFCURVE",
"313 1411 CURVE SMOOTH",
"313 1492 OFFCURVE",
"342 1532 OFFCURVE",
"401 1532 CURVE SMOOTH",
"460 1532 OFFCURVE",
"489 1458 OFFCURVE",
"489 1311 CURVE SMOOTH",
"489 1245 LINE"
);
}
);
width = 1638;
}
);
note = g27;
},
{
glyphname = g28;
lastChange = "2016-11-10 14:31:18 +0000";
layers = (
{
layerId = "04B77939-8555-4652-993D-1D9FD1321E1B";
paths = (
{
closed = 1;
nodes = (
"670 0 LINE",
"670 442 LINE SMOOTH",
"670 499 OFFCURVE",
"669 545 OFFCURVE",
"666 578 CURVE",
"909 1044 LINE",
"782 1108 LINE",
"710 967 OFFCURVE",
"667 881 OFFCURVE",
"654 851 CURVE SMOOTH",
"626 791 OFFCURVE",
"604 730 OFFCURVE",
"600 709 CURVE",
"592 709 LINE",
"585 746 OFFCURVE",
"536 865 OFFCURVE",
"504 922 CURVE SMOOTH",
"408 1106 LINE",
"281 1042 LINE",
"530 575 LINE",
"527 543 OFFCURVE",
"526 497 OFFCURVE",
"526 436 CURVE SMOOTH",
"526 0 LINE"
);
},
{
closed = 1;
nodes = (
"1026 1245 LINE",
"1026 1374 LINE",
"180 1374 LINE",
"180 1245 LINE"
);
},
{
closed = 1;
nodes = (
"1026 1509 LINE",
"1026 1638 LINE",
"180 1638 LINE",
"180 1509 LINE"
);
}
);
width = 1206;
}
);
note = g28;
},
{
glyphname = g29;
lastChange = "2016-11-10 14:31:18 +0000";
layers = (
{
layerId = "04B77939-8555-4652-993D-1D9FD1321E1B";
paths = (
{
closed = 1;
nodes = (
"799 0 LINE",
"799 887 LINE SMOOTH",
"799 944 OFFCURVE",
"795 1013 OFFCURVE",
"788 1094 CURVE",
"795 1098 LINE",
"844 1035 OFFCURVE",
"911 1014 OFFCURVE",
"1004 1014 CURVE SMOOTH",
"1168 1014 OFFCURVE",
"1292 1115 OFFCURVE",
"1292 1247 CURVE SMOOTH",
"1292 1281 OFFCURVE",
"1288 1309 OFFCURVE",
"1279 1331 CURVE SMOOTH",
"1261 1375 OFFCURVE",
"1238 1407 OFFCURVE",
"1220 1435 CURVE SMOOTH",
"1211 1448 OFFCURVE",
"1206 1464 OFFCURVE",
"1206 1481 CURVE SMOOTH",
"1206 1503 OFFCURVE",
"1215 1518 OFFCURVE",
"1232 1526 CURVE SMOOTH",
"1249 1534 OFFCURVE",
"1280 1538 OFFCURVE",
"1325 1538 CURVE",
"1309 1657 LINE",
"1145 1645 OFFCURVE",
"1063 1597 OFFCURVE",
"1063 1485 CURVE SMOOTH",
"1063 1425 OFFCURVE",
"1085 1386 OFFCURVE",
"1107 1353 CURVE SMOOTH",
"1129 1320 OFFCURVE",
"1151 1290 OFFCURVE",
"1151 1253 CURVE SMOOTH",
"1151 1180 OFFCURVE",
"1094 1139 OFFCURVE",
"997 1139 CURVE SMOOTH",
"897 1139 OFFCURVE",
"840 1165 OFFCURVE",
"791 1198 CURVE",
"796 1267 OFFCURVE",
"799 1314 OFFCURVE",
"799 1337 CURVE SMOOTH",
"799 1509 LINE",
"903 1509 LINE",
"903 1638 LINE",
"547 1638 LINE",
"547 1509 LINE",
"655 1509 LINE",
"655 1337 LINE SMOOTH",
"655 1296 OFFCURVE",
"658 1250 OFFCURVE",
"664 1198 CURVE",
"603 1159 OFFCURVE",
"532 1139 OFFCURVE",
"453 1139 CURVE SMOOTH",
"354 1139 OFFCURVE",
"299 1181 OFFCURVE",
"299 1253 CURVE SMOOTH",
"299 1290 OFFCURVE",
"322 1320 OFFCURVE",
"345 1353 CURVE SMOOTH",
"368 1386 OFFCURVE",
"391 1425 OFFCURVE",
"391 1485 CURVE SMOOTH",
"391 1597 OFFCURVE",
"315 1645 OFFCURVE",
"152 1657 CURVE",
"135 1538 LINE",
"180 1538 OFFCURVE",
"212 1534 OFFCURVE",
"229 1526 CURVE SMOOTH",
"246 1518 OFFCURVE",
"254 1503 OFFCURVE",
"254 1481 CURVE SMOOTH",
"254 1464 OFFCURVE",
"250 1448 OFFCURVE",
"241 1435 CURVE SMOOTH",
"232 1421 OFFCURVE",
"222 1406 OFFCURVE",
"211 1389 CURVE SMOOTH",
"190 1356 OFFCURVE",
"168 1315 OFFCURVE",
"168 1247 CURVE SMOOTH",
"168 1114 OFFCURVE",
"287 1014 OFFCURVE",
"451 1014 CURVE SMOOTH",
"550 1014 OFFCURVE",
"620 1043 OFFCURVE",
"659 1100 CURVE",
"666 1096 LINE",
"659 1042 OFFCURVE",
"655 972 OFFCURVE",
"655 887 CURVE SMOOTH",
"655 0 LINE"
);
}
);
width = 1460;
}
);
note = g29;
},
{
glyphname = g30;
lastChange = "2016-11-10 14:31:18 +0000";
layers = (
{
layerId = "04B77939-8555-4652-993D-1D9FD1321E1B";
paths = (
{
closed = 1;
nodes = (
"739 0 LINE",
"739 637 LINE SMOOTH",
"739 694 OFFCURVE",
"737 739 OFFCURVE",
"733 774 CURVE",
"874 1038 LINE SMOOTH",
"907 1099 OFFCURVE",
"930 1144 OFFCURVE",
"943 1175 CURVE SMOOTH",
"955 1206 OFFCURVE",
"962 1222 OFFCURVE",
"963 1223 CURVE",
"964 1218 OFFCURVE",
"971 1203 OFFCURVE",
"982 1178 CURVE SMOOTH",
"993 1153 OFFCURVE",
"1011 1122 OFFCURVE",
"1036 1087 CURVE SMOOTH",
"1114 979 LINE",
"1219 1057 LINE",
"1020 1321 LINE",
"1171 1597 LINE",
"1038 1661 LINE",
"979 1530 OFFCURVE",
"944 1448 OFFCURVE",
"932 1413 CURVE",
"921 1437 OFFCURVE",
"897 1478 OFFCURVE",
"862 1536 CURVE SMOOTH",
"782 1659 LINE",
"680 1585 LINE",
"751 1479 OFFCURVE",
"796 1416 OFFCURVE",
"813 1395 CURVE SMOOTH",
"847 1354 OFFCURVE",
"861 1337 OFFCURVE",
"877 1321 CURVE",
"777 1145 OFFCURVE",
"721 1028 OFFCURVE",
"694 968 CURVE SMOOTH",
"680 937 OFFCURVE",
"671 915 OFFCURVE",
"668 901 CURVE",
"659 901 LINE",
"648 969 OFFCURVE",
"580 1109 OFFCURVE",
"455 1321 CURVE",
"491 1358 OFFCURVE",
"532 1410 OFFCURVE",
"578 1477 CURVE SMOOTH",
"651 1585 LINE",
"549 1659 LINE",
"475 1546 OFFCURVE",
"432 1478 OFFCURVE",
"420 1455 CURVE SMOOTH",
"407 1432 OFFCURVE",
"401 1420 OFFCURVE",
"401 1417 CURVE",
"400 1420 OFFCURVE",
"396 1432 OFFCURVE",
"391 1452 CURVE",
"385 1471 OFFCURVE",
"373 1499 OFFCURVE",
"356 1534 CURVE SMOOTH",
"293 1661 LINE",
"160 1597 LINE",
"311 1321 LINE",
"113 1057 LINE",
"217 979 LINE",
"297 1090 LINE SMOOTH",
"324 1125 OFFCURVE",
"346 1165 OFFCURVE",
"363 1208 CURVE SMOOTH",
"369 1223 LINE",
"393 1162 OFFCURVE",
"422 1101 OFFCURVE",
"457 1038 CURVE SMOOTH",
"600 768 LINE",
"597 746 OFFCURVE",
"596 700 OFFCURVE",
"596 631 CURVE SMOOTH",
"596 0 LINE"
);
}
);
width = 1331;
}
);
note = g30;
},
{
glyphname = g31;
lastChange = "2016-11-10 14:31:18 +0000";
layers = (
{
layerId = "04B77939-8555-4652-993D-1D9FD1321E1B";
paths = (
{
closed = 1;
nodes = (
"571 0 LINE",
"654 245 OFFCURVE",
"727 404 OFFCURVE",
"788 475 CURVE",
"853 406 OFFCURVE",
"961 187 OFFCURVE",
"1026 0 CURVE",
"1174 0 LINE",
"1111 172 OFFCURVE",
"1002 407 OFFCURVE",
"946 481 CURVE SMOOTH",
"917 518 OFFCURVE",
"887 540 OFFCURVE",
"856 549 CURVE",
"858 557 LINE",
"878 554 OFFCURVE",
"1041 547 OFFCURVE",
"1092 547 CURVE SMOOTH",
"1266 547 LINE",
"1397 1638 LINE",
"1245 1638 LINE",
"1143 666 LINE",
"1004 666 LINE",
"1053 1638 LINE",
"905 1638 LINE",
"866 666 LINE",
"733 666 LINE",
"694 1638 LINE",
"545 1638 LINE",
"594 666 LINE",
"455 666 LINE",
"354 1638 LINE",
"203 1638 LINE",
"332 547 LINE",
"518 547 LINE SMOOTH",
"559 547 OFFCURVE",
"715 554 OFFCURVE",
"739 557 CURVE",
"741 549 LINE",
"705 538 OFFCURVE",
"671 510 OFFCURVE",
"640 464 CURVE SMOOTH",
"577 372 OFFCURVE",
"485 164 OFFCURVE",
"426 0 CURVE"
);
},
{
closed = 1;
nodes = (
"922 0 LINE",
"922 129 LINE",
"676 129 LINE",
"676 0 LINE"
);
},
{
closed = 1;
nodes = (
"1567 357 OFFCURVE",
"1659 401 OFFCURVE",
"1659 506 CURVE SMOOTH",
"1659 561 OFFCURVE",
"1631 614 OFFCURVE",
"1575 665 CURVE SMOOTH",
"1535 702 LINE SMOOTH",
"1506 729 OFFCURVE",
"1491 748 OFFCURVE",
"1491 760 CURVE SMOOTH",
"1491 781 OFFCURVE",
"1505 797 OFFCURVE",
"1533 808 CURVE SMOOTH",
"1560 819 OFFCURVE",
"1604 827 OFFCURVE",
"1665 834 CURVE",
"1632 946 LINE",
"1523 929 OFFCURVE",
"1450 907 OFFCURVE",
"1413 882 CURVE SMOOTH",
"1375 857 OFFCURVE",
"1356 819 OFFCURVE",
"1356 770 CURVE SMOOTH",
"1356 716 OFFCURVE",
"1384 667 OFFCURVE",
"1439 623 CURVE SMOOTH",
"1468 600 OFFCURVE",
"1490 581 OFFCURVE",
"1503 567 CURVE SMOOTH",
"1516 553 OFFCURVE",
"1522 540 OFFCURVE",
"1522 528 CURVE SMOOTH",
"1522 507 OFFCURVE",
"1507 493 OFFCURVE",
"1477 484 CURVE SMOOTH",
"1446 475 OFFCURVE",
"1402 468 OFFCURVE",
"1343 463 CURVE",
"1370 350 LINE"
);
}
);
width = 1755;
}
);
note = g31;
},
{
glyphname = g32;
lastChange = "2016-11-10 14:31:18 +0000";
layers = (
{
layerId = "04B77939-8555-4652-993D-1D9FD1321E1B";
paths = (
{
closed = 1;
nodes = (
"1143 0 LINE",
"1143 1638 LINE",
"999 1638 LINE",
"999 0 LINE"
);
},
{
closed = 1;
nodes = (
"365 0 LINE",
"365 1638 LINE",
"227 1638 LINE",
"227 0 LINE"
);
},
{
closed = 1;
nodes = (
"834 539 OFFCURVE",
"929 648 OFFCURVE",
"936 803 CURVE",
"797 803 LINE",
"797 715 OFFCURVE",
"758 666 OFFCURVE",
"694 666 CURVE SMOOTH",
"622 666 OFFCURVE",
"578 714 OFFCURVE",
"578 803 CURVE",
"432 803 LINE",
"432 760 OFFCURVE",
"444 718 OFFCURVE",
"469 677 CURVE SMOOTH",
"517 593 OFFCURVE",
"602 539 OFFCURVE",
"694 539 CURVE SMOOTH"
);
},
{
closed = 1;
nodes = (
"578 983 LINE",
"578 1071 OFFCURVE",
"622 1120 OFFCURVE",
"694 1120 CURVE SMOOTH",
"758 1120 OFFCURVE",
"797 1071 OFFCURVE",
"797 983 CURVE",
"936 983 LINE",
"929 1138 OFFCURVE",
"834 1247 OFFCURVE",
"694 1247 CURVE SMOOTH",
"647 1247 OFFCURVE",
"604 1235 OFFCURVE",
"564 1210 CURVE SMOOTH",
"484 1160 OFFCURVE",
"432 1068 OFFCURVE",
"432 983 CURVE"
);
}
);
width = 1370;
}
);
note = g32;
},
{
glyphname = g33;
lastChange = "2016-11-10 14:31:18 +0000";
layers = (
{
layerId = "04B77939-8555-4652-993D-1D9FD1321E1B";
paths = (
{
closed = 1;
nodes = (
"590 0 LINE",
"590 625 LINE",
"903 625 LINE",
"903 754 LINE",
"590 754 LINE",
"590 1034 LINE",
"903 1034 LINE",
"903 1163 LINE",
"590 1163 LINE",
"590 1638 LINE",
"446 1638 LINE",
"446 1163 LINE",
"135 1163 LINE",
"135 1034 LINE",
"446 1034 LINE",
"446 754 LINE",
"135 754 LINE",
"135 625 LINE",
"446 625 LINE",
"446 0 LINE"
);
}
);
width = 1038;
}
);
note = g33;
},
{
glyphname = g34;
lastChange = "2016-11-10 14:31:18 +0000";
layers = (
{
layerId = "04B77939-8555-4652-993D-1D9FD1321E1B";
paths = (
{
closed = 1;
nodes = (
"848 270 LINE",
"764 391 LINE",
"561 260 LINE SMOOTH",
"474 203 OFFCURVE",
"407 154 OFFCURVE",
"358 111 CURVE",
"352 117 LINE",
"365 162 OFFCURVE",
"371 255 OFFCURVE",
"371 397 CURVE SMOOTH",
"371 471 LINE",
"432 476 OFFCURVE",
"490 494 OFFCURVE",
"546 525 CURVE SMOOTH",
"657 587 OFFCURVE",
"725 690 OFFCURVE",
"725 811 CURVE SMOOTH",
"725 1000 OFFCURVE",
"584 1124 OFFCURVE",
"371 1133 CURVE",
"371 1239 LINE SMOOTH",
"371 1382 OFFCURVE",
"365 1476 OFFCURVE",
"352 1520 CURVE",
"358 1526 LINE",
"403 1484 OFFCURVE",
"470 1434 OFFCURVE",
"561 1376 CURVE SMOOTH",
"764 1245 LINE",
"848 1366 LINE",
"371 1659 LINE",
"227 1585 LINE",
"227 51 LINE",
"371 -23 LINE"
);
},
{
closed = 1;
nodes = (
"371 997 LINE",
"498 989 OFFCURVE",
"582 916 OFFCURVE",
"582 811 CURVE SMOOTH",
"582 698 OFFCURVE",
"499 617 OFFCURVE",
"371 606 CURVE"
);
}
);
width = 1051;
}
);
note = g34;
},
{
glyphname = g35;
lastChange = "2016-11-10 14:31:18 +0000";
layers = (
{
layerId = "04B77939-8555-4652-993D-1D9FD1321E1B";
paths = (
{
closed = 1;
nodes = (
"279 0 LINE",
"299 379 OFFCURVE",
"381 825 OFFCURVE",
"473 1116 CURVE",
"647 1116 LINE",
"647 129 LINE",
"492 129 LINE",
"492 0 LINE",
"952 0 LINE",
"952 129 LINE",
"791 129 LINE",
"791 1116 LINE",
"975 1116 LINE",
"1072 808 OFFCURVE",
"1151 375 OFFCURVE",
"1174 0 CURVE",
"1319 0 LINE",
"1299 347 OFFCURVE",
"1219 792 OFFCURVE",
"1114 1116 CURVE",
"1194 1116 LINE",
"1194 1245 LINE",
"1077 1245 LINE",
"973 1517 OFFCURVE",
"852 1659 OFFCURVE",
"725 1659 CURVE SMOOTH",
"605 1659 OFFCURVE",
"490 1521 OFFCURVE",
"381 1245 CURVE",
"266 1245 LINE",
"266 1116 LINE",
"346 1116 LINE",
"238 771 OFFCURVE",
"154 344 OFFCURVE",
"135 0 CURVE"
);
},
{
closed = 1;
nodes = (
"546 1336 OFFCURVE",
"583 1404 OFFCURVE",
"620 1449 CURVE SMOOTH",
"657 1494 OFFCURVE",
"692 1516 OFFCURVE",
"725 1516 CURVE SMOOTH",
"758 1516 OFFCURVE",
"793 1494 OFFCURVE",
"830 1450 CURVE SMOOTH",
"867 1405 OFFCURVE",
"904 1337 OFFCURVE",
"940 1245 CURVE",
"510 1245 LINE"
);
}
);
width = 1454;
}
);
note = g35;
},
{
glyphname = g36;
lastChange = "2016-11-10 14:31:18 +0000";
layers = (
{
layerId = "04B77939-8555-4652-993D-1D9FD1321E1B";
paths = (
{
closed = 1;
nodes = (
"905 0 LINE",
"905 1116 LINE",
"279 1116 LINE",
"279 1305 LINE",
"1049 1305 LINE",
"1049 1434 LINE",
"279 1434 LINE",
"279 1638 LINE",
"135 1638 LINE",
"135 836 LINE",
"279 836 LINE",
"279 987 LINE",
"762 987 LINE",
"762 0 LINE"
);
}
);
width = 1229;
}
);
note = g36;
},
{
glyphname = g37;
lastChange = "2016-11-10 14:31:18 +0000";
layers = (
{
layerId = "04B77939-8555-4652-993D-1D9FD1321E1B";
paths = (
{
closed = 1;
nodes = (
"360 0 LINE",
"360 129 LINE",
"279 129 LINE",
"285 242 OFFCURVE",
"301 347 OFFCURVE",
"326 442 CURVE SMOOTH",
"377 632 OFFCURVE",
"459 757 OFFCURVE",
"590 860 CURVE",
"594 854 LINE",
"587 822 OFFCURVE",
"584 784 OFFCURVE",
"584 741 CURVE SMOOTH",
"584 634 OFFCURVE",
"627 322 OFFCURVE",
"668 129 CURVE",
"608 129 LINE",
"608 0 LINE",
"924 0 LINE",
"924 129 LINE",
"817 129 LINE",
"752 366 OFFCURVE",
"711 631 OFFCURVE",
"692 924 CURVE",
"710 933 OFFCURVE",
"746 950 OFFCURVE",
"800 973 CURVE SMOOTH",
"851 994 OFFCURVE",
"886 1010 OFFCURVE",
"905 1022 CURVE",
"911 1016 LINE",
"911 942 OFFCURVE",
"915 883 OFFCURVE",
"924 840 CURVE SMOOTH",
"963 637 OFFCURVE",
"1048 333 OFFCURVE",
"1128 129 CURVE",
"1079 129 LINE",
"1079 0 LINE",
"1395 0 LINE",
"1395 129 LINE",
"1284 129 LINE",
"1181 366 OFFCURVE",
"1077 735 OFFCURVE",
"1016 1067 CURVE",
"1216 1155 OFFCURVE",
"1290 1250 OFFCURVE",
"1290 1386 CURVE SMOOTH",
"1290 1563 OFFCURVE",
"1182 1649 OFFCURVE",
"989 1649 CURVE SMOOTH",
"911 1649 OFFCURVE",
"831 1632 OFFCURVE",
"750 1599 CURVE",
"784 1477 LINE",
"853 1503 OFFCURVE",
"921 1516 OFFCURVE",
"989 1516 CURVE SMOOTH",
"1090 1516 OFFCURVE",
"1147 1467 OFFCURVE",
"1147 1386 CURVE SMOOTH",
"1147 1317 OFFCURVE",
"1120 1272 OFFCURVE",
"1048 1228 CURVE SMOOTH",
"1012 1206 OFFCURVE",
"947 1176 OFFCURVE",
"854 1139 CURVE SMOOTH",
"737 1092 OFFCURVE",
"646 1049 OFFCURVE",
"581 1009 CURVE SMOOTH",
"452 928 OFFCURVE",
"347 825 OFFCURVE",
"273 687 CURVE SMOOTH",
"199 549 OFFCURVE",
"149 368 OFFCURVE",
"137 129 CURVE",
"45 129 LINE",
"45 0 LINE"
);
}
);
width = 1530;
}
);
note = g37;
},
{
glyphname = g38;
lastChange = "2016-11-10 14:31:18 +0000";
layers = (
{
layerId = "04B77939-8555-4652-993D-1D9FD1321E1B";
paths = (
{
closed = 1;
nodes = (
"680 0 LINE",
"680 913 LINE SMOOTH",
"680 960 OFFCURVE",
"677 1005 OFFCURVE",
"670 1047 CURVE",
"718 1058 OFFCURVE",
"782 1097 OFFCURVE",
"809 1137 CURVE",
"1020 1137 OFFCURVE",
"1128 1218 OFFCURVE",
"1128 1350 CURVE SMOOTH",
"1128 1483 OFFCURVE",
"1024 1564 OFFCURVE",
"805 1567 CURVE",
"768 1620 OFFCURVE",
"677 1659 OFFCURVE",
"608 1659 CURVE SMOOTH",
"541 1659 OFFCURVE",
"455 1622 OFFCURVE",
"414 1567 CURVE",
"194 1564 OFFCURVE",
"90 1483 OFFCURVE",
"90 1350 CURVE SMOOTH",
"90 1219 OFFCURVE",
"195 1137 OFFCURVE",
"408 1137 CURVE",
"435 1097 OFFCURVE",
"496 1058 OFFCURVE",
"545 1047 CURVE",
"540 1006 OFFCURVE",
"537 960 OFFCURVE",
"537 911 CURVE SMOOTH",
"537 0 LINE"
);
},
{
closed = 1;
nodes = (
"274 1219 OFFCURVE",
"209 1268 OFFCURVE",
"209 1352 CURVE SMOOTH",
"209 1435 OFFCURVE",
"265 1481 OFFCURVE",
"373 1481 CURVE",
"356 1450 OFFCURVE",
"348 1407 OFFCURVE",
"348 1350 CURVE SMOOTH",
"348 1303 OFFCURVE",
"356 1260 OFFCURVE",
"371 1219 CURVE"
);
},
{
closed = 1;
nodes = (
"525 1153 OFFCURVE",
"465 1233 OFFCURVE",
"465 1350 CURVE SMOOTH",
"465 1465 OFFCURVE",
"524 1546 OFFCURVE",
"608 1546 CURVE SMOOTH",
"693 1546 OFFCURVE",
"752 1466 OFFCURVE",
"752 1350 CURVE SMOOTH",
"752 1231 OFFCURVE",
"692 1153 OFFCURVE",
"608 1153 CURVE SMOOTH"
);
},
{
closed = 1;
nodes = (
"864 1258 OFFCURVE",
"872 1302 OFFCURVE",
"872 1350 CURVE SMOOTH",
"872 1403 OFFCURVE",
"863 1446 OFFCURVE",
"846 1481 CURVE",
"953 1481 OFFCURVE",
"1010 1435 OFFCURVE",
"1010 1352 CURVE SMOOTH",
"1010 1267 OFFCURVE",
"947 1219 OFFCURVE",
"848 1219 CURVE"
);
}
);
width = 1219;
}
);
note = g38;
},
{
glyphname = g39;
lastChange = "2016-11-10 14:31:18 +0000";
layers = (
{
layerId = "04B77939-8555-4652-993D-1D9FD1321E1B";
paths = (
{
closed = 1;
nodes = (
"972 104 OFFCURVE",
"1090 135 OFFCURVE",
"1199 198 CURVE SMOOTH",
"1417 323 OFFCURVE",
"1554 558 OFFCURVE",
"1554 813 CURVE SMOOTH",
"1554 942 OFFCURVE",
"1522 1061 OFFCURVE",
"1458 1171 CURVE SMOOTH",
"1329 1390 OFFCURVE",
"1097 1522 OFFCURVE",
"846 1522 CURVE SMOOTH",
"719 1522 OFFCURVE",
"600 1491 OFFCURVE",
"491 1428 CURVE SMOOTH",
"271 1302 OFFCURVE",
"135 1066 OFFCURVE",
"135 813 CURVE SMOOTH",
"135 686 OFFCURVE",
"167 567 OFFCURVE",
"231 458 CURVE SMOOTH",
"359 238 OFFCURVE",
"593 104 OFFCURVE",
"846 104 CURVE SMOOTH"
);
},
{
closed = 1;
nodes = (
"721 547 LINE",
"721 676 LINE",
"479 676 LINE",
"479 547 LINE"
);
},
{
closed = 1;
nodes = (
"721 956 LINE",
"721 1085 LINE",
"479 1085 LINE",
"479 956 LINE"
);
},
{
closed = 1;
nodes = (
"745 238 OFFCURVE",
"651 264 OFFCURVE",
"564 316 CURVE SMOOTH",
"389 419 OFFCURVE",
"279 610 OFFCURVE",
"279 813 CURVE SMOOTH",
"279 914 OFFCURVE",
"304 1010 OFFCURVE",
"355 1099 CURVE SMOOTH",
"456 1277 OFFCURVE",
"645 1389 OFFCURVE",
"846 1389 CURVE SMOOTH",
"946 1389 OFFCURVE",
"1040 1363 OFFCURVE",
"1128 1310 CURVE SMOOTH",
"1304 1205 OFFCURVE",
"1411 1014 OFFCURVE",
"1411 813 CURVE SMOOTH",
"1411 712 OFFCURVE",
"1386 617 OFFCURVE",
"1335 528 CURVE SMOOTH",
"1233 350 OFFCURVE",
"1046 238 OFFCURVE",
"846 238 CURVE SMOOTH"
);
},
{
closed = 1;
nodes = (
"1212 547 LINE",
"1212 676 LINE",
"971 676 LINE",
"971 547 LINE"
);
},
{
closed = 1;
nodes = (
"1212 956 LINE",
"1212 1085 LINE",
"971 1085 LINE",
"971 956 LINE"
);
}
);
width = 1690;
}
);
note = g39;
},
{
glyphname = g40;
lastChange = "2016-11-10 14:31:18 +0000";
layers = (
{
layerId = "04B77939-8555-4652-993D-1D9FD1321E1B";
paths = (
{
closed = 1;
nodes = (
"1339 1192 LINE",
"1214 1296 LINE SMOOTH",
"1123 1375 OFFCURVE",
"1047 1407 OFFCURVE",
"954 1407 CURVE SMOOTH",
"899 1407 OFFCURVE",
"835 1380 OFFCURVE",
"748 1327 CURVE SMOOTH",
"660 1274 OFFCURVE",
"581 1247 OFFCURVE",
"510 1247 CURVE SMOOTH",
"389 1247 OFFCURVE",
"338 1332 OFFCURVE",
"338 1503 CURVE",
"1438 1503 LINE",
"1438 1632 LINE",
"68 1632 LINE",
"68 1503 LINE",
"195 1503 LINE",
"195 1417 OFFCURVE",
"206 1345 OFFCURVE",
"227 1288 CURVE SMOOTH",
"269 1173 OFFCURVE",
"353 1118 OFFCURVE",
"516 1118 CURVE SMOOTH",
"601 1118 OFFCURVE",
"684 1158 OFFCURVE",
"759 1198 CURVE SMOOTH",
"834 1238 OFFCURVE",
"901 1278 OFFCURVE",
"954 1278 CURVE SMOOTH",
"1018 1278 OFFCURVE",
"1062 1257 OFFCURVE",
"1145 1186 CURVE SMOOTH",
"1245 1096 LINE"
);
},
{
closed = 1;
nodes = (
"1034 0 LINE",
"1034 1139 LINE",
"891 1139 LINE",
"891 0 LINE"
);
}
);
width = 1618;
}
);
note = g40;
},
{
glyphname = g41;
lastChange = "2016-11-10 14:31:18 +0000";
layers = (
{
layerId = "04B77939-8555-4652-993D-1D9FD1321E1B";
paths = (
{
closed = 1;
nodes = (
"651 0 LINE",
"651 895 LINE",
"821 895 LINE",
"821 1024 LINE",
"340 1024 LINE",
"340 895 LINE",
"508 895 LINE",
"508 0 LINE"
);
},
{
closed = 1;
nodes = (
"492 1116 LINE",
"492 1245 LINE",
"379 1245 LINE",
"379 1638 LINE",
"242 1638 LINE",
"242 1245 LINE",
"135 1245 LINE",
"135 1116 LINE"
);
},
{
closed = 1;
nodes = (
"1026 1116 LINE",
"1026 1245 LINE",
"909 1245 LINE",
"909 1638 LINE",
"772 1638 LINE",
"772 1245 LINE",
"670 1245 LINE",
"670 1116 LINE"
);
}
);
width = 1161;
}
);
note = g41;
},
{
glyphname = g42;
lastChange = "2016-11-10 14:31:18 +0000";
layers = (
{
layerId = "04B77939-8555-4652-993D-1D9FD1321E1B";
paths = (
{
closed = 1;
nodes = (
"1219 0 LINE",
"1219 129 LINE",
"365 129 LINE",
"365 1638 LINE",
"227 1638 LINE",
"227 0 LINE"
);
},
{
closed = 1;
nodes = (
"922 361 OFFCURVE",
"971 454 OFFCURVE",
"971 541 CURVE SMOOTH",
"971 637 OFFCURVE",
"900 702 OFFCURVE",
"807 702 CURVE SMOOTH",
"711 702 OFFCURVE",
"618 657 OFFCURVE",
"528 567 CURVE",
"608 473 LINE",
"683 548 OFFCURVE",
"731 582 OFFCURVE",
"780 582 CURVE SMOOTH",
"819 582 OFFCURVE",
"848 549 OFFCURVE",
"848 514 CURVE SMOOTH",
"848 469 OFFCURVE",
"811 422 OFFCURVE",
"735 346 CURVE",
"825 264 LINE"
);
}
);
width = 1286;
}
);
note = g42;
},
{
glyphname = g43;
lastChange = "2016-11-10 14:31:18 +0000";
layers = (
{
layerId = "04B77939-8555-4652-993D-1D9FD1321E1B";
paths = (
{
closed = 1;
nodes = (
"668 0 LINE",
"668 811 LINE SMOOTH",
"668 849 OFFCURVE",
"665 884 OFFCURVE",
"659 915 CURVE",
"754 927 OFFCURVE",
"834 964 OFFCURVE",
"901 1027 CURVE SMOOTH",
"1034 1152 OFFCURVE",
"1106 1370 OFFCURVE",
"1106 1638 CURVE",
"963 1638 LINE",
"963 1303 OFFCURVE",
"850 1083 OFFCURVE",
"657 1047 CURVE",
"664 1097 OFFCURVE",
"668 1163 OFFCURVE",
"668 1245 CURVE SMOOTH",
"668 1638 LINE",
"524 1638 LINE",
"524 1245 LINE SMOOTH",
"524 1162 OFFCURVE",
"528 1095 OFFCURVE",
"535 1044 CURVE",
"335 1079 OFFCURVE",
"233 1293 OFFCURVE",
"233 1638 CURVE",
"90 1638 LINE",
"90 1211 OFFCURVE",
"243 946 OFFCURVE",
"532 915 CURVE",
"527 878 OFFCURVE",
"524 841 OFFCURVE",
"524 805 CURVE SMOOTH",
"524 0 LINE"
);
}
);
width = 1196;
}
);
note = g43;
},
{
glyphname = g44;
lastChange = "2016-11-10 14:31:18 +0000";
layers = (
{
layerId = "04B77939-8555-4652-993D-1D9FD1321E1B";
paths = (
{
closed = 1;
nodes = (
"442 0 LINE",
"479 255 OFFCURVE",
"512 450 OFFCURVE",
"543 583 CURVE SMOOTH",
"574 716 OFFCURVE",
"599 782 OFFCURVE",
"618 782 CURVE SMOOTH",
"633 782 OFFCURVE",
"654 724 OFFCURVE",
"681 609 CURVE SMOOTH",
"707 493 OFFCURVE",
"745 290 OFFCURVE",
"795 0 CURVE",
"936 0 LINE",
"881 313 OFFCURVE",
"836 533 OFFCURVE",
"800 659 CURVE SMOOTH",
"764 784 OFFCURVE",
"726 865 OFFCURVE",
"686 901 CURVE",
"692 911 LINE",
"756 900 OFFCURVE",
"832 895 OFFCURVE",
"920 895 CURVE SMOOTH",
"1085 895 LINE",
"1085 1024 LINE",
"913 1024 LINE SMOOTH",
"834 1024 OFFCURVE",
"749 1008 OFFCURVE",
"696 991 CURVE",
"692 1001 LINE",
"795 1068 OFFCURVE",
"858 1203 OFFCURVE",
"858 1356 CURVE SMOOTH",
"858 1552 OFFCURVE",
"758 1653 OFFCURVE",
"573 1653 CURVE SMOOTH",
"529 1653 OFFCURVE",
"479 1647 OFFCURVE",
"424 1634 CURVE",
"446 1522 LINE",
"487 1531 OFFCURVE",
"529 1536 OFFCURVE",
"571 1536 CURVE SMOOTH",
"676 1536 OFFCURVE",
"737 1470 OFFCURVE",
"737 1335 CURVE SMOOTH",
"737 1282 OFFCURVE",
"732 1234 OFFCURVE",
"722 1193 CURVE SMOOTH",
"702 1110 OFFCURVE",
"664 1061 OFFCURVE",
"625 1061 CURVE SMOOTH",
"565 1061 OFFCURVE",
"516 1136 OFFCURVE",
"516 1237 CURVE SMOOTH",
"516 1309 OFFCURVE",
"557 1356 OFFCURVE",
"625 1356 CURVE SMOOTH",
"644 1356 OFFCURVE",
"662 1354 OFFCURVE",
"680 1350 CURVE",
"696 1454 LINE",
"677 1461 OFFCURVE",
"654 1464 OFFCURVE",
"625 1464 CURVE SMOOTH",
"484 1464 OFFCURVE",
"395 1378 OFFCURVE",
"395 1237 CURVE SMOOTH",
"395 1137 OFFCURVE",
"475 1035 OFFCURVE",
"559 1008 CURVE",
"555 997 LINE",
"524 1004 OFFCURVE",
"453 1024 OFFCURVE",
"354 1024 CURVE SMOOTH",
"158 1024 LINE",
"158 895 LINE",
"350 895 LINE SMOOTH",
"413 895 OFFCURVE",
"480 900 OFFCURVE",
"549 911 CURVE",
"553 901 LINE",
"463 830 OFFCURVE",
"380 530 OFFCURVE",
"305 0 CURVE"
);
}
);
width = 1243;
}
);
note = g44;
},
{
glyphname = g45;
lastChange = "2016-11-10 14:31:18 +0000";
layers = (
{
layerId = "04B77939-8555-4652-993D-1D9FD1321E1B";
paths = (
{
closed = 1;
nodes = (
"590 0 LINE",
"590 829 LINE",
"903 829 LINE",
"903 958 LINE",
"590 958 LINE",
"590 1638 LINE",
"446 1638 LINE",
"446 958 LINE",
"135 958 LINE",
"135 829 LINE",
"446 829 LINE",
"446 0 LINE"
);
}
);
width = 1038;
}
);
note = g45;
},
{
glyphname = g46;
lastChange = "2016-11-10 14:31:18 +0000";
layers = (
{
layerId = "04B77939-8555-4652-993D-1D9FD1321E1B";
paths = (
{
closed = 1;
nodes = (
"803 0 LINE",
"803 963 LINE SMOOTH",
"803 1028 OFFCURVE",
"800 1081 OFFCURVE",
"795 1124 CURVE",
"803 1130 LINE",
"852 1053 OFFCURVE",
"948 1008 OFFCURVE",
"1049 1008 CURVE SMOOTH",
"1236 1008 OFFCURVE",
"1354 1141 OFFCURVE",
"1354 1348 CURVE SMOOTH",
"1354 1459 OFFCURVE",
"1310 1556 OFFCURVE",
"1221 1659 CURVE",
"1114 1579 LINE",
"1182 1487 OFFCURVE",
"1210 1428 OFFCURVE",
"1210 1348 CURVE SMOOTH",
"1210 1213 OFFCURVE",
"1135 1143 OFFCURVE",
"1008 1143 CURVE SMOOTH",
"928 1143 OFFCURVE",
"819 1219 OFFCURVE",
"743 1343 CURVE",
"723 1343 LINE",
"650 1222 OFFCURVE",
"542 1143 OFFCURVE",
"461 1143 CURVE SMOOTH",
"332 1143 OFFCURVE",
"256 1216 OFFCURVE",
"256 1348 CURVE SMOOTH",
"256 1431 OFFCURVE",
"291 1499 OFFCURVE",
"352 1579 CURVE",
"246 1659 LINE",
"143 1519 OFFCURVE",
"113 1449 OFFCURVE",
"113 1348 CURVE SMOOTH",
"113 1141 OFFCURVE",
"233 1008 OFFCURVE",
"418 1008 CURVE SMOOTH",
"514 1008 OFFCURVE",
"599 1058 OFFCURVE",
"659 1133 CURVE",
"668 1126 LINE",
"663 1101 OFFCURVE",
"659 998 OFFCURVE",
"659 963 CURVE SMOOTH",
"659 0 LINE"
);
}
);
width = 1466;
}
);
note = g46;
},
{
glyphname = g47;
lastChange = "2016-11-10 14:31:18 +0000";
layers = (
{
layerId = "04B77939-8555-4652-993D-1D9FD1321E1B";
paths = (
{
closed = 1;
nodes = (
"776 0 LINE",
"776 625 LINE SMOOTH",
"776 766 OFFCURVE",
"825 929 OFFCURVE",
"924 1114 CURVE SMOOTH",
"967 1194 OFFCURVE",
"995 1247 OFFCURVE",
"999 1276 CURVE",
"1010 1272 LINE",
"1007 1261 OFFCURVE",
"1006 1241 OFFCURVE",
"1006 1212 CURVE SMOOTH",
"1006 1164 OFFCURVE",
"1013 1110 OFFCURVE",
"1026 1051 CURVE SMOOTH",
"1085 795 LINE",
"1210 825 LINE",
"1079 1368 LINE",
"1132 1443 OFFCURVE",
"1186 1511 OFFCURVE",
"1241 1573 CURVE",
"1124 1661 LINE",
"1084 1609 LINE SMOOTH",
"917 1400 OFFCURVE",
"772 1139 OFFCURVE",
"709 922 CURVE",
"692 991 OFFCURVE",
"665 1066 OFFCURVE",
"628 1145 CURVE SMOOTH",
"552 1304 OFFCURVE",
"456 1450 OFFCURVE",
"283 1661 CURVE",
"168 1575 LINE",
"218 1518 OFFCURVE",
"272 1449 OFFCURVE",
"330 1368 CURVE",
"199 825 LINE",
"324 795 LINE",
"383 1051 LINE SMOOTH",
"396 1110 OFFCURVE",
"403 1164 OFFCURVE",
"403 1212 CURVE SMOOTH",
"403 1241 OFFCURVE",
"402 1261 OFFCURVE",
"399 1272 CURVE",
"410 1276 LINE",
"414 1247 OFFCURVE",
"442 1194 OFFCURVE",
"485 1114 CURVE SMOOTH",
"584 929 OFFCURVE",
"633 766 OFFCURVE",
"633 627 CURVE SMOOTH",
"633 0 LINE"
);
}
);
width = 1401;
}
);
note = g47;
},
{
glyphname = g48;
lastChange = "2016-11-10 14:31:18 +0000";
layers = (
{
layerId = "04B77939-8555-4652-993D-1D9FD1321E1B";
paths = (
{
closed = 1;
nodes = (
"371 0 LINE",
"371 987 LINE",
"1180 987 LINE",
"1180 1116 LINE",
"371 1116 LINE",
"371 1638 LINE",
"227 1638 LINE",
"227 0 LINE"
);
},
{
closed = 1;
nodes = (
"647 1245 LINE",
"647 1638 LINE",
"504 1638 LINE",
"504 1245 LINE"
);
},
{
closed = 1;
nodes = (
"913 1245 LINE",
"913 1638 LINE",
"770 1638 LINE",
"770 1245 LINE"
);
},
{
closed = 1;
nodes = (
"1180 1245 LINE",
"1180 1638 LINE",
"1036 1638 LINE",
"1036 1245 LINE"
);
}
);
width = 1315;
}
);
note = g48;
},
{
glyphname = g49;
lastChange = "2016-11-10 14:31:18 +0000";
layers = (
{
layerId = "04B77939-8555-4652-993D-1D9FD1321E1B";
paths = (
{
closed = 1;
nodes = (
"301 107 OFFCURVE",
"375 488 OFFCURVE",
"428 829 CURVE",
"659 829 LINE",
"659 426 LINE",
"512 426 LINE",
"512 297 LINE",
"659 297 LINE",
"659 0 LINE",
"803 0 LINE",
"803 297 LINE",
"952 297 LINE",
"952 426 LINE",
"803 426 LINE",
"803 829 LINE",
"1016 829 LINE",
"1030 736 OFFCURVE",
"1045 644 OFFCURVE",
"1060 555 CURVE SMOOTH",
"1091 376 OFFCURVE",
"1119 223 OFFCURVE",
"1141 109 CURVE SMOOTH",
"1152 52 OFFCURVE",
"1160 9 OFFCURVE",
"1165 -20 CURVE",
"1309 0 LINE",
"1229 361 OFFCURVE",
"1124 915 OFFCURVE",
"1085 1266 CURVE",
"956 1243 LINE",
"965 1167 OFFCURVE",
"978 1072 OFFCURVE",
"995 958 CURVE",
"803 958 LINE",
"803 1638 LINE",
"659 1638 LINE",
"659 958 LINE",
"449 958 LINE",
"487 1245 LINE",
"358 1262 LINE",
"323 938 OFFCURVE",
"248 517 OFFCURVE",
"135 0 CURVE",
"274 -20 LINE"
);
}
);
width = 1444;
}
);
note = g49;
},
{
glyphname = g50;
lastChange = "2016-11-10 14:31:18 +0000";
layers = (
{
layerId = "04B77939-8555-4652-993D-1D9FD1321E1B";
paths = (
{
closed = 1;
nodes = (
"707 0 LINE",
"707 799 LINE SMOOTH",
"707 882 OFFCURVE",
"755 944 OFFCURVE",
"863 1012 CURVE SMOOTH",
"970 1079 OFFCURVE",
"1018 1143 OFFCURVE",
"1018 1231 CURVE SMOOTH",
"1018 1324 OFFCURVE",
"969 1406 OFFCURVE",
"872 1477 CURVE SMOOTH",
"806 1524 OFFCURVE",
"761 1560 OFFCURVE",
"737 1584 CURVE",
"712 1607 OFFCURVE",
"695 1632 OFFCURVE",
"686 1659 CURVE",
"545 1612 LINE",
"574 1526 OFFCURVE",
"638 1451 OFFCURVE",
"738 1386 CURVE SMOOTH",
"834 1325 OFFCURVE",
"872 1284 OFFCURVE",
"872 1233 CURVE SMOOTH",
"872 1208 OFFCURVE",
"861 1184 OFFCURVE",
"840 1162 CURVE SMOOTH",
"819 1140 OFFCURVE",
"778 1109 OFFCURVE",
"718 1069 CURVE SMOOTH",
"615 1000 OFFCURVE",
"563 910 OFFCURVE",
"563 799 CURVE SMOOTH",
"563 0 LINE"
);
},
{
closed = 1;
nodes = (
"279 840 LINE",
"279 987 LINE",
"518 987 LINE",
"518 1116 LINE",
"279 1116 LINE",
"279 1356 LINE",
"518 1356 LINE",
"518 1485 LINE",
"279 1485 LINE",
"279 1638 LINE",
"135 1638 LINE",
"135 840 LINE"
);
}
);
width = 1176;
}
);
note = g50;
},
{
glyphname = g51;
lastChange = "2016-11-10 14:31:18 +0000";
layers = (
{
layerId = "04B77939-8555-4652-993D-1D9FD1321E1B";
paths = (
{
closed = 1;
nodes = (
"1059 0 LINE",
"1059 129 LINE",
"371 129 LINE",
"371 1116 LINE",
"922 1116 LINE",
"922 983 LINE",
"1059 983 LINE",
"1059 1638 LINE",
"227 1638 LINE",
"227 0 LINE"
);
},
{
closed = 1;
nodes = (
"371 1509 LINE",
"922 1509 LINE",
"922 1245 LINE",
"371 1245 LINE"
);
}
);
width = 1239;
}
);
note = g51;
},
{
glyphname = g52;
lastChange = "2016-11-10 14:31:18 +0000";
layers = (
{
layerId = "04B77939-8555-4652-993D-1D9FD1321E1B";
paths = (
{
closed = 1;
nodes = (
"1090 -8 LINE",
"1036 512 LINE",
"899 498 LINE",
"915 334 LINE",
"369 334 LINE",
"380 505 OFFCURVE",
"385 675 OFFCURVE",
"385 846 CURVE SMOOTH",
"385 1021 OFFCURVE",
"380 1175 OFFCURVE",
"371 1307 CURVE",
"915 1307 LINE",
"899 1137 LINE",
"1036 1122 LINE",
"1090 1642 LINE",
"952 1657 LINE",
"930 1436 LINE",
"362 1436 LINE",
"340 1659 LINE",
"203 1638 LINE",
"233 1397 OFFCURVE",
"248 1133 OFFCURVE",
"248 846 CURVE SMOOTH",
"248 559 OFFCURVE",
"233 277 OFFCURVE",
"203 0 CURVE",
"340 -20 LINE",
"360 205 LINE",
"928 205 LINE",
"952 -23 LINE"
);
}
);
width = 1270;
}
);
note = g52;
},
{
glyphname = g53;
lastChange = "2016-11-10 14:31:18 +0000";
layers = (
{
layerId = "04B77939-8555-4652-993D-1D9FD1321E1B";
paths = (
{
closed = 1;
nodes = (
"758 0 LINE",
"758 1638 LINE",
"614 1638 LINE",
"614 0 LINE"
);
},
{
closed = 1;
nodes = (
"477 502 LINE",
"477 631 LINE",
"180 631 LINE",
"180 502 LINE"
);
},
{
closed = 1;
nodes = (
"477 809 LINE",
"477 938 LINE",
"180 938 LINE",
"180 809 LINE"
);
},
{
closed = 1;
nodes = (
"477 1116 LINE",
"477 1245 LINE",
"180 1245 LINE",
"180 1116 LINE"
);
},
{
closed = 1;
nodes = (
"1192 502 LINE",
"1192 631 LINE",
"895 631 LINE",
"895 502 LINE"
);
},
{
closed = 1;
nodes = (
"1192 809 LINE",
"1192 938 LINE",
"895 938 LINE",
"895 809 LINE"
);
},
{
closed = 1;
nodes = (
"1192 1116 LINE",
"1192 1245 LINE",
"895 1245 LINE",
"895 1116 LINE"
);
}
);
width = 1372;
}
);
note = g53;
},
{
glyphname = g54;
lastChange = "2016-11-10 14:31:18 +0000";
layers = (
{
layerId = "04B77939-8555-4652-993D-1D9FD1321E1B";
paths = (
{
closed = 1;
nodes = (
"279 0 LINE",
"302 433 OFFCURVE",
"409 986 OFFCURVE",
"538 1289 CURVE SMOOTH",
"602 1440 OFFCURVE",
"664 1516 OFFCURVE",
"725 1516 CURVE SMOOTH",
"784 1516 OFFCURVE",
"845 1445 OFFCURVE",
"907 1304 CURVE SMOOTH",
"1031 1021 OFFCURVE",
"1145 476 OFFCURVE",
"1174 0 CURVE",
"1319 0 LINE",
"1294 503 OFFCURVE",
"1162 1127 OFFCURVE",
"994 1431 CURVE SMOOTH",
"909 1583 OFFCURVE",
"820 1659 OFFCURVE",
"725 1659 CURVE SMOOTH",
"636 1659 OFFCURVE",
"550 1582 OFFCURVE",
"467 1429 CURVE SMOOTH",
"299 1122 OFFCURVE",
"164 523 OFFCURVE",
"135 0 CURVE"
);
},
{
closed = 1;
nodes = (
"791 205 LINE",
"791 1114 LINE",
"647 1114 LINE",
"647 205 LINE"
);
}
);
width = 1454;
}
);
note = g54;
},
{
glyphname = g55;
lastChange = "2016-11-10 14:31:18 +0000";
layers = (
{
layerId = "04B77939-8555-4652-993D-1D9FD1321E1B";
paths = (
{
closed = 1;
nodes = (
"590 0 LINE",
"590 1116 LINE",
"903 1116 LINE",
"903 1245 LINE",
"590 1245 LINE",
"590 1509 LINE",
"903 1509 LINE",
"903 1638 LINE",
"135 1638 LINE",
"135 1509 LINE",
"446 1509 LINE",
"446 1245 LINE",
"135 1245 LINE",
"135 1116 LINE",
"446 1116 LINE",
"446 0 LINE"
);
}
);
width = 1038;
}
);
note = g55;
},
{
glyphname = g56;
lastChange = "2016-11-10 14:31:18 +0000";
layers = (
{
layerId = "04B77939-8555-4652-993D-1D9FD1321E1B";
paths = (
{
closed = 1;
nodes = (
"799 0 LINE",
"799 92 OFFCURVE",
"856 171 OFFCURVE",
"977 260 CURVE SMOOTH",
"1103 353 OFFCURVE",
"1187 424 OFFCURVE",
"1230 474 CURVE SMOOTH",
"1314 574 OFFCURVE",
"1360 692 OFFCURVE",
"1360 836 CURVE SMOOTH",
"1360 1089 OFFCURVE",
"1241 1235 OFFCURVE",
"1038 1235 CURVE SMOOTH",
"941 1235 OFFCURVE",
"864 1187 OFFCURVE",
"805 1092 CURVE",
"797 1096 LINE",
"810 1129 OFFCURVE",
"817 1179 OFFCURVE",
"817 1245 CURVE SMOOTH",
"817 1322 OFFCURVE",
"821 1380 OFFCURVE",
"828 1417 CURVE SMOOTH",
"843 1492 OFFCURVE",
"875 1520 OFFCURVE",
"958 1520 CURVE SMOOTH",
"990 1520 OFFCURVE",
"1025 1517 OFFCURVE",
"1064 1510 CURVE SMOOTH",
"1124 1499 LINE",
"1147 1626 LINE",
"1075 1641 OFFCURVE",
"1012 1649 OFFCURVE",
"958 1649 CURVE SMOOTH",
"758 1649 OFFCURVE",
"674 1529 OFFCURVE",
"674 1245 CURVE SMOOTH",
"674 1179 OFFCURVE",
"681 1129 OFFCURVE",
"694 1096 CURVE",
"686 1092 LINE",
"635 1187 OFFCURVE",
"558 1235 OFFCURVE",
"457 1235 CURVE SMOOTH",
"254 1235 OFFCURVE",
"135 1088 OFFCURVE",
"135 836 CURVE SMOOTH",
"135 761 OFFCURVE",
"147 692 OFFCURVE",
"170 631 CURVE SMOOTH",
"216 507 OFFCURVE",
"283 422 OFFCURVE",
"520 254 CURVE SMOOTH",
"641 167 OFFCURVE",
"698 91 OFFCURVE",
"698 0 CURVE"
);
},
{
closed = 1;
nodes = (
"657 271 OFFCURVE",
"605 322 OFFCURVE",
"546 376 CURVE SMOOTH",
"486 430 OFFCURVE",
"420 488 OFFCURVE",
"368 560 CURVE SMOOTH",
"316 632 OFFCURVE",
"279 719 OFFCURVE",
"279 831 CURVE SMOOTH",
"279 1014 OFFCURVE",
"338 1106 OFFCURVE",
"457 1106 CURVE SMOOTH",
"597 1106 OFFCURVE",
"674 1020 OFFCURVE",
"674 868 CURVE SMOOTH",
"674 465 LINE SMOOTH",
"674 396 OFFCURVE",
"679 313 OFFCURVE",
"688 215 CURVE",
"680 215 LINE"
);
},
{
closed = 1;
nodes = (
"809 267 LINE SMOOTH",
"814 337 OFFCURVE",
"817 403 OFFCURVE",
"817 465 CURVE SMOOTH",
"817 868 LINE SMOOTH",
"817 1019 OFFCURVE",
"897 1106 OFFCURVE",
"1038 1106 CURVE SMOOTH",
"1157 1106 OFFCURVE",
"1217 1014 OFFCURVE",
"1217 831 CURVE SMOOTH",
"1217 719 OFFCURVE",
"1180 632 OFFCURVE",
"1128 560 CURVE SMOOTH",
"1075 487 OFFCURVE",
"1008 429 OFFCURVE",
"948 375 CURVE SMOOTH",
"888 321 OFFCURVE",
"836 271 OFFCURVE",
"813 215 CURVE",
"805 215 LINE"
);
}
);
width = 1495;
}
);
note = g56;
},
{
glyphname = g57;
lastChange = "2016-11-10 14:31:18 +0000";
layers = (
{
layerId = "04B77939-8555-4652-993D-1D9FD1321E1B";
paths = (
{
closed = 1;
nodes = (
"371 0 LINE",
"371 1116 LINE",
"635 1116 LINE",
"635 0 LINE",
"778 0 LINE",
"778 1116 LINE",
"1057 1116 LINE",
"1057 0 LINE",
"1194 0 LINE",
"1194 1638 LINE",
"227 1638 LINE",
"227 0 LINE"
);
},
{
closed = 1;
nodes = (
"371 1509 LINE",
"1057 1509 LINE",
"1057 1245 LINE",
"371 1245 LINE"
);
}
);
width = 1370;
}
);
note = g57;
},
{
glyphname = g58;
lastChange = "2016-11-10 14:31:18 +0000";
layers = (
{
layerId = "04B77939-8555-4652-993D-1D9FD1321E1B";
paths = (
{
closed = 1;
nodes = (
"770 -20 OFFCURVE",
"935 131 OFFCURVE",
"1036 410 CURVE",
"909 459 LINE",
"825 220 OFFCURVE",
"714 109 OFFCURVE",
"565 109 CURVE SMOOTH",
"378 109 OFFCURVE",
"279 205 OFFCURVE",
"279 389 CURVE SMOOTH",
"279 484 OFFCURVE",
"324 557 OFFCURVE",
"392 622 CURVE SMOOTH",
"459 686 OFFCURVE",
"549 742 OFFCURVE",
"639 801 CURVE SMOOTH",
"729 860 OFFCURVE",
"819 921 OFFCURVE",
"887 998 CURVE SMOOTH",
"954 1074 OFFCURVE",
"999 1165 OFFCURVE",
"999 1282 CURVE SMOOTH",
"999 1511 OFFCURVE",
"843 1659 OFFCURVE",
"594 1659 CURVE SMOOTH",
"389 1659 OFFCURVE",
"216 1510 OFFCURVE",
"143 1270 CURVE",
"268 1231 LINE",
"343 1444 OFFCURVE",
"442 1530 OFFCURVE",
"598 1530 CURVE SMOOTH",
"757 1530 OFFCURVE",
"856 1431 OFFCURVE",
"856 1282 CURVE SMOOTH",
"856 1181 OFFCURVE",
"809 1100 OFFCURVE",
"730 1026 CURVE SMOOTH",
"690 989 OFFCURVE",
"612 932 OFFCURVE",
"496 856 CURVE SMOOTH",
"391 787 OFFCURVE",
"316 732 OFFCURVE",
"273 689 CURVE SMOOTH",
"185 603 OFFCURVE",
"135 506 OFFCURVE",
"135 389 CURVE SMOOTH",
"135 122 OFFCURVE",
"283 -20 OFFCURVE",
"559 -20 CURVE SMOOTH"
);
}
);
width = 1171;
}
);
note = g58;
},
{
glyphname = g59;
lastChange = "2016-11-10 14:31:18 +0000";
layers = (
{
layerId = "04B77939-8555-4652-993D-1D9FD1321E1B";
paths = (
{
closed = 1;
nodes = (
"1247 33 LINE",
"1056 424 OFFCURVE",
"949 920 OFFCURVE",
"946 1364 CURVE",
"1001 1409 OFFCURVE",
"1081 1470 OFFCURVE",
"1186 1548 CURVE",
"1106 1663 LINE",
"860 1481 OFFCURVE",
"666 1307 OFFCURVE",
"524 1140 CURVE SMOOTH",
"240 806 OFFCURVE",
"113 449 OFFCURVE",
"113 0 CURVE",
"266 0 LINE",
"266 503 OFFCURVE",
"417 868 OFFCURVE",
"784 1221 CURVE SMOOTH",
"803 1240 OFFCURVE",
"824 1264 OFFCURVE",
"846 1292 CURVE",
"854 1288 LINE",
"829 1252 OFFCURVE",
"821 1218 OFFCURVE",
"821 1110 CURVE SMOOTH",
"821 901 OFFCURVE",
"960 263 OFFCURVE",
"1112 -20 CURVE"
);
},
{
closed = 1;
nodes = (
"918 0 LINE",
"918 129 LINE",
"717 129 LINE",
"717 659 LINE",
"831 659 LINE",
"831 788 LINE",
"467 788 LINE",
"467 659 LINE",
"586 659 LINE",
"586 129 LINE",
"389 129 LINE",
"389 0 LINE"
);
}
);
width = 1382;
}
);
note = g59;
},
{
glyphname = g60;
lastChange = "2016-11-10 14:31:18 +0000";
layers = (
{
layerId = "04B77939-8555-4652-993D-1D9FD1321E1B";
paths = (
{
closed = 1;
nodes = (
"283 0 LINE",
"483 1245 LINE",
"547 1245 LINE",
"743 0 LINE",
"897 0 LINE",
"676 1245 LINE",
"776 1245 LINE",
"776 1374 LINE",
"256 1374 LINE",
"256 1245 LINE",
"354 1245 LINE",
"135 0 LINE"
);
},
{
closed = 1;
nodes = (
"1002 913 OFFCURVE",
"1092 998 OFFCURVE",
"1092 1118 CURVE SMOOTH",
"1092 1197 OFFCURVE",
"1051 1271 OFFCURVE",
"971 1298 CURVE",
"1035 1351 OFFCURVE",
"1067 1414 OFFCURVE",
"1067 1485 CURVE SMOOTH",
"1067 1585 OFFCURVE",
"990 1659 OFFCURVE",
"877 1659 CURVE",
"848 1530 LINE",
"901 1530 OFFCURVE",
"928 1499 OFFCURVE",
"928 1438 CURVE SMOOTH",
"928 1382 OFFCURVE",
"899 1343 OFFCURVE",
"846 1343 CURVE",
"846 1235 LINE",
"913 1230 OFFCURVE",
"954 1192 OFFCURVE",
"954 1135 CURVE SMOOTH",
"954 1087 OFFCURVE",
"921 1042 OFFCURVE",
"848 1042 CURVE",
"877 913 LINE"
);
}
);
width = 1182;
}
);
note = g60;
},
{
glyphname = g61;
lastChange = "2016-11-10 14:31:18 +0000";
layers = (
{
layerId = "04B77939-8555-4652-993D-1D9FD1321E1B";
paths = (
{
closed = 1;
nodes = (
"651 0 LINE",
"651 911 LINE",
"720 900 OFFCURVE",
"795 895 OFFCURVE",
"874 895 CURVE SMOOTH",
"1040 895 LINE",
"1040 1024 LINE",
"868 1024 LINE SMOOTH",
"790 1024 OFFCURVE",
"718 1017 OFFCURVE",
"651 1004 CURVE",
"649 1010 LINE",
"749 1047 OFFCURVE",
"813 1173 OFFCURVE",
"813 1356 CURVE SMOOTH",
"813 1531 OFFCURVE",
"720 1653 OFFCURVE",
"580 1653 CURVE SMOOTH",
"428 1653 OFFCURVE",
"350 1571 OFFCURVE",
"350 1350 CURVE SMOOTH",
"350 1170 OFFCURVE",
"411 1057 OFFCURVE",
"514 1012 CURVE",
"510 1006 LINE",
"408 1018 OFFCURVE",
"341 1024 OFFCURVE",
"309 1024 CURVE SMOOTH",
"113 1024 LINE",
"113 895 LINE",
"305 895 LINE SMOOTH",
"385 895 OFFCURVE",
"479 905 OFFCURVE",
"508 913 CURVE",
"508 0 LINE"
);
},
{
closed = 1;
nodes = (
"550 1055 OFFCURVE",
"525 1081 OFFCURVE",
"506 1133 CURVE SMOOTH",
"487 1185 OFFCURVE",
"477 1252 OFFCURVE",
"477 1335 CURVE SMOOTH",
"477 1470 OFFCURVE",
"514 1536 OFFCURVE",
"578 1536 CURVE SMOOTH",
"647 1536 OFFCURVE",
"682 1469 OFFCURVE",
"682 1335 CURVE SMOOTH",
"682 1279 OFFCURVE",
"678 1230 OFFCURVE",
"669 1188 CURVE SMOOTH",
"651 1103 OFFCURVE",
"616 1055 OFFCURVE",
"580 1055 CURVE SMOOTH"
);
}
);
width = 1153;
}
);
note = g61;
},
{
glyphname = g62;
lastChange = "2016-11-10 14:31:18 +0000";
layers = (
{
layerId = "04B77939-8555-4652-993D-1D9FD1321E1B";
paths = (
{
closed = 1;
nodes = (
"1135 0 LINE",
"1135 129 LINE",
"637 129 LINE SMOOTH",
"560 129 OFFCURVE",
"504 139 OFFCURVE",
"467 158 CURVE SMOOTH",
"393 196 OFFCURVE",
"365 273 OFFCURVE",
"365 465 CURVE SMOOTH",
"365 657 LINE",
"561 680 OFFCURVE",
"690 813 OFFCURVE",
"690 997 CURVE SMOOTH",
"690 1185 OFFCURVE",
"574 1300 OFFCURVE",
"365 1319 CURVE",
"365 1638 LINE",
"227 1638 LINE",
"227 465 LINE SMOOTH",
"227 288 OFFCURVE",
"253 173 OFFCURVE",
"309 101 CURVE SMOOTH",
"365 29 OFFCURVE",
"442 0 OFFCURVE",
"637 0 CURVE SMOOTH"
);
},
{
closed = 1;
nodes = (
"365 1190 LINE",
"476 1175 OFFCURVE",
"543 1105 OFFCURVE",
"543 997 CURVE SMOOTH",
"543 874 OFFCURVE",
"484 803 OFFCURVE",
"365 786 CURVE"
);
},
{
closed = 1;
nodes = (
"1135 629 LINE",
"1135 758 LINE",
"756 758 LINE",
"756 629 LINE"
);
},
{
closed = 1;
nodes = (
"1135 936 LINE",
"1135 1065 LINE",
"756 1065 LINE",
"756 936 LINE"
);
},
{
closed = 1;
nodes = (
"1135 1243 LINE",
"1135 1372 LINE",
"756 1372 LINE",
"756 1243 LINE"
);
}
);
width = 1337;
}
);
note = g62;
},
{
glyphname = g63;
lastChange = "2016-11-10 14:31:18 +0000";
layers = (
{
layerId = "04B77939-8555-4652-993D-1D9FD1321E1B";
paths = (
{
closed = 1;
nodes = (
"750 0 LINE",
"750 547 LINE",
"1038 547 LINE",
"1038 676 LINE",
"750 676 LINE",
"750 1024 LINE SMOOTH",
"750 1207 OFFCURVE",
"739 1393 OFFCURVE",
"727 1485 CURVE",
"735 1485 LINE",
"761 1396 OFFCURVE",
"800 1315 OFFCURVE",
"852 1243 CURVE SMOOTH",
"1155 817 LINE",
"1266 897 LINE",
"719 1667 LINE",
"637 1667 LINE",
"90 897 LINE",
"201 817 LINE",
"506 1247 LINE SMOOTH",
"570 1338 OFFCURVE",
"597 1426 OFFCURVE",
"616 1485 CURVE",
"625 1485 LINE",
"617 1433 OFFCURVE",
"606 1219 OFFCURVE",
"606 1024 CURVE SMOOTH",
"606 676 LINE",
"332 676 LINE",
"332 547 LINE",
"606 547 LINE",
"606 0 LINE"
);
}
);
width = 1356;
}
);
note = g63;
},
{
glyphname = g64;
lastChange = "2016-11-10 14:31:18 +0000";
layers = (
{
layerId = "04B77939-8555-4652-993D-1D9FD1321E1B";
paths = (
{
closed = 1;
nodes = (
"893 0 LINE",
"893 1509 LINE",
"1305 1509 LINE",
"1305 1638 LINE",
"334 1638 LINE",
"334 1509 LINE",
"750 1509 LINE",
"750 0 LINE"
);
},
{
closed = 1;
nodes = (
"528 1030 OFFCURVE",
"608 1139 OFFCURVE",
"612 1376 CURVE",
"473 1376 LINE",
"473 1237 OFFCURVE",
"428 1157 OFFCURVE",
"348 1157 CURVE SMOOTH",
"259 1157 OFFCURVE",
"213 1235 OFFCURVE",
"213 1376 CURVE",
"68 1376 LINE",
"68 1156 OFFCURVE",
"172 1030 OFFCURVE",
"348 1030 CURVE SMOOTH"
);
},
{
closed = 1;
nodes = (
"1470 1030 OFFCURVE",
"1550 1139 OFFCURVE",
"1554 1376 CURVE",
"1415 1376 LINE",
"1415 1237 OFFCURVE",
"1370 1157 OFFCURVE",
"1290 1157 CURVE SMOOTH",
"1201 1157 OFFCURVE",
"1155 1235 OFFCURVE",
"1155 1376 CURVE",
"1010 1376 LINE",
"1010 1156 OFFCURVE",
"1114 1030 OFFCURVE",
"1290 1030 CURVE SMOOTH"
);
}
);
width = 1622;
}
);
note = g64;
},
{
glyphname = g65;
lastChange = "2016-11-10 14:31:18 +0000";
layers = (
{
layerId = "04B77939-8555-4652-993D-1D9FD1321E1B";
paths = (
{
closed = 1;
nodes = (
"480 543 OFFCURVE",
"544 849 OFFCURVE",
"551 896 CURVE SMOOTH",
"558 943 OFFCURVE",
"562 973 OFFCURVE",
"563 987 CURVE",
"672 987 LINE",
"674 948 OFFCURVE",
"683 890 OFFCURVE",
"698 813 CURVE SMOOTH",
"879 -20 LINE",
"1020 2 LINE",
"844 815 LINE SMOOTH",
"829 880 OFFCURVE",
"814 938 OFFCURVE",
"797 987 CURVE",
"1065 987 LINE",
"1065 1116 LINE",
"440 1116 LINE SMOOTH",
"387 1116 OFFCURVE",
"350 1121 OFFCURVE",
"327 1130 CURVE SMOOTH",
"281 1148 OFFCURVE",
"262 1187 OFFCURVE",
"262 1264 CURVE SMOOTH",
"262 1275 OFFCURVE",
"268 1319 OFFCURVE",
"280 1396 CURVE",
"283 1442 LINE",
"283 1506 OFFCURVE",
"265 1576 OFFCURVE",
"229 1653 CURVE",
"90 1622 LINE",
"123 1557 OFFCURVE",
"139 1495 OFFCURVE",
"139 1438 CURVE SMOOTH",
"139 1416 OFFCURVE",
"136 1385 OFFCURVE",
"129 1345 CURVE SMOOTH",
"122 1305 OFFCURVE",
"119 1277 OFFCURVE",
"119 1262 CURVE SMOOTH",
"119 1197 OFFCURVE",
"130 1144 OFFCURVE",
"151 1105 CURVE SMOOTH",
"194 1026 OFFCURVE",
"269 990 OFFCURVE",
"436 987 CURVE",
"422 949 OFFCURVE",
"407 895 OFFCURVE",
"391 825 CURVE SMOOTH",
"217 2 LINE",
"360 -20 LINE"
);
},
{
closed = 1;
nodes = (
"532 1245 LINE",
"532 1516 LINE",
"389 1516 LINE",
"389 1245 LINE"
);
},
{
closed = 1;
nodes = (
"799 1245 LINE",
"799 1516 LINE",
"655 1516 LINE",
"655 1245 LINE"
);
},
{
closed = 1;
nodes = (
"1065 1245 LINE",
"1065 1516 LINE",
"922 1516 LINE",
"922 1245 LINE"
);
}
);
width = 1245;
}
);
note = g65;
},
{
glyphname = g66;
lastChange = "2016-11-10 14:31:18 +0000";
layers = (
{
layerId = "04B77939-8555-4652-993D-1D9FD1321E1B";
paths = (
{
closed = 1;
nodes = (
"567 0 LINE",
"567 725 LINE",
"995 688 LINE SMOOTH",
"1068 683 OFFCURVE",
"1119 680 OFFCURVE",
"1149 680 CURVE SMOOTH",
"1236 680 OFFCURVE",
"1288 722 OFFCURVE",
"1321 805 CURVE",
"1397 820 OFFCURVE",
"1412 844 OFFCURVE",
"1436 911 CURVE SMOOTH",
"1447 944 OFFCURVE",
"1466 1015 OFFCURVE",
"1491 1122 CURVE",
"1417 1118 OFFCURVE",
"1347 1116 OFFCURVE",
"1282 1116 CURVE SMOOTH",
"1263 1116 OFFCURVE",
"1240 1121 OFFCURVE",
"1212 1131 CURVE SMOOTH",
"1184 1141 OFFCURVE",
"1145 1159 OFFCURVE",
"1094 1185 CURVE SMOOTH",
"1001 1232 OFFCURVE",
"937 1258 OFFCURVE",
"903 1262 CURVE SMOOTH",
"567 1294 LINE",
"566 1385 OFFCURVE",
"555 1457 OFFCURVE",
"534 1510 CURVE SMOOTH",
"493 1614 OFFCURVE",
"416 1659 OFFCURVE",
"256 1659 CURVE SMOOTH",
"169 1659 OFFCURVE",
"135 1614 OFFCURVE",
"135 1530 CURVE SMOOTH",
"135 1334 OFFCURVE",
"228 1221 OFFCURVE",
"424 1184 CURVE",
"424 0 LINE"
);
},
{
closed = 1;
nodes = (
"321 1350 OFFCURVE",
"268 1400 OFFCURVE",
"268 1487 CURVE SMOOTH",
"268 1517 OFFCURVE",
"280 1532 OFFCURVE",
"305 1532 CURVE SMOOTH",
"388 1532 OFFCURVE",
"421 1473 OFFCURVE",
"424 1317 CURVE"
);
},
{
closed = 1;
nodes = (
"983 817 LINE",
"567 856 LINE",
"567 1167 LINE",
"786 1147 LINE",
"786 1139 LINE",
"692 1114 LINE",
"697 1078 OFFCURVE",
"704 1052 OFFCURVE",
"712 1036 CURVE SMOOTH",
"727 1004 OFFCURVE",
"751 985 OFFCURVE",
"782 985 CURVE SMOOTH",
"817 985 OFFCURVE",
"865 1014 OFFCURVE",
"926 1071 CURVE",
"881 1085 OFFCURVE",
"851 1108 OFFCURVE",
"836 1139 CURVE",
"947 1130 OFFCURVE",
"983 1113 OFFCURVE",
"1066 1066 CURVE SMOOTH",
"1198 991 OFFCURVE",
"1254 985 OFFCURVE",
"1319 985 CURVE",
"1308 941 OFFCURVE",
"1293 900 OFFCURVE",
"1272 862 CURVE",
"1184 862 LINE",
"1173 823 OFFCURVE",
"1151 809 OFFCURVE",
"1102 809 CURVE"
);
}
);
width = 1581;
}
);
note = g66;
},
{
glyphname = g67;
lastChange = "2016-11-10 14:31:18 +0000";
layers = (
{
layerId = "04B77939-8555-4652-993D-1D9FD1321E1B";
paths = (
{
closed = 1;
nodes = (
"1030 0 LINE",
"1030 250 LINE",
"1057 225 OFFCURVE",
"1121 207 OFFCURVE",
"1178 207 CURVE SMOOTH",
"1286 207 OFFCURVE",
"1358 265 OFFCURVE",
"1358 358 CURVE SMOOTH",
"1358 392 OFFCURVE",
"1354 420 OFFCURVE",
"1346 443 CURVE SMOOTH",
"1330 487 OFFCURVE",
"1310 518 OFFCURVE",
"1294 546 CURVE SMOOTH",
"1286 559 OFFCURVE",
"1282 575 OFFCURVE",
"1282 592 CURVE SMOOTH",
"1282 611 OFFCURVE",
"1292 626 OFFCURVE",
"1311 635 CURVE SMOOTH",
"1330 644 OFFCURVE",
"1364 649 OFFCURVE",
"1411 649 CURVE",
"1395 768 LINE",
"1224 755 OFFCURVE",
"1155 701 OFFCURVE",
"1155 586 CURVE SMOOTH",
"1155 559 OFFCURVE",
"1160 534 OFFCURVE",
"1170 512 CURVE SMOOTH",
"1189 467 OFFCURVE",
"1213 429 OFFCURVE",
"1233 398 CURVE",
"1242 382 OFFCURVE",
"1247 367 OFFCURVE",
"1247 354 CURVE SMOOTH",
"1247 325 OFFCURVE",
"1223 311 OFFCURVE",
"1176 311 CURVE SMOOTH",
"1137 311 OFFCURVE",
"1077 326 OFFCURVE",
"1030 354 CURVE",
"1030 858 LINE",
"1193 913 OFFCURVE",
"1315 1057 OFFCURVE",
"1315 1225 CURVE SMOOTH",
"1315 1304 OFFCURVE",
"1292 1375 OFFCURVE",
"1247 1440 CURVE SMOOTH",
"1156 1569 OFFCURVE",
"974 1659 OFFCURVE",
"797 1659 CURVE SMOOTH",
"707 1659 OFFCURVE",
"620 1639 OFFCURVE",
"535 1598 CURVE SMOOTH",
"365 1516 OFFCURVE",
"270 1377 OFFCURVE",
"270 1225 CURVE SMOOTH",
"270 1060 OFFCURVE",
"386 915 OFFCURVE",
"547 864 CURVE",
"547 360 LINE",
"507 333 OFFCURVE",
"440 311 OFFCURVE",
"391 311 CURVE SMOOTH",
"343 311 OFFCURVE",
"319 325 OFFCURVE",
"319 354 CURVE SMOOTH",
"319 381 OFFCURVE",
"337 412 OFFCURVE",
"355 450 CURVE SMOOTH",
"373 488 OFFCURVE",
"391 531 OFFCURVE",
"391 586 CURVE SMOOTH",
"391 695 OFFCURVE",
"320 752 OFFCURVE",
"152 768 CURVE",
"135 649 LINE",
"184 649 OFFCURVE",
"217 644 OFFCURVE",
"236 635 CURVE",
"255 625 OFFCURVE",
"264 611 OFFCURVE",
"264 592 CURVE SMOOTH",
"264 557 OFFCURVE",
"251 533 OFFCURVE",
"237 501 CURVE SMOOTH",
"223 468 OFFCURVE",
"209 426 OFFCURVE",
"209 358 CURVE SMOOTH",
"209 266 OFFCURVE",
"281 207 OFFCURVE",
"389 207 CURVE SMOOTH",
"440 207 OFFCURVE",
"507 228 OFFCURVE",
"547 256 CURVE",
"547 0 LINE"
);
},
{
closed = 1;
nodes = (
"680 295 LINE",
"897 295 LINE",
"897 129 LINE",
"680 129 LINE"
);
},
{
closed = 1;
nodes = (
"680 1372 LINE",
"547 1372 LINE",
"547 987 LINE",
"471 1019 OFFCURVE",
"414 1126 OFFCURVE",
"414 1225 CURVE SMOOTH",
"414 1285 OFFCURVE",
"431 1338 OFFCURVE",
"464 1384 CURVE SMOOTH",
"531 1476 OFFCURVE",
"657 1530 OFFCURVE",
"797 1530 CURVE SMOOTH",
"866 1530 OFFCURVE",
"929 1518 OFFCURVE",
"986 1493 CURVE SMOOTH",
"1101 1443 OFFCURVE",
"1171 1346 OFFCURVE",
"1171 1225 CURVE SMOOTH",
"1171 1126 OFFCURVE",
"1114 1020 OFFCURVE",
"1030 979 CURVE",
"1030 1372 LINE",
"897 1372 LINE",
"897 414 LINE",
"680 414 LINE"
);
}
);
width = 1546;
}
);
note = g67;
},
{
glyphname = g68;
lastChange = "2016-11-10 14:31:18 +0000";
layers = (
{
layerId = "04B77939-8555-4652-993D-1D9FD1321E1B";
paths = (
{
closed = 1;
nodes = (
"1921 0 LINE",
"1694 1245 LINE",
"1841 1245 LINE",
"1841 1374 LINE",
"1321 1374 LINE",
"1321 1245 LINE",
"1466 1245 LINE",
"1241 0 LINE"
);
},
{
closed = 1;
nodes = (
"815 0 LINE",
"588 1245 LINE",
"735 1245 LINE",
"735 1374 LINE",
"215 1374 LINE",
"215 1245 LINE",
"360 1245 LINE",
"135 0 LINE"
);
},
{
closed = 1;
nodes = (
"420 879 LINE",
"448 1085 LINE",
"471 1270 LINE",
"479 1270 LINE",
"483 1204 OFFCURVE",
"499 1084 OFFCURVE",
"526 909 CURVE SMOOTH",
"553 734 OFFCURVE",
"592 474 OFFCURVE",
"645 129 CURVE",
"303 129 LINE"
);
},
{
closed = 1;
nodes = (
"926 1006 OFFCURVE",
"999 1079 OFFCURVE",
"999 1180 CURVE SMOOTH",
"999 1256 OFFCURVE",
"968 1310 OFFCURVE",
"907 1341 CURVE",
"962 1385 OFFCURVE",
"989 1438 OFFCURVE",
"989 1499 CURVE SMOOTH",
"989 1586 OFFCURVE",
"926 1657 OFFCURVE",
"827 1657 CURVE",
"803 1536 LINE",
"848 1536 OFFCURVE",
"870 1510 OFFCURVE",
"870 1458 CURVE SMOOTH",
"870 1411 OFFCURVE",
"846 1378 OFFCURVE",
"801 1378 CURVE",
"801 1278 LINE",
"854 1275 OFFCURVE",
"883 1245 OFFCURVE",
"883 1194 CURVE SMOOTH",
"883 1153 OFFCURVE",
"854 1116 OFFCURVE",
"793 1116 CURVE",
"817 1006 LINE"
);
},
{
closed = 1;
nodes = (
"1526 879 LINE",
"1554 1085 LINE",
"1577 1270 LINE",
"1585 1270 LINE",
"1589 1204 OFFCURVE",
"1605 1084 OFFCURVE",
"1632 909 CURVE SMOOTH",
"1659 734 OFFCURVE",
"1698 474 OFFCURVE",
"1751 129 CURVE",
"1409 129 LINE"
);
},
{
closed = 1;
nodes = (
"1251 1116 LINE",
"1206 1116 OFFCURVE",
"1184 1142 OFFCURVE",
"1184 1194 CURVE SMOOTH",
"1184 1241 OFFCURVE",
"1206 1274 OFFCURVE",
"1253 1274 CURVE",
"1253 1374 LINE",
"1197 1377 OFFCURVE",
"1161 1410 OFFCURVE",
"1161 1458 CURVE SMOOTH",
"1161 1499 OFFCURVE",
"1187 1536 OFFCURVE",
"1251 1536 CURVE",
"1227 1657 LINE",
"1118 1657 OFFCURVE",
"1044 1574 OFFCURVE",
"1044 1473 CURVE SMOOTH",
"1044 1406 OFFCURVE",
"1079 1342 OFFCURVE",
"1147 1319 CURVE",
"1096 1292 OFFCURVE",
"1065 1228 OFFCURVE",
"1065 1153 CURVE SMOOTH",
"1065 1066 OFFCURVE",
"1128 1006 OFFCURVE",
"1227 1006 CURVE"
);
}
);
width = 2056;
}
);
note = g68;
},
{
glyphname = g69;
lastChange = "2016-11-10 14:31:18 +0000";
layers = (
{
layerId = "04B77939-8555-4652-993D-1D9FD1321E1B";
paths = (
{
closed = 1;
nodes = (
"567 0 LINE",
"567 83 OFFCURVE",
"672 362 OFFCURVE",
"761 554 CURVE SMOOTH",
"785 606 OFFCURVE",
"801 649 OFFCURVE",
"809 684 CURVE",
"817 684 LINE",
"826 651 OFFCURVE",
"857 566 OFFCURVE",
"881 514 CURVE SMOOTH",
"982 293 OFFCURVE",
"1057 83 OFFCURVE",
"1057 0 CURVE",
"1214 0 LINE",
"1214 76 OFFCURVE",
"1131 296 OFFCURVE",
"965 659 CURVE SMOOTH",
"930 734 OFFCURVE",
"900 788 OFFCURVE",
"874 819 CURVE",
"934 907 OFFCURVE",
"985 1018 OFFCURVE",
"1034 1118 CURVE SMOOTH",
"1074 1199 OFFCURVE",
"1118 1219 OFFCURVE",
"1190 1219 CURVE SMOOTH",
"1477 1219 LINE",
"1477 1638 LINE",
"1350 1638 LINE",
"1360 1331 LINE",
"1284 1331 LINE",
"1284 1638 LINE",
"1155 1638 LINE",
"1165 1331 LINE",
"1075 1331 LINE",
"1085 1638 LINE",
"956 1638 LINE",
"956 1251 LINE",
"907 1154 OFFCURVE",
"874 1085 OFFCURVE",
"858 1044 CURVE SMOOTH",
"841 1003 OFFCURVE",
"830 967 OFFCURVE",
"823 936 CURVE",
"815 936 LINE",
"810 959 OFFCURVE",
"802 985 OFFCURVE",
"790 1016 CURVE",
"777 1046 OFFCURVE",
"740 1124 OFFCURVE",
"678 1251 CURVE",
"678 1638 LINE",
"551 1638 LINE",
"561 1331 LINE",
"469 1331 LINE",
"479 1638 LINE",
"352 1638 LINE",
"362 1331 LINE",
"274 1331 LINE",
"285 1638 LINE",
"158 1638 LINE",
"158 1219 LINE",
"444 1219 LINE SMOOTH",
"495 1219 OFFCURVE",
"530 1207 OFFCURVE",
"554 1181 CURVE SMOOTH",
"578 1155 OFFCURVE",
"629 1048 OFFCURVE",
"672 963 CURVE SMOOTH",
"697 912 OFFCURVE",
"726 864 OFFCURVE",
"760 819 CURVE",
"729 781 OFFCURVE",
"698 728 OFFCURVE",
"668 659 CURVE SMOOTH",
"503 301 OFFCURVE",
"420 81 OFFCURVE",
"420 0 CURVE"
);
}
);
width = 1634;
}
);
note = g69;
},
{
glyphname = g70;
lastChange = "2016-11-10 14:31:18 +0000";
layers = (
{
layerId = "04B77939-8555-4652-993D-1D9FD1321E1B";
paths = (
{
closed = 1;
nodes = (
"840 0 LINE",
"840 434 LINE SMOOTH",
"840 469 OFFCURVE",
"836 507 OFFCURVE",
"829 547 CURVE",
"1255 547 LINE",
"1255 676 LINE",
"1151 676 LINE",
"1188 915 LINE SMOOTH",
"1192 942 OFFCURVE",
"1194 969 OFFCURVE",
"1195 994 CURVE SMOOTH",
"1196 1019 OFFCURVE",
"1197 1042 OFFCURVE",
"1198 1063 CURVE",
"1415 1036 LINE",
"1432 1165 LINE",
"1223 1192 LINE",
"1233 1223 OFFCURVE",
"1244 1274 OFFCURVE",
"1255 1346 CURVE SMOOTH",
"1298 1626 LINE",
"1157 1649 LINE",
"1122 1421 OFFCURVE",
"1104 1295 OFFCURVE",
"1102 1270 CURVE",
"1099 1245 OFFCURVE",
"1098 1224 OFFCURVE",
"1098 1206 CURVE",
"928 1229 LINE",
"911 1100 LINE",
"1079 1077 LINE",
"1063 1014 OFFCURVE",
"1052 965 OFFCURVE",
"1047 932 CURVE SMOOTH",
"1006 676 LINE",
"829 676 LINE",
"836 726 OFFCURVE",
"840 790 OFFCURVE",
"840 868 CURVE SMOOTH",
"840 1282 LINE SMOOTH",
"840 1315 OFFCURVE",
"836 1351 OFFCURVE",
"829 1391 CURVE",
"1022 1391 LINE",
"1022 1520 LINE",
"834 1520 LINE",
"838 1556 OFFCURVE",
"840 1595 OFFCURVE",
"840 1638 CURVE",
"698 1638 LINE",
"698 1583 OFFCURVE",
"699 1544 OFFCURVE",
"702 1520 CURVE",
"506 1520 LINE",
"506 1391 LINE",
"705 1391 LINE",
"699 1358 OFFCURVE",
"696 1320 OFFCURVE",
"696 1276 CURVE SMOOTH",
"696 868 LINE SMOOTH",
"696 788 OFFCURVE",
"699 724 OFFCURVE",
"705 676 CURVE",
"530 676 LINE",
"492 930 LINE SMOOTH",
"485 971 OFFCURVE",
"473 1020 OFFCURVE",
"457 1075 CURVE",
"633 1098 LINE",
"616 1227 LINE",
"440 1204 LINE",
"437 1264 OFFCURVE",
"430 1325 OFFCURVE",
"421 1388 CURVE SMOOTH",
"411 1451 OFFCURVE",
"398 1538 OFFCURVE",
"381 1649 CURVE",
"240 1626 LINE",
"274 1405 OFFCURVE",
"294 1282 OFFCURVE",
"299 1255 CURVE SMOOTH",
"304 1228 OFFCURVE",
"310 1206 OFFCURVE",
"315 1188 CURVE",
"113 1163 LINE",
"129 1034 LINE",
"338 1061 LINE",
"340 1040 OFFCURVE",
"342 1017 OFFCURVE",
"343 992 CURVE SMOOTH",
"344 967 OFFCURVE",
"346 940 OFFCURVE",
"350 913 CURVE SMOOTH",
"387 676 LINE",
"283 676 LINE",
"283 547 LINE",
"705 547 LINE",
"699 512 OFFCURVE",
"696 473 OFFCURVE",
"696 428 CURVE SMOOTH",
"696 0 LINE"
);
}
);
width = 1544;
}
);
note = g70;
},
{
glyphname = g71;
lastChange = "2016-11-10 14:31:18 +0000";
layers = (
{
layerId = "04B77939-8555-4652-993D-1D9FD1321E1B";
paths = (
{
closed = 1;
nodes = (
"1245 0 LINE",
"1245 1638 LINE",
"1067 1638 LINE SMOOTH",
"992 1638 OFFCURVE",
"939 1589 OFFCURVE",
"902 1497 CURVE SMOOTH",
"883 1450 OFFCURVE",
"860 1357 OFFCURVE",
"832 1218 CURVE SMOOTH",
"819 1151 OFFCURVE",
"803 1102 OFFCURVE",
"785 1071 CURVE SMOOTH",
"767 1040 OFFCURVE",
"746 1024 OFFCURVE",
"721 1024 CURVE SMOOTH",
"696 1024 OFFCURVE",
"675 1040 OFFCURVE",
"660 1071 CURVE SMOOTH",
"644 1102 OFFCURVE",
"631 1151 OFFCURVE",
"621 1218 CURVE SMOOTH",
"606 1319 OFFCURVE",
"594 1391 OFFCURVE",
"584 1433 CURVE SMOOTH",
"574 1475 OFFCURVE",
"562 1511 OFFCURVE",
"547 1540 CURVE SMOOTH",
"518 1599 OFFCURVE",
"474 1638 OFFCURVE",
"406 1638 CURVE SMOOTH",
"227 1638 LINE",
"227 0 LINE"
);
},
{
closed = 1;
nodes = (
"365 1509 LINE",
"383 1509 LINE SMOOTH",
"405 1509 OFFCURVE",
"423 1494 OFFCURVE",
"437 1463 CURVE SMOOTH",
"451 1432 OFFCURVE",
"463 1382 OFFCURVE",
"473 1315 CURVE SMOOTH",
"488 1209 OFFCURVE",
"505 1128 OFFCURVE",
"524 1071 CURVE SMOOTH",
"561 957 OFFCURVE",
"628 895 OFFCURVE",
"721 895 CURVE SMOOTH",
"805 895 OFFCURVE",
"868 947 OFFCURVE",
"911 1047 CURVE SMOOTH",
"932 1096 OFFCURVE",
"956 1186 OFFCURVE",
"982 1315 CURVE SMOOTH",
"996 1382 OFFCURVE",
"1011 1431 OFFCURVE",
"1028 1462 CURVE SMOOTH",
"1044 1493 OFFCURVE",
"1064 1509 OFFCURVE",
"1087 1509 CURVE SMOOTH",
"1108 1509 LINE",
"1108 129 LINE",
"365 129 LINE"
);
}
);
width = 1473;
}
);
note = g71;
},
{
glyphname = g72;
lastChange = "2016-11-10 14:31:18 +0000";
layers = (
{
layerId = "04B77939-8555-4652-993D-1D9FD1321E1B";
paths = (
{
closed = 1;
nodes = (
"604 647 LINE SMOOTH",
"622 715 OFFCURVE",
"631 774 OFFCURVE",
"631 825 CURVE SMOOTH",
"631 882 OFFCURVE",
"604 928 OFFCURVE",
"564 966 CURVE SMOOTH",
"543 985 OFFCURVE",
"504 1011 OFFCURVE",
"446 1046 CURVE SMOOTH",
"395 1075 OFFCURVE",
"365 1099 OFFCURVE",
"356 1116 CURVE",
"649 1116 LINE",
"668 1043 OFFCURVE",
"713 993 OFFCURVE",
"794 952 CURVE SMOOTH",
"871 911 OFFCURVE",
"903 869 OFFCURVE",
"903 801 CURVE SMOOTH",
"903 768 OFFCURVE",
"897 727 OFFCURVE",
"885 678 CURVE SMOOTH",
"711 0 LINE",
"842 -20 LINE",
"1018 647 LINE SMOOTH",
"1035 712 OFFCURVE",
"1044 772 OFFCURVE",
"1044 825 CURVE SMOOTH",
"1044 854 OFFCURVE",
"1038 880 OFFCURVE",
"1025 903 CURVE SMOOTH",
"1000 950 OFFCURVE",
"967 980 OFFCURVE",
"859 1043 CURVE SMOOTH",
"808 1072 OFFCURVE",
"777 1097 OFFCURVE",
"766 1116 CURVE",
"1180 1116 LINE",
"1180 1245 LINE",
"770 1245 LINE",
"781 1264 OFFCURVE",
"796 1283 OFFCURVE",
"817 1300 CURVE SMOOTH",
"837 1317 OFFCURVE",
"876 1347 OFFCURVE",
"933 1389 CURVE SMOOTH",
"1016 1450 OFFCURVE",
"1071 1517 OFFCURVE",
"1096 1591 CURVE",
"977 1659 LINE",
"952 1587 OFFCURVE",
"897 1523 OFFCURVE",
"805 1446 CURVE SMOOTH",
"717 1371 OFFCURVE",
"666 1310 OFFCURVE",
"649 1245 CURVE",
"356 1245 LINE",
"367 1264 OFFCURVE",
"382 1283 OFFCURVE",
"403 1300 CURVE SMOOTH",
"423 1317 OFFCURVE",
"462 1347 OFFCURVE",
"519 1389 CURVE SMOOTH",
"602 1450 OFFCURVE",
"657 1517 OFFCURVE",
"682 1591 CURVE",
"563 1659 LINE",
"539 1588 OFFCURVE",
"487 1525 OFFCURVE",
"392 1446 CURVE SMOOTH",
"304 1371 OFFCURVE",
"253 1310 OFFCURVE",
"236 1245 CURVE",
"68 1245 LINE",
"68 1116 LINE",
"236 1116 LINE",
"245 1051 OFFCURVE",
"290 1003 OFFCURVE",
"374 959 CURVE SMOOTH",
"454 915 OFFCURVE",
"489 869 OFFCURVE",
"489 801 CURVE SMOOTH",
"489 768 OFFCURVE",
"483 727 OFFCURVE",
"471 678 CURVE SMOOTH",
"297 0 LINE",
"428 -20 LINE"
);
}
);
width = 1315;
}
);
note = g72;
},
{
glyphname = g73;
lastChange = "2016-11-10 14:31:18 +0000";
layers = (
{
layerId = "04B77939-8555-4652-993D-1D9FD1321E1B";
paths = (
{
closed = 1;
nodes = (
"840 0 LINE",
"840 733 LINE SMOOTH",
"840 761 OFFCURVE",
"838 785 OFFCURVE",
"835 805 CURVE SMOOTH",
"832 825 OFFCURVE",
"829 843 OFFCURVE",
"827 858 CURVE",
"917 864 OFFCURVE",
"998 885 OFFCURVE",
"1069 920 CURVE SMOOTH",
"1212 991 OFFCURVE",
"1294 1114 OFFCURVE",
"1294 1270 CURVE SMOOTH",
"1294 1303 OFFCURVE",
"1285 1347 OFFCURVE",
"1266 1403 CURVE SMOOTH",
"1247 1459 OFFCURVE",
"1237 1501 OFFCURVE",
"1237 1528 CURVE SMOOTH",
"1237 1557 OFFCURVE",
"1249 1588 OFFCURVE",
"1272 1620 CURVE",
"1130 1659 LINE",
"1106 1631 OFFCURVE",
"1094 1591 OFFCURVE",
"1094 1538 CURVE SMOOTH",
"1094 1509 OFFCURVE",
"1104 1465 OFFCURVE",
"1123 1406 CURVE SMOOTH",
"1142 1347 OFFCURVE",
"1151 1301 OFFCURVE",
"1151 1270 CURVE SMOOTH",
"1151 1089 OFFCURVE",
"1017 985 OFFCURVE",
"768 985 CURVE SMOOTH",
"521 985 OFFCURVE",
"393 1086 OFFCURVE",
"393 1270 CURVE SMOOTH",
"393 1305 OFFCURVE",
"403 1352 OFFCURVE",
"423 1410 CURVE SMOOTH",
"443 1468 OFFCURVE",
"453 1511 OFFCURVE",
"453 1538 CURVE SMOOTH",
"453 1593 OFFCURVE",
"440 1636 OFFCURVE",
"414 1667 CURVE",
"274 1618 LINE",
"297 1583 OFFCURVE",
"309 1552 OFFCURVE",
"309 1524 CURVE SMOOTH",
"309 1494 OFFCURVE",
"299 1453 OFFCURVE",
"280 1402 CURVE SMOOTH",
"260 1351 OFFCURVE",
"250 1307 OFFCURVE",
"250 1270 CURVE SMOOTH",
"250 1038 OFFCURVE",
"428 878 OFFCURVE",
"707 858 CURVE",
"700 812 OFFCURVE",
"696 768 OFFCURVE",
"696 727 CURVE SMOOTH",
"696 0 LINE"
);
},
{
closed = 1;
nodes = (
"559 133 LINE",
"559 262 LINE",
"262 262 LINE",
"262 133 LINE"
);
},
{
closed = 1;
nodes = (
"559 399 LINE",
"559 528 LINE",
"262 528 LINE",
"262 399 LINE"
);
},
{
closed = 1;
nodes = (
"559 666 LINE",
"559 795 LINE",
"262 795 LINE",
"262 666 LINE"
);
},
{
closed = 1;
nodes = (
"1274 133 LINE",
"1274 262 LINE",
"977 262 LINE",
"977 133 LINE"
);
},
{
closed = 1;
nodes = (
"1274 399 LINE",
"1274 528 LINE",
"977 528 LINE",
"977 399 LINE"
);
},
{
closed = 1;
nodes = (
"1274 666 LINE",
"1274 795 LINE",
"977 795 LINE",
"977 666 LINE"
);
},
{
closed = 1;
nodes = (
"1006 1124 LINE",
"825 1462 LINE",
"698 1462 LINE",
"518 1124 LINE",
"641 1065 LINE",
"686 1153 LINE SMOOTH",
"723 1224 OFFCURVE",
"747 1292 OFFCURVE",
"756 1358 CURVE",
"764 1358 LINE",
"770 1318 OFFCURVE",
"795 1248 OFFCURVE",
"840 1149 CURVE",
"885 1061 LINE"
);
}
);
width = 1536;
}
);
note = g73;
},
{
glyphname = g74;
lastChange = "2016-11-10 14:31:18 +0000";
layers = (
{
layerId = "04B77939-8555-4652-993D-1D9FD1321E1B";
paths = (
{
closed = 1;
nodes = (
"875 13 OFFCURVE",
"986 60 OFFCURVE",
"1081 121 CURVE SMOOTH",
"1270 244 OFFCURVE",
"1360 397 OFFCURVE",
"1360 569 CURVE SMOOTH",
"1360 726 OFFCURVE",
"1306 803 OFFCURVE",
"1182 846 CURVE SMOOTH",
"1137 862 OFFCURVE",
"1116 870 OFFCURVE",
"1116 897 CURVE SMOOTH",
"1116 918 OFFCURVE",
"1128 950 OFFCURVE",
"1151 991 CURVE",
"1051 1051 LINE",
"1002 981 OFFCURVE",
"977 921 OFFCURVE",
"977 872 CURVE SMOOTH",
"977 815 OFFCURVE",
"1007 773 OFFCURVE",
"1102 741 CURVE SMOOTH",
"1194 713 OFFCURVE",
"1217 676 OFFCURVE",
"1217 565 CURVE SMOOTH",
"1217 508 OFFCURVE",
"1206 456 OFFCURVE",
"1183 409 CURVE SMOOTH",
"1138 314 OFFCURVE",
"1058 240 OFFCURVE",
"969 201 CURVE SMOOTH",
"906 174 OFFCURVE",
"854 137 OFFCURVE",
"811 90 CURVE",
"805 94 LINE",
"813 158 OFFCURVE",
"817 235 OFFCURVE",
"817 324 CURVE SMOOTH",
"817 1116 LINE",
"1028 1116 LINE",
"1028 1245 LINE",
"817 1245 LINE",
"817 1638 LINE",
"674 1638 LINE",
"674 1245 LINE",
"465 1245 LINE",
"465 1116 LINE",
"674 1116 LINE",
"674 319 LINE SMOOTH",
"674 234 OFFCURVE",
"678 160 OFFCURVE",
"686 96 CURVE",
"680 94 LINE",
"660 123 OFFCURVE",
"606 166 OFFCURVE",
"526 201 CURVE SMOOTH",
"480 221 OFFCURVE",
"438 249 OFFCURVE",
"401 286 CURVE SMOOTH",
"326 359 OFFCURVE",
"279 453 OFFCURVE",
"279 565 CURVE SMOOTH",
"279 674 OFFCURVE",
"301 713 OFFCURVE",
"393 741 CURVE SMOOTH",
"489 773 OFFCURVE",
"518 815 OFFCURVE",
"518 872 CURVE SMOOTH",
"518 921 OFFCURVE",
"493 981 OFFCURVE",
"444 1051 CURVE",
"344 991 LINE",
"367 950 OFFCURVE",
"379 918 OFFCURVE",
"379 897 CURVE SMOOTH",
"379 870 OFFCURVE",
"358 862 OFFCURVE",
"313 846 CURVE SMOOTH",
"188 802 OFFCURVE",
"135 725 OFFCURVE",
"135 569 CURVE SMOOTH",
"135 294 OFFCURVE",
"375 80 OFFCURVE",
"748 -20 CURVE"
);
}
);
width = 1495;
}
);
note = g74;
},
{
glyphname = g75;
lastChange = "2016-11-10 14:31:18 +0000";
layers = (
{
layerId = "04B77939-8555-4652-993D-1D9FD1321E1B";
paths = (
{
closed = 1;
nodes = (
"522 0 LINE",
"577 112 OFFCURVE",
"680 259 OFFCURVE",
"760 348 CURVE",
"879 215 OFFCURVE",
"965 99 OFFCURVE",
"1018 0 CURVE",
"1155 0 LINE",
"1155 386 OFFCURVE",
"1223 932 OFFCURVE",
"1360 1638 CURVE",
"180 1638 LINE",
"309 1007 OFFCURVE",
"385 403 OFFCURVE",
"385 0 CURVE"
);
},
{
closed = 1;
nodes = (
"719 637 LINE",
"719 936 LINE",
"592 936 LINE",
"592 637 LINE"
);
},
{
closed = 1;
nodes = (
"487 145 LINE",
"496 204 OFFCURVE",
"500 263 OFFCURVE",
"500 324 CURVE SMOOTH",
"500 379 OFFCURVE",
"491 486 OFFCURVE",
"474 646 CURVE SMOOTH",
"438 965 OFFCURVE",
"373 1389 OFFCURVE",
"348 1509 CURVE",
"1192 1509 LINE",
"1140 1260 OFFCURVE",
"1036 511 OFFCURVE",
"1036 319 CURVE SMOOTH",
"1036 248 OFFCURVE",
"1041 190 OFFCURVE",
"1051 145 CURVE",
"1044 143 LINE",
"1001 242 OFFCURVE",
"869 447 OFFCURVE",
"809 510 CURVE",
"735 510 LINE",
"660 433 OFFCURVE",
"529 232 OFFCURVE",
"494 141 CURVE"
);
},
{
closed = 1;
nodes = (
"944 637 LINE",
"944 936 LINE",
"817 936 LINE",
"817 637 LINE"
);
},
{
closed = 1;
nodes = (
"606 1079 LINE",
"606 1378 LINE",
"479 1378 LINE",
"479 1079 LINE"
);
},
{
closed = 1;
nodes = (
"831 1079 LINE",
"831 1378 LINE",
"705 1378 LINE",
"705 1079 LINE"
);
},
{
closed = 1;
nodes = (
"1057 1079 LINE",
"1057 1378 LINE",
"930 1378 LINE",
"930 1079 LINE"
);
}
);
width = 1540;
}
);
note = g75;
},
{
glyphname = g76;
lastChange = "2016-11-10 14:31:18 +0000";
layers = (
{
layerId = "04B77939-8555-4652-993D-1D9FD1321E1B";
paths = (
{
closed = 1;
nodes = (
"362 0 OFFCURVE",
"487 21 OFFCURVE",
"603 64 CURVE SMOOTH",
"834 148 OFFCURVE",
"956 300 OFFCURVE",
"956 481 CURVE SMOOTH",
"956 665 OFFCURVE",
"871 794 OFFCURVE",
"680 858 CURVE",
"841 927 OFFCURVE",
"926 1044 OFFCURVE",
"926 1196 CURVE SMOOTH",
"926 1477 OFFCURVE",
"705 1638 OFFCURVE",
"326 1638 CURVE SMOOTH",
"227 1638 LINE",
"227 0 LINE"
);
},
{
closed = 1;
nodes = (
"371 1516 LINE",
"622 1508 OFFCURVE",
"782 1388 OFFCURVE",
"782 1196 CURVE SMOOTH",
"782 1020 OFFCURVE",
"653 915 OFFCURVE",
"440 911 CURVE",
"440 782 LINE",
"507 782 OFFCURVE",
"569 770 OFFCURVE",
"627 745 CURVE SMOOTH",
"742 696 OFFCURVE",
"813 600 OFFCURVE",
"813 481 CURVE SMOOTH",
"813 419 OFFCURVE",
"794 362 OFFCURVE",
"756 311 CURVE SMOOTH",
"679 208 OFFCURVE",
"534 140 OFFCURVE",
"371 127 CURVE"
);
}
);
width = 1114;
}
);
note = g76;
},
{
glyphname = g77;
lastChange = "2016-11-10 14:31:18 +0000";
layers = (
{
layerId = "04B77939-8555-4652-993D-1D9FD1321E1B";
paths = (
{
closed = 1;
nodes = (
"561 0 LINE",
"668 129 LINE SMOOTH",
"729 205 OFFCURVE",
"757 258 OFFCURVE",
"774 322 CURVE",
"782 322 LINE",
"799 256 OFFCURVE",
"837 188 OFFCURVE",
"897 117 CURVE SMOOTH",
"995 0 LINE",
"1116 0 LINE",
"1116 87 OFFCURVE",
"1228 495 OFFCURVE",
"1323 750 CURVE",
"1413 625 LINE",
"1524 705 LINE",
"831 1667 LINE",
"750 1667 LINE",
"68 705 LINE",
"178 625 LINE",
"262 743 LINE",
"334 522 OFFCURVE",
"436 99 OFFCURVE",
"436 0 CURVE"
);
},
{
closed = 1;
nodes = (
"1028 543 LINE",
"1028 672 LINE",
"567 672 LINE",
"567 543 LINE"
);
},
{
closed = 1;
nodes = (
"831 430 LINE",
"745 430 LINE",
"549 168 LINE",
"549 259 OFFCURVE",
"433 701 OFFCURVE",
"362 885 CURVE",
"684 1339 LINE SMOOTH",
"720 1390 OFFCURVE",
"747 1429 OFFCURVE",
"764 1458 CURVE SMOOTH",
"781 1487 OFFCURVE",
"790 1502 OFFCURVE",
"791 1503 CURVE",
"792 1500 OFFCURVE",
"801 1483 OFFCURVE",
"818 1454 CURVE SMOOTH",
"835 1424 OFFCURVE",
"860 1387 OFFCURVE",
"893 1343 CURVE SMOOTH",
"1225 883 LINE",
"1210 844 OFFCURVE",
"1188 776 OFFCURVE",
"1157 677 CURVE SMOOTH",
"1096 480 OFFCURVE",
"1026 214 OFFCURVE",
"1026 158 CURVE"
);
},
{
closed = 1;
nodes = (
"1028 788 LINE",
"1028 918 LINE",
"567 918 LINE",
"567 788 LINE"
);
},
{
closed = 1;
nodes = (
"967 1038 LINE",
"967 1167 LINE",
"629 1167 LINE",
"629 1038 LINE"
);
}
);
width = 1591;
}
);
note = g77;
},
{
glyphname = g78;
lastChange = "2016-11-10 14:31:18 +0000";
layers = (
{
layerId = "04B77939-8555-4652-993D-1D9FD1321E1B";
paths = (
{
closed = 1;
nodes = (
"651 0 LINE",
"651 547 LINE",
"774 547 LINE",
"989 322 LINE",
"1077 420 LINE",
"1030 469 LINE SMOOTH",
"971 532 OFFCURVE",
"903 577 OFFCURVE",
"827 604 CURVE",
"827 614 LINE",
"895 638 OFFCURVE",
"963 685 OFFCURVE",
"1030 756 CURVE SMOOTH",
"1077 805 LINE",
"989 903 LINE",
"772 676 LINE",
"651 676 LINE",
"651 797 LINE",
"782 864 OFFCURVE",
"854 973 OFFCURVE",
"854 1090 CURVE SMOOTH",
"854 1173 OFFCURVE",
"827 1259 OFFCURVE",
"780 1300 CURVE",
"881 1589 LINE",
"760 1626 LINE",
"729 1523 OFFCURVE",
"710 1456 OFFCURVE",
"704 1425 CURVE SMOOTH",
"698 1394 OFFCURVE",
"695 1372 OFFCURVE",
"694 1360 CURVE",
"673 1369 OFFCURVE",
"647 1376 OFFCURVE",
"616 1382 CURVE",
"627 1427 OFFCURVE",
"633 1460 OFFCURVE",
"633 1479 CURVE SMOOTH",
"633 1638 LINE",
"514 1638 LINE",
"514 1479 LINE SMOOTH",
"514 1450 OFFCURVE",
"519 1417 OFFCURVE",
"528 1380 CURVE",
"495 1376 OFFCURVE",
"467 1369 OFFCURVE",
"446 1360 CURVE",
"446 1387 OFFCURVE",
"439 1428 OFFCURVE",
"424 1485 CURVE SMOOTH",
"383 1626 LINE",
"262 1589 LINE",
"362 1292 LINE",
"327 1239 OFFCURVE",
"309 1170 OFFCURVE",
"309 1083 CURVE SMOOTH",
"309 971 OFFCURVE",
"381 862 OFFCURVE",
"508 799 CURVE",
"508 676 LINE",
"113 676 LINE",
"113 547 LINE",
"508 547 LINE",
"508 0 LINE"
);
},
{
closed = 1;
nodes = (
"562 885 OFFCURVE",
"543 895 OFFCURVE",
"522 914 CURVE SMOOTH",
"480 952 OFFCURVE",
"451 1016 OFFCURVE",
"451 1083 CURVE SMOOTH",
"451 1204 OFFCURVE",
"499 1276 OFFCURVE",
"578 1276 CURVE SMOOTH",
"661 1276 OFFCURVE",
"709 1206 OFFCURVE",
"709 1081 CURVE SMOOTH",
"709 1048 OFFCURVE",
"702 1017 OFFCURVE",
"689 987 CURVE SMOOTH",
"662 927 OFFCURVE",
"615 885 OFFCURVE",
"580 885 CURVE SMOOTH"
);
}
);
width = 1153;
}
);
note = g78;
},
{
glyphname = g79;
lastChange = "2016-11-10 14:31:18 +0000";
layers = (
{
layerId = "04B77939-8555-4652-993D-1D9FD1321E1B";
paths = (
{
closed = 1;
nodes = (
"936 0 LINE",
"881 313 OFFCURVE",
"836 533 OFFCURVE",
"800 659 CURVE SMOOTH",
"764 784 OFFCURVE",
"726 865 OFFCURVE",
"686 901 CURVE",
"692 911 LINE",
"756 900 OFFCURVE",
"832 895 OFFCURVE",
"920 895 CURVE SMOOTH",
"1085 895 LINE",
"1085 1024 LINE",
"913 1024 LINE SMOOTH",
"853 1024 OFFCURVE",
"791 1016 OFFCURVE",
"728 999 CURVE SMOOTH",
"698 991 LINE",
"692 1001 LINE",
"800 1066 OFFCURVE",
"874 1204 OFFCURVE",
"874 1356 CURVE SMOOTH",
"874 1525 OFFCURVE",
"768 1653 OFFCURVE",
"625 1653 CURVE SMOOTH",
"461 1653 OFFCURVE",
"379 1552 OFFCURVE",
"379 1350 CURVE SMOOTH",
"379 1299 OFFCURVE",
"387 1251 OFFCURVE",
"403 1207 CURVE SMOOTH",
"434 1118 OFFCURVE",
"495 1043 OFFCURVE",
"559 1008 CURVE",
"555 999 LINE",
"524 1006 OFFCURVE",
"454 1024 OFFCURVE",
"354 1024 CURVE SMOOTH",
"158 1024 LINE",
"158 895 LINE",
"350 895 LINE SMOOTH",
"413 895 OFFCURVE",
"480 900 OFFCURVE",
"549 911 CURVE",
"553 901 LINE",
"463 830 OFFCURVE",
"380 530 OFFCURVE",
"305 0 CURVE"
);
},
{
closed = 1;
nodes = (
"500 360 OFFCURVE",
"548 609 OFFCURVE",
"577 708 CURVE SMOOTH",
"592 757 OFFCURVE",
"605 782 OFFCURVE",
"618 782 CURVE SMOOTH",
"626 782 OFFCURVE",
"634 772 OFFCURVE",
"642 752 CURVE SMOOTH",
"650 731 OFFCURVE",
"660 696 OFFCURVE",
"671 645 CURVE SMOOTH",
"682 594 OFFCURVE",
"715 422 OFFCURVE",
"770 129 CURVE",
"463 129 LINE"
);
},
{
closed = 1;
nodes = (
"595 1055 OFFCURVE",
"570 1081 OFFCURVE",
"551 1133 CURVE SMOOTH",
"532 1185 OFFCURVE",
"522 1252 OFFCURVE",
"522 1335 CURVE SMOOTH",
"522 1470 OFFCURVE",
"559 1536 OFFCURVE",
"623 1536 CURVE SMOOTH",
"692 1536 OFFCURVE",
"727 1469 OFFCURVE",
"727 1335 CURVE SMOOTH",
"727 1279 OFFCURVE",
"723 1230 OFFCURVE",
"714 1188 CURVE SMOOTH",
"696 1103 OFFCURVE",
"661 1055 OFFCURVE",
"625 1055 CURVE SMOOTH"
);
}
);
width = 1243;
}
);
note = g79;
},
{
glyphname = g80;
lastChange = "2016-11-10 14:31:18 +0000";
layers = (
{
layerId = "04B77939-8555-4652-993D-1D9FD1321E1B";
paths = (
{
closed = 1;
nodes = (
"1047 0 LINE",
"1047 1509 LINE",
"1159 1509 OFFCURVE",
"1226 1457 OFFCURVE",
"1289 1334 CURVE SMOOTH",
"1353 1206 OFFCURVE",
"1424 1137 OFFCURVE",
"1536 1114 CURVE",
"1577 1235 LINE",
"1544 1242 OFFCURVE",
"1515 1260 OFFCURVE",
"1490 1287 CURVE SMOOTH",
"1465 1314 OFFCURVE",
"1427 1369 OFFCURVE",
"1377 1452 CURVE SMOOTH",
"1302 1576 OFFCURVE",
"1192 1638 OFFCURVE",
"1047 1638 CURVE SMOOTH",
"903 1638 LINE",
"903 0 LINE"
);
},
{
closed = 1;
nodes = (
"358 1399 LINE SMOOTH",
"409 1444 OFFCURVE",
"444 1485 OFFCURVE",
"465 1522 CURVE",
"473 1522 LINE",
"495 1483 OFFCURVE",
"529 1444 OFFCURVE",
"575 1403 CURVE SMOOTH",
"774 1225 LINE",
"872 1331 LINE",
"520 1640 LINE",
"420 1640 LINE",
"68 1331 LINE",
"166 1225 LINE"
);
}
);
width = 1624;
}
);
note = g80;
},
{
glyphname = g81;
lastChange = "2016-11-10 14:31:18 +0000";
layers = (
{
layerId = "04B77939-8555-4652-993D-1D9FD1321E1B";
paths = (
{
closed = 1;
nodes = (
"946 94 LINE",
"789 167 OFFCURVE",
"649 327 OFFCURVE",
"582 520 CURVE",
"747 567 OFFCURVE",
"854 695 OFFCURVE",
"854 854 CURVE SMOOTH",
"854 1013 OFFCURVE",
"747 1144 OFFCURVE",
"590 1188 CURVE",
"658 1355 OFFCURVE",
"784 1484 OFFCURVE",
"967 1544 CURVE",
"911 1667 LINE",
"704 1603 OFFCURVE",
"541 1438 OFFCURVE",
"457 1202 CURVE",
"258 1186 OFFCURVE",
"113 1043 OFFCURVE",
"113 854 CURVE SMOOTH",
"113 666 OFFCURVE",
"257 523 OFFCURVE",
"449 508 CURVE",
"529 265 OFFCURVE",
"686 68 OFFCURVE",
"874 -20 CURVE"
);
},
{
closed = 1;
nodes = (
"321 636 OFFCURVE",
"248 727 OFFCURVE",
"248 854 CURVE SMOOTH",
"248 979 OFFCURVE",
"332 1076 OFFCURVE",
"432 1081 CURVE",
"415 997 OFFCURVE",
"406 915 OFFCURVE",
"406 834 CURVE SMOOTH",
"406 767 OFFCURVE",
"413 698 OFFCURVE",
"426 625 CURVE"
);
},
{
closed = 1;
nodes = (
"536 694 OFFCURVE",
"528 763 OFFCURVE",
"528 834 CURVE SMOOTH",
"528 912 OFFCURVE",
"537 994 OFFCURVE",
"555 1079 CURVE",
"650 1071 OFFCURVE",
"717 977 OFFCURVE",
"717 854 CURVE SMOOTH",
"717 730 OFFCURVE",
"644 638 OFFCURVE",
"551 627 CURVE"
);
}
);
width = 1147;
}
);
note = g81;
},
{
glyphname = g82;
lastChange = "2016-11-10 14:31:18 +0000";
layers = (
{
layerId = "04B77939-8555-4652-993D-1D9FD1321E1B";
paths = (
{
closed = 1;
nodes = (
"417 217 OFFCURVE",
"512 437 OFFCURVE",
"625 639 CURVE",
"686 590 OFFCURVE",
"754 565 OFFCURVE",
"827 565 CURVE SMOOTH",
"898 565 OFFCURVE",
"965 589 OFFCURVE",
"1030 637 CURVE",
"1138 444 OFFCURVE",
"1233 225 OFFCURVE",
"1315 -20 CURVE",
"1448 37 LINE",
"1371 271 OFFCURVE",
"1266 501 OFFCURVE",
"1133 727 CURVE",
"1209 826 OFFCURVE",
"1247 931 OFFCURVE",
"1247 1042 CURVE SMOOTH",
"1247 1147 OFFCURVE",
"1215 1242 OFFCURVE",
"1151 1327 CURVE",
"1248 1424 OFFCURVE",
"1338 1508 OFFCURVE",
"1423 1581 CURVE",
"1323 1679 LINE",
"1216 1586 OFFCURVE",
"1128 1503 OFFCURVE",
"1059 1430 CURVE",
"982 1489 OFFCURVE",
"904 1518 OFFCURVE",
"827 1518 CURVE SMOOTH",
"748 1518 OFFCURVE",
"671 1488 OFFCURVE",
"596 1427 CURVE",
"529 1498 OFFCURVE",
"441 1582 OFFCURVE",
"332 1677 CURVE",
"231 1579 LINE",
"346 1475 OFFCURVE",
"438 1390 OFFCURVE",
"506 1323 CURVE",
"446 1227 OFFCURVE",
"416 1133 OFFCURVE",
"416 1042 CURVE SMOOTH",
"416 939 OFFCURVE",
"452 836 OFFCURVE",
"524 733 CURVE",
"392 511 OFFCURVE",
"286 279 OFFCURVE",
"207 37 CURVE",
"340 -20 LINE"
);
},
{
closed = 1;
nodes = (
"762 686 OFFCURVE",
"691 706 OFFCURVE",
"668 731 CURVE",
"717 812 OFFCURVE",
"770 892 OFFCURVE",
"827 969 CURVE",
"889 885 OFFCURVE",
"943 806 OFFCURVE",
"989 731 CURVE",
"964 706 OFFCURVE",
"894 686 OFFCURVE",
"829 686 CURVE SMOOTH"
);
},
{
closed = 1;
nodes = (
"566 891 OFFCURVE",
"553 960 OFFCURVE",
"553 1042 CURVE SMOOTH",
"553 1115 OFFCURVE",
"567 1182 OFFCURVE",
"594 1241 CURVE",
"696 1133 OFFCURVE",
"753 1072 OFFCURVE",
"764 1059 CURVE",
"675 946 OFFCURVE",
"618 871 OFFCURVE",
"592 834 CURVE"
);
},
{
closed = 1;
nodes = (
"1044 860 OFFCURVE",
"1000 919 OFFCURVE",
"932 1006 CURVE SMOOTH",
"891 1059 LINE",
"908 1080 OFFCURVE",
"964 1141 OFFCURVE",
"1061 1243 CURVE",
"1092 1177 OFFCURVE",
"1108 1110 OFFCURVE",
"1108 1042 CURVE SMOOTH",
"1108 959 OFFCURVE",
"1094 888 OFFCURVE",
"1065 829 CURVE"
);
},
{
closed = 1;
nodes = (
"746 1246 OFFCURVE",
"691 1310 OFFCURVE",
"664 1339 CURVE",
"707 1374 OFFCURVE",
"773 1395 OFFCURVE",
"829 1395 CURVE SMOOTH",
"874 1395 OFFCURVE",
"948 1375 OFFCURVE",
"989 1339 CURVE",
"912 1252 OFFCURVE",
"858 1188 OFFCURVE",
"827 1145 CURVE"
);
}
);
width = 1647;
}
);
note = g82;
},
{
glyphname = g83;
lastChange = "2016-11-10 14:31:18 +0000";
layers = (
{
layerId = "04B77939-8555-4652-993D-1D9FD1321E1B";
paths = (
{
closed = 1;
nodes = (
"543 121 LINE",
"457 129 LINE",
"502 416 LINE",
"594 408 LINE",
"610 528 LINE",
"522 537 LINE",
"637 1245 LINE",
"502 1260 LINE",
"381 553 LINE",
"283 563 LINE",
"266 440 LINE",
"360 430 LINE",
"311 145 LINE",
"215 156 LINE",
"199 33 LINE",
"530 0 LINE"
);
},
{
closed = 1;
nodes = (
"1157 0 LINE",
"1157 123 LINE",
"1065 123 LINE",
"1065 406 LINE",
"1157 406 LINE",
"1157 528 LINE",
"1065 528 LINE",
"1065 1245 LINE",
"922 1245 LINE",
"922 528 LINE",
"827 528 LINE",
"827 406 LINE",
"922 406 LINE",
"922 123 LINE",
"827 123 LINE",
"827 0 LINE"
);
},
{
closed = 1;
nodes = (
"1769 33 LINE",
"1757 156 LINE",
"1665 145 LINE",
"1620 430 LINE",
"1708 440 LINE",
"1694 563 LINE",
"1599 553 LINE",
"1485 1266 LINE",
"1352 1245 LINE",
"1462 539 LINE",
"1366 528 LINE",
"1380 408 LINE",
"1481 418 LINE",
"1526 131 LINE",
"1430 121 LINE",
"1442 0 LINE"
);
},
{
closed = 1;
nodes = (
"500 1474 OFFCURVE",
"577 1530 OFFCURVE",
"690 1530 CURVE SMOOTH",
"823 1530 OFFCURVE",
"899 1472 OFFCURVE",
"918 1356 CURVE",
"1069 1356 LINE",
"1089 1476 OFFCURVE",
"1161 1530 OFFCURVE",
"1296 1530 CURVE SMOOTH",
"1411 1530 OFFCURVE",
"1488 1474 OFFCURVE",
"1532 1346 CURVE",
"1665 1386 LINE",
"1594 1568 OFFCURVE",
"1471 1659 OFFCURVE",
"1296 1659 CURVE SMOOTH",
"1143 1659 OFFCURVE",
"1042 1601 OFFCURVE",
"993 1485 CURVE",
"948 1602 OFFCURVE",
"835 1659 OFFCURVE",
"690 1659 CURVE SMOOTH",
"516 1659 OFFCURVE",
"393 1568 OFFCURVE",
"322 1386 CURVE",
"455 1346 LINE"
);
}
);
width = 1972;
}
);
note = g83;
},
{
glyphname = g84;
lastChange = "2016-11-10 14:31:18 +0000";
layers = (
{
layerId = "04B77939-8555-4652-993D-1D9FD1321E1B";
paths = (
{
closed = 1;
nodes = (
"371 0 LINE",
"371 1638 LINE",
"227 1638 LINE",
"227 0 LINE"
);
},
{
closed = 1;
nodes = (
"909 502 LINE",
"909 631 LINE",
"530 631 LINE",
"530 502 LINE"
);
},
{
closed = 1;
nodes = (
"909 809 LINE",
"909 938 LINE",
"530 938 LINE",
"530 809 LINE"
);
},
{
closed = 1;
nodes = (
"909 1116 LINE",
"909 1245 LINE",
"530 1245 LINE",
"530 1116 LINE"
);
},
{
closed = 1;
nodes = (
"1212 0 LINE",
"1212 1638 LINE",
"1069 1638 LINE",
"1069 0 LINE"
);
}
);
width = 1440;
}
);
note = g84;
},
{
glyphname = g85;
lastChange = "2016-11-10 14:31:18 +0000";
layers = (
{
layerId = "04B77939-8555-4652-993D-1D9FD1321E1B";
paths = (
{
closed = 1;
nodes = (
"1384 0 LINE",
"1384 1434 LINE",
"1247 1434 LINE",
"1247 1245 LINE",
"1213 1245 OFFCURVE",
"1184 1258 OFFCURVE",
"1160 1283 CURVE SMOOTH",
"1135 1308 OFFCURVE",
"1101 1361 OFFCURVE",
"1057 1442 CURVE SMOOTH",
"985 1571 OFFCURVE",
"884 1638 OFFCURVE",
"737 1638 CURVE",
"737 1507 LINE",
"809 1507 OFFCURVE",
"860 1481 OFFCURVE",
"900 1438 CURVE SMOOTH",
"919 1417 OFFCURVE",
"946 1374 OFFCURVE",
"981 1311 CURVE SMOOTH",
"1012 1252 OFFCURVE",
"1038 1211 OFFCURVE",
"1061 1188 CURVE SMOOTH",
"1106 1141 OFFCURVE",
"1164 1114 OFFCURVE",
"1247 1114 CURVE",
"1247 672 LINE",
"881 672 LINE",
"881 1434 LINE",
"737 1434 LINE",
"737 1245 LINE",
"703 1245 OFFCURVE",
"674 1258 OFFCURVE",
"650 1283 CURVE SMOOTH",
"625 1308 OFFCURVE",
"591 1361 OFFCURVE",
"547 1442 CURVE SMOOTH",
"475 1571 OFFCURVE",
"374 1638 OFFCURVE",
"227 1638 CURVE",
"227 1507 LINE",
"299 1507 OFFCURVE",
"350 1481 OFFCURVE",
"390 1438 CURVE SMOOTH",
"409 1417 OFFCURVE",
"436 1374 OFFCURVE",
"471 1311 CURVE SMOOTH",
"502 1252 OFFCURVE",
"528 1211 OFFCURVE",
"551 1188 CURVE SMOOTH",
"596 1141 OFFCURVE",
"654 1114 OFFCURVE",
"737 1114 CURVE",
"737 672 LINE",
"371 672 LINE",
"371 1434 LINE",
"227 1434 LINE",
"227 0 LINE"
);
},
{
closed = 1;
nodes = (
"371 543 LINE",
"737 543 LINE",
"737 129 LINE",
"371 129 LINE"
);
},
{
closed = 1;
nodes = (
"881 543 LINE",
"1247 543 LINE",
"1247 129 LINE",
"881 129 LINE"
);
},
{
closed = 1;
nodes = (
"1757 1245 LINE",
"1723 1245 OFFCURVE",
"1694 1258 OFFCURVE",
"1670 1283 CURVE SMOOTH",
"1645 1308 OFFCURVE",
"1611 1361 OFFCURVE",
"1567 1442 CURVE SMOOTH",
"1495 1571 OFFCURVE",
"1394 1638 OFFCURVE",
"1247 1638 CURVE",
"1247 1507 LINE",
"1319 1507 OFFCURVE",
"1370 1481 OFFCURVE",
"1410 1438 CURVE SMOOTH",
"1429 1417 OFFCURVE",
"1456 1374 OFFCURVE",
"1491 1311 CURVE SMOOTH",
"1522 1252 OFFCURVE",
"1548 1211 OFFCURVE",
"1571 1188 CURVE SMOOTH",
"1616 1141 OFFCURVE",
"1674 1114 OFFCURVE",
"1757 1114 CURVE"
);
}
);
width = 1825;
}
);
note = g85;
},
{
glyphname = g86;
lastChange = "2016-11-10 14:31:18 +0000";
layers = (
{
layerId = "04B77939-8555-4652-993D-1D9FD1321E1B";
paths = (
{
closed = 1;
nodes = (
"1372 395 LINE",
"1372 524 LINE",
"1309 524 LINE",
"1098 752 LINE",
"1020 825 LINE",
"1094 895 LINE",
"1300 1116 LINE",
"1372 1116 LINE",
"1372 1245 LINE",
"500 1245 LINE",
"500 1116 LINE",
"569 1116 LINE",
"800 868 LINE",
"848 825 LINE",
"822 802 LINE",
"776 758 LINE",
"559 524 LINE",
"500 524 LINE",
"500 395 LINE"
);
},
{
closed = 1;
nodes = (
"639 0 LINE",
"639 129 LINE",
"371 129 LINE",
"371 1509 LINE",
"639 1509 LINE",
"639 1638 LINE",
"227 1638 LINE",
"227 0 LINE"
);
},
{
closed = 1;
nodes = (
"717 526 LINE",
"765 559 OFFCURVE",
"857 651 OFFCURVE",
"877 678 CURVE SMOOTH",
"897 705 OFFCURVE",
"917 741 OFFCURVE",
"928 768 CURVE",
"936 768 LINE",
"960 693 OFFCURVE",
"1096 563 OFFCURVE",
"1151 526 CURVE",
"1147 520 LINE",
"1133 523 OFFCURVE",
"1100 524 OFFCURVE",
"1049 524 CURVE SMOOTH",
"819 524 LINE SMOOTH",
"767 524 OFFCURVE",
"734 523 OFFCURVE",
"721 520 CURVE"
);
},
{
closed = 1;
nodes = (
"890 967 OFFCURVE",
"769 1094 OFFCURVE",
"725 1114 CURVE",
"727 1120 LINE",
"742 1117 OFFCURVE",
"774 1116 OFFCURVE",
"821 1116 CURVE SMOOTH",
"1047 1116 LINE SMOOTH",
"1094 1116 OFFCURVE",
"1126 1117 OFFCURVE",
"1141 1120 CURVE",
"1143 1114 LINE",
"1133 1109 OFFCURVE",
"1123 1103 OFFCURVE",
"1112 1094 CURVE SMOOTH",
"1091 1077 OFFCURVE",
"986 983 OFFCURVE",
"938 887 CURVE",
"930 887 LINE"
);
},
{
closed = 1;
nodes = (
"1663 0 LINE",
"1663 1638 LINE",
"1251 1638 LINE",
"1251 1509 LINE",
"1520 1509 LINE",
"1520 129 LINE",
"1251 129 LINE",
"1251 0 LINE"
);
}
);
width = 1890;
}
);
note = g86;
},
{
glyphname = g87;
lastChange = "2016-11-10 14:31:18 +0000";
layers = (
{
layerId = "04B77939-8555-4652-993D-1D9FD1321E1B";
paths = (
{
closed = 1;
nodes = (
"1347 258 OFFCURVE",
"1460 370 OFFCURVE",
"1460 543 CURVE SMOOTH",
"1460 654 OFFCURVE",
"1415 778 OFFCURVE",
"1325 913 CURVE SMOOTH",
"1145 1184 OFFCURVE",
"844 1391 OFFCURVE",
"612 1391 CURVE SMOOTH",
"423 1391 OFFCURVE",
"328 1296 OFFCURVE",
"328 1106 CURVE SMOOTH",
"328 993 OFFCURVE",
"373 869 OFFCURVE",
"463 734 CURVE SMOOTH",
"643 464 OFFCURVE",
"943 258 OFFCURVE",
"1176 258 CURVE SMOOTH"
);
},
{
closed = 1;
nodes = (
"381 680 LINE",
"291 772 LINE",
"23 504 LINE",
"115 414 LINE"
);
},
{
closed = 1;
nodes = (
"598 463 LINE",
"508 555 LINE",
"240 287 LINE",
"332 197 LINE"
);
},
{
closed = 1;
nodes = (
"817 246 LINE",
"725 338 LINE",
"457 70 LINE",
"549 -20 LINE"
);
},
{
closed = 1;
nodes = (
"1088 389 OFFCURVE",
"987 429 OFFCURVE",
"874 508 CURVE SMOOTH",
"646 666 OFFCURVE",
"471 923 OFFCURVE",
"471 1106 CURVE SMOOTH",
"471 1195 OFFCURVE",
"529 1260 OFFCURVE",
"612 1260 CURVE SMOOTH",
"700 1260 OFFCURVE",
"801 1221 OFFCURVE",
"915 1142 CURVE SMOOTH",
"1142 984 OFFCURVE",
"1317 726 OFFCURVE",
"1317 543 CURVE SMOOTH",
"1317 450 OFFCURVE",
"1257 389 OFFCURVE",
"1176 389 CURVE SMOOTH"
);
},
{
closed = 1;
nodes = (
"1327 1571 LINE",
"1235 1661 LINE",
"967 1395 LINE",
"1059 1303 LINE"
);
},
{
closed = 1;
nodes = (
"1761 1137 LINE",
"1669 1227 LINE",
"1403 961 LINE",
"1493 868 LINE"
);
},
{
closed = 1;
nodes = (
"1544 1354 LINE",
"1452 1444 LINE",
"1186 1178 LINE",
"1276 1085 LINE"
);
}
);
width = 1784;
}
);
note = g87;
},
{
glyphname = g88;
lastChange = "2016-11-10 14:31:18 +0000";
layers = (
{
layerId = "04B77939-8555-4652-993D-1D9FD1321E1B";
paths = (
{
closed = 1;
nodes = (
"574 65 OFFCURVE",
"791 233 OFFCURVE",
"791 481 CURVE SMOOTH",
"791 671 OFFCURVE",
"699 797 OFFCURVE",
"514 858 CURVE",
"675 927 OFFCURVE",
"760 1044 OFFCURVE",
"760 1196 CURVE SMOOTH",
"760 1356 OFFCURVE",
"686 1459 OFFCURVE",
"538 1536 CURVE SMOOTH",
"463 1574 OFFCURVE",
"337 1615 OFFCURVE",
"160 1659 CURVE",
"129 1526 LINE",
"316 1489 OFFCURVE",
"444 1446 OFFCURVE",
"513 1397 CURVE SMOOTH",
"582 1348 OFFCURVE",
"616 1281 OFFCURVE",
"616 1196 CURVE SMOOTH",
"616 1020 OFFCURVE",
"487 915 OFFCURVE",
"274 911 CURVE",
"274 782 LINE",
"341 782 OFFCURVE",
"403 770 OFFCURVE",
"461 745 CURVE SMOOTH",
"576 696 OFFCURVE",
"647 600 OFFCURVE",
"647 481 CURVE SMOOTH",
"647 354 OFFCURVE",
"578 270 OFFCURVE",
"447 210 CURVE SMOOTH",
"381 179 OFFCURVE",
"270 148 OFFCURVE",
"113 115 CURVE",
"141 -23 LINE"
);
},
{
closed = 1;
nodes = (
"1217 573 LINE",
"1158 578 OFFCURVE",
"1114 586 OFFCURVE",
"1084 595 CURVE SMOOTH",
"1053 604 OFFCURVE",
"1038 618 OFFCURVE",
"1038 639 CURVE SMOOTH",
"1038 651 OFFCURVE",
"1045 665 OFFCURVE",
"1060 681 CURVE SMOOTH",
"1075 697 OFFCURVE",
"1095 715 OFFCURVE",
"1121 736 CURVE SMOOTH",
"1176 780 OFFCURVE",
"1204 825 OFFCURVE",
"1204 870 CURVE SMOOTH",
"1204 920 OFFCURVE",
"1185 958 OFFCURVE",
"1148 984 CURVE SMOOTH",
"1110 1009 OFFCURVE",
"1037 1030 OFFCURVE",
"928 1047 CURVE",
"895 924 LINE",
"956 917 OFFCURVE",
"1000 909 OFFCURVE",
"1028 898 CURVE SMOOTH",
"1055 887 OFFCURVE",
"1069 871 OFFCURVE",
"1069 850 CURVE SMOOTH",
"1069 841 OFFCURVE",
"1064 831 OFFCURVE",
"1053 818 CURVE SMOOTH",
"1042 805 OFFCURVE",
"1019 784 OFFCURVE",
"985 753 CURVE SMOOTH",
"929 702 OFFCURVE",
"901 653 OFFCURVE",
"901 606 CURVE SMOOTH",
"901 502 OFFCURVE",
"993 458 OFFCURVE",
"1190 451 CURVE"
);
},
{
closed = 1;
nodes = (
"1217 1188 LINE",
"1158 1193 OFFCURVE",
"1114 1200 OFFCURVE",
"1084 1209 CURVE SMOOTH",
"1053 1218 OFFCURVE",
"1038 1232 OFFCURVE",
"1038 1253 CURVE SMOOTH",
"1038 1264 OFFCURVE",
"1044 1277 OFFCURVE",
"1056 1291 CURVE",
"1068 1304 OFFCURVE",
"1090 1324 OFFCURVE",
"1121 1350 CURVE SMOOTH",
"1176 1395 OFFCURVE",
"1204 1440 OFFCURVE",
"1204 1485 CURVE SMOOTH",
"1204 1534 OFFCURVE",
"1185 1572 OFFCURVE",
"1148 1598 CURVE SMOOTH",
"1110 1623 OFFCURVE",
"1037 1644 OFFCURVE",
"928 1661 CURVE",
"895 1538 LINE",
"956 1532 OFFCURVE",
"1000 1523 OFFCURVE",
"1028 1512 CURVE SMOOTH",
"1055 1501 OFFCURVE",
"1069 1485 OFFCURVE",
"1069 1464 CURVE SMOOTH",
"1069 1455 OFFCURVE",
"1064 1445 OFFCURVE",
"1053 1432 CURVE SMOOTH",
"1042 1419 OFFCURVE",
"1019 1398 OFFCURVE",
"985 1367 CURVE SMOOTH",
"929 1316 OFFCURVE",
"901 1268 OFFCURVE",
"901 1221 CURVE SMOOTH",
"901 1116 OFFCURVE",
"991 1072 OFFCURVE",
"1190 1065 CURVE"
);
}
);
width = 1331;
}
);
note = g88;
},
{
glyphname = g89;
lastChange = "2016-11-10 14:31:18 +0000";
layers = (
{
layerId = "04B77939-8555-4652-993D-1D9FD1321E1B";
paths = (
{
closed = 1;
nodes = (
"1395 0 LINE",
"1395 293 LINE SMOOTH",
"1395 410 OFFCURVE",
"1383 503 OFFCURVE",
"1358 570 CURVE SMOOTH",
"1308 704 OFFCURVE",
"1215 758 OFFCURVE",
"979 758 CURVE",
"979 1303 LINE",
"1092 1303 LINE",
"1307 1077 LINE",
"1395 1176 LINE",
"1348 1225 LINE SMOOTH",
"1262 1315 OFFCURVE",
"1194 1360 OFFCURVE",
"1145 1360 CURVE",
"1145 1370 LINE",
"1172 1370 OFFCURVE",
"1203 1383 OFFCURVE",
"1238 1409 CURVE SMOOTH",
"1272 1435 OFFCURVE",
"1324 1486 OFFCURVE",
"1395 1561 CURVE",
"1307 1659 LINE",
"1090 1432 LINE",
"465 1432 LINE",
"248 1659 LINE",
"160 1561 LINE",
"231 1486 OFFCURVE",
"283 1435 OFFCURVE",
"317 1409 CURVE SMOOTH",
"351 1383 OFFCURVE",
"382 1370 OFFCURVE",
"410 1370 CURVE",
"410 1360 LINE",
"355 1360 OFFCURVE",
"294 1316 OFFCURVE",
"207 1225 CURVE SMOOTH",
"160 1176 LINE",
"248 1077 LINE",
"463 1303 LINE",
"569 1303 LINE",
"569 758 LINE",
"135 758 LINE",
"135 629 LINE",
"985 629 LINE SMOOTH",
"1184 629 OFFCURVE",
"1257 536 OFFCURVE",
"1257 293 CURVE SMOOTH",
"1257 0 LINE"
);
},
{
closed = 1;
nodes = (
"1149 0 LINE",
"1149 293 LINE SMOOTH",
"1149 458 OFFCURVE",
"1100 512 OFFCURVE",
"944 512 CURVE SMOOTH",
"569 512 LINE",
"569 383 LINE",
"944 383 LINE SMOOTH",
"999 383 OFFCURVE",
"1012 350 OFFCURVE",
"1012 293 CURVE SMOOTH",
"1012 0 LINE"
);
},
{
closed = 1;
nodes = (
"702 1303 LINE",
"846 1303 LINE",
"846 758 LINE",
"702 758 LINE"
);
}
);
width = 1575;
}
);
note = g89;
},
{
glyphname = g90;
lastChange = "2016-11-10 14:31:18 +0000";
layers = (
{
layerId = "04B77939-8555-4652-993D-1D9FD1321E1B";
paths = (
{
closed = 1;
nodes = (
"1362 0 LINE",
"1878 594 LINE",
"1786 686 LINE",
"1665 545 LINE",
"637 545 LINE",
"365 817 LINE",
"365 1638 LINE",
"227 1638 LINE",
"227 0 LINE"
);
},
{
closed = 1;
nodes = (
"365 653 LINE",
"371 655 LINE",
"382 638 LINE",
"401 604 OFFCURVE",
"421 576 OFFCURVE",
"442 555 CURVE SMOOTH",
"582 416 LINE",
"582 129 LINE",
"365 129 LINE"
);
},
{
closed = 1;
nodes = (
"725 416 LINE",
"1380 416 LINE SMOOTH",
"1472 416 OFFCURVE",
"1530 422 OFFCURVE",
"1554 434 CURVE",
"1561 428 LINE",
"1300 129 LINE",
"725 129 LINE"
);
}
);
width = 1946;
}
);
note = g90;
},
{
glyphname = g91;
lastChange = "2016-11-10 14:31:18 +0000";
layers = (
{
layerId = "04B77939-8555-4652-993D-1D9FD1321E1B";
paths = (
{
closed = 1;
nodes = (
"209 1 OFFCURVE",
"316 47 OFFCURVE",
"425 122 CURVE SMOOTH",
"643 273 OFFCURVE",
"775 483 OFFCURVE",
"782 680 CURVE",
"791 680 LINE",
"794 581 OFFCURVE",
"829 481 OFFCURVE",
"897 381 CURVE SMOOTH",
"1032 180 OFFCURVE",
"1277 16 OFFCURVE",
"1477 -16 CURVE",
"1513 123 LINE",
"1430 137 OFFCURVE",
"1367 154 OFFCURVE",
"1325 174 CURVE",
"1325 1040 LINE",
"862 1040 LINE",
"862 1509 LINE",
"1155 1509 LINE",
"1155 1638 LINE",
"428 1638 LINE",
"428 1509 LINE",
"719 1509 LINE",
"719 1040 LINE",
"266 1040 LINE",
"266 182 LINE",
"209 155 OFFCURVE",
"143 136 OFFCURVE",
"68 123 CURVE",
"104 -16 LINE"
);
},
{
closed = 1;
nodes = (
"403 911 LINE",
"713 911 LINE",
"690 643 OFFCURVE",
"580 416 OFFCURVE",
"403 272 CURVE"
);
},
{
closed = 1;
nodes = (
"999 401 OFFCURVE",
"889 630 OFFCURVE",
"866 911 CURVE",
"1182 911 LINE",
"1182 260 LINE"
);
}
);
width = 1581;
}
);
note = g91;
},
{
glyphname = g92;
lastChange = "2016-11-10 14:31:18 +0000";
layers = (
{
layerId = "04B77939-8555-4652-993D-1D9FD1321E1B";
paths = (
{
closed = 1;
nodes = (
"401 0 LINE",
"421 193 OFFCURVE",
"479 547 OFFCURVE",
"544 808 CURVE SMOOTH",
"577 939 OFFCURVE",
"601 1004 OFFCURVE",
"618 1004 CURVE SMOOTH",
"631 1004 OFFCURVE",
"652 953 OFFCURVE",
"680 852 CURVE SMOOTH",
"735 648 OFFCURVE",
"807 272 OFFCURVE",
"836 0 CURVE",
"977 0 LINE",
"945 377 OFFCURVE",
"829 841 OFFCURVE",
"773 987 CURVE SMOOTH",
"744 1060 OFFCURVE",
"714 1105 OFFCURVE",
"682 1122 CURVE",
"688 1133 LINE",
"724 1125 OFFCURVE",
"830 1116 OFFCURVE",
"926 1116 CURVE SMOOTH",
"1085 1116 LINE",
"1085 1245 LINE",
"692 1245 LINE",
"692 1632 LINE",
"549 1632 LINE",
"549 1245 LINE",
"158 1245 LINE",
"158 1116 LINE",
"346 1116 LINE SMOOTH",
"414 1116 OFFCURVE",
"518 1125 OFFCURVE",
"555 1133 CURVE",
"559 1122 LINE",
"525 1103 OFFCURVE",
"490 1039 OFFCURVE",
"455 931 CURVE SMOOTH",
"384 715 OFFCURVE",
"283 211 OFFCURVE",
"264 0 CURVE"
);
}
);
width = 1243;
}
);
note = g92;
},
{
glyphname = g93;
lastChange = "2016-11-10 14:31:18 +0000";
layers = (
{
layerId = "04B77939-8555-4652-993D-1D9FD1321E1B";
paths = (
{
closed = 1;
nodes = (
"1051 0 LINE",
"1036 16 LINE",
"1012 245 OFFCURVE",
"894 687 OFFCURVE",
"799 914 CURVE SMOOTH",
"752 1027 OFFCURVE",
"711 1097 OFFCURVE",
"676 1122 CURVE",
"682 1133 LINE",
"718 1125 OFFCURVE",
"824 1116 OFFCURVE",
"920 1116 CURVE SMOOTH",
"1085 1116 LINE",
"1085 1245 LINE",
"158 1245 LINE",
"158 1116 LINE",
"360 1116 LINE SMOOTH",
"424 1116 OFFCURVE",
"530 1125 OFFCURVE",
"567 1133 CURVE",
"571 1122 LINE",
"534 1097 OFFCURVE",
"491 1027 OFFCURVE",
"443 910 CURVE SMOOTH",
"347 676 OFFCURVE",
"232 240 OFFCURVE",
"203 12 CURVE",
"193 0 LINE"
);
},
{
closed = 1;
nodes = (
"393 354 OFFCURVE",
"479 687 OFFCURVE",
"548 868 CURVE SMOOTH",
"582 959 OFFCURVE",
"607 1004 OFFCURVE",
"623 1004 CURVE SMOOTH",
"636 1004 OFFCURVE",
"659 961 OFFCURVE",
"690 874 CURVE SMOOTH",
"753 701 OFFCURVE",
"832 402 OFFCURVE",
"879 129 CURVE",
"356 129 LINE"
);
},
{
closed = 1;
nodes = (
"371 879 LINE",
"371 1024 LINE",
"244 1024 LINE",
"244 879 LINE"
);
},
{
closed = 1;
nodes = (
"1008 879 LINE",
"1008 1024 LINE",
"881 1024 LINE",
"881 879 LINE"
);
},
{
closed = 1;
nodes = (
"731 1399 LINE",
"647 1399 OFFCURVE",
"578 1430 OFFCURVE",
"578 1475 CURVE SMOOTH",
"578 1520 OFFCURVE",
"644 1548 OFFCURVE",
"731 1548 CURVE",
"727 1659 LINE",
"570 1659 OFFCURVE",
"459 1586 OFFCURVE",
"459 1475 CURVE SMOOTH",
"459 1364 OFFCURVE",
"568 1290 OFFCURVE",
"727 1290 CURVE"
);
}
);
width = 1243;
}
);
note = g93;
},
{
glyphname = g94;
lastChange = "2016-11-10 14:31:18 +0000";
layers = (
{
layerId = "04B77939-8555-4652-993D-1D9FD1321E1B";
paths = (
{
closed = 1;
nodes = (
"848 0 LINE",
"788 129 LINE",
"403 129 LINE",
"422 350 OFFCURVE",
"464 541 OFFCURVE",
"531 702 CURVE SMOOTH",
"663 1023 OFFCURVE",
"880 1192 OFFCURVE",
"1149 1192 CURVE SMOOTH",
"1277 1192 OFFCURVE",
"1380 1158 OFFCURVE",
"1539 1045 CURVE SMOOTH",
"1660 956 OFFCURVE",
"1712 946 OFFCURVE",
"1784 926 CURVE SMOOTH",
"1920 886 OFFCURVE",
"1972 846 OFFCURVE",
"1972 778 CURVE SMOOTH",
"1972 729 OFFCURVE",
"1936 701 OFFCURVE",
"1876 685 CURVE SMOOTH",
"1846 676 OFFCURVE",
"1787 669 OFFCURVE",
"1700 662 CURVE SMOOTH",
"1649 658 OFFCURVE",
"1584 644 OFFCURVE",
"1504 621 CURVE SMOOTH",
"1432 600 OFFCURVE",
"1375 590 OFFCURVE",
"1333 590 CURVE SMOOTH",
"1196 590 OFFCURVE",
"1054 636 OFFCURVE",
"983 692 CURVE",
"915 631 LINE",
"1018 322 OFFCURVE",
"1050 189 OFFCURVE",
"1069 0 CURVE",
"1196 0 LINE",
"1191 104 OFFCURVE",
"1153 295 OFFCURVE",
"1092 514 CURVE",
"1173 480 OFFCURVE",
"1257 463 OFFCURVE",
"1346 463 CURVE SMOOTH",
"1379 463 OFFCURVE",
"1439 476 OFFCURVE",
"1527 503 CURVE SMOOTH",
"1615 530 OFFCURVE",
"1679 543 OFFCURVE",
"1718 543 CURVE SMOOTH",
"1965 543 OFFCURVE",
"2095 621 OFFCURVE",
"2095 793 CURVE SMOOTH",
"2095 872 OFFCURVE",
"2057 928 OFFCURVE",
"1980 973 CURVE SMOOTH",
"1941 995 OFFCURVE",
"1873 1022 OFFCURVE",
"1774 1053 CURVE SMOOTH",
"1728 1067 OFFCURVE",
"1668 1099 OFFCURVE",
"1595 1150 CURVE SMOOTH",
"1514 1205 OFFCURVE",
"1454 1242 OFFCURVE",
"1416 1260 CURVE SMOOTH",
"1340 1296 OFFCURVE",
"1256 1319 OFFCURVE",
"1149 1319 CURVE SMOOTH",
"1116 1319 OFFCURVE",
"1083 1317 OFFCURVE",
"1051 1313 CURVE",
"1231 1475 LINE SMOOTH",
"1298 1534 OFFCURVE",
"1321 1587 OFFCURVE",
"1321 1667 CURVE SMOOTH",
"1321 1735 OFFCURVE",
"1283 1825 OFFCURVE",
"1196 1898 CURVE",
"1077 1837 LINE",
"1144 1768 OFFCURVE",
"1178 1709 OFFCURVE",
"1178 1659 CURVE SMOOTH",
"1178 1615 OFFCURVE",
"1159 1577 OFFCURVE",
"1120 1544 CURVE",
"1061 1489 LINE",
"1053 1529 OFFCURVE",
"1034 1577 OFFCURVE",
"1004 1634 CURVE",
"887 1577 LINE",
"921 1534 OFFCURVE",
"938 1489 OFFCURVE",
"938 1442 CURVE SMOOTH",
"938 1407 OFFCURVE",
"929 1379 OFFCURVE",
"911 1356 CURVE",
"874 1323 LINE",
"867 1356 OFFCURVE",
"850 1401 OFFCURVE",
"821 1458 CURVE",
"705 1399 LINE",
"739 1355 OFFCURVE",
"756 1311 OFFCURVE",
"756 1266 CURVE SMOOTH",
"756 1247 OFFCURVE",
"752 1228 OFFCURVE",
"745 1210 CURVE",
"715 1182 LINE",
"694 1168 OFFCURVE",
"672 1149 OFFCURVE",
"647 1126 CURVE",
"502 1255 LINE",
"492 1277 OFFCURVE",
"487 1298 OFFCURVE",
"487 1319 CURVE SMOOTH",
"487 1364 OFFCURVE",
"506 1410 OFFCURVE",
"543 1456 CURVE",
"424 1513 LINE",
"403 1475 OFFCURVE",
"384 1429 OFFCURVE",
"367 1376 CURVE",
"309 1436 LINE SMOOTH",
"282 1463 OFFCURVE",
"268 1499 OFFCURVE",
"268 1544 CURVE SMOOTH",
"268 1605 OFFCURVE",
"297 1665 OFFCURVE",
"356 1724 CURVE",
"238 1786 LINE",
"160 1697 OFFCURVE",
"121 1615 OFFCURVE",
"121 1538 CURVE SMOOTH",
"121 1467 OFFCURVE",
"146 1408 OFFCURVE",
"197 1362 CURVE SMOOTH",
"418 1155 LINE",
"339 1151 OFFCURVE",
"231 1118 OFFCURVE",
"199 1090 CURVE",
"199 937 OFFCURVE",
"294 801 OFFCURVE",
"414 801 CURVE SMOOTH",
"428 801 LINE",
"329 580 OFFCURVE",
"274 295 OFFCURVE",
"262 0 CURVE"
);
},
{
closed = 1;
nodes = (
"375 915 OFFCURVE",
"327 959 OFFCURVE",
"307 1024 CURVE",
"343 1042 OFFCURVE",
"381 1051 OFFCURVE",
"422 1051 CURVE SMOOTH",
"457 1051 OFFCURVE",
"484 1047 OFFCURVE",
"503 1039 CURVE SMOOTH",
"521 1031 OFFCURVE",
"530 1020 OFFCURVE",
"530 1006 CURVE SMOOTH",
"530 995 LINE",
"528 985 LINE",
"514 966 LINE",
"502 944 LINE",
"480 925 OFFCURVE",
"456 915 OFFCURVE",
"430 915 CURVE SMOOTH"
);
},
{
closed = 1;
nodes = (
"1214 926 OFFCURVE",
"1260 967 OFFCURVE",
"1260 1022 CURVE SMOOTH",
"1260 1078 OFFCURVE",
"1217 1120 OFFCURVE",
"1161 1120 CURVE SMOOTH",
"1105 1120 OFFCURVE",
"1065 1075 OFFCURVE",
"1065 1022 CURVE SMOOTH",
"1065 969 OFFCURVE",
"1108 926 OFFCURVE",
"1161 926 CURVE SMOOTH"
);
}
);
width = 2177;
}
);
note = g94;
},
{
glyphname = g95;
lastChange = "2016-11-10 14:31:18 +0000";
layers = (
{
layerId = "04B77939-8555-4652-993D-1D9FD1321E1B";
paths = (
{
closed = 1;
nodes = (
"1221 0 LINE",
"1161 129 LINE",
"506 129 LINE",
"563 428 OFFCURVE",
"646 729 OFFCURVE",
"710 868 CURVE SMOOTH",
"774 1007 OFFCURVE",
"852 1102 OFFCURVE",
"945 1158 CURVE SMOOTH",
"1037 1213 OFFCURVE",
"1134 1237 OFFCURVE",
"1313 1237 CURVE SMOOTH",
"1405 1237 OFFCURVE",
"1546 1167 OFFCURVE",
"1703 1055 CURVE SMOOTH",
"1859 942 OFFCURVE",
"2070 755 OFFCURVE",
"2213 602 CURVE SMOOTH",
"2284 525 OFFCURVE",
"2320 480 OFFCURVE",
"2320 467 CURVE SMOOTH",
"2320 434 OFFCURVE",
"2253 367 OFFCURVE",
"2198 348 CURVE",
"2165 363 OFFCURVE",
"2130 381 OFFCURVE",
"2093 402 CURVE SMOOTH",
"2056 423 OFFCURVE",
"1979 473 OFFCURVE",
"1862 551 CURVE",
"1763 538 OFFCURVE",
"1707 532 OFFCURVE",
"1692 531 CURVE SMOOTH",
"1677 530 OFFCURVE",
"1659 530 OFFCURVE",
"1640 530 CURVE SMOOTH",
"1512 530 OFFCURVE",
"1410 551 OFFCURVE",
"1335 592 CURVE",
"1310 699 OFFCURVE",
"1295 801 OFFCURVE",
"1290 899 CURVE",
"1229 899 OFFCURVE",
"1189 826 OFFCURVE",
"1189 709 CURVE SMOOTH",
"1189 536 OFFCURVE",
"1282 225 OFFCURVE",
"1397 0 CURVE",
"1548 0 LINE",
"1484 124 OFFCURVE",
"1423 284 OFFCURVE",
"1364 479 CURVE",
"1370 481 LINE",
"1403 422 OFFCURVE",
"1463 395 OFFCURVE",
"1610 395 CURVE SMOOTH",
"1672 395 LINE SMOOTH",
"1725 395 OFFCURVE",
"1774 399 OFFCURVE",
"1817 408 CURVE",
"1898 355 OFFCURVE",
"1965 314 OFFCURVE",
"2018 287 CURVE SMOOTH",
"2071 260 OFFCURVE",
"2111 246 OFFCURVE",
"2140 246 CURVE SMOOTH",
"2171 246 OFFCURVE",
"2200 256 OFFCURVE",
"2226 276 CURVE",
"2238 269 OFFCURVE",
"2251 266 OFFCURVE",
"2264 266 CURVE SMOOTH",
"2291 266 OFFCURVE",
"2320 277 OFFCURVE",
"2351 300 CURVE SMOOTH",
"2413 344 OFFCURVE",
"2458 422 OFFCURVE",
"2458 498 CURVE SMOOTH",
"2458 524 OFFCURVE",
"2410 589 OFFCURVE",
"2313 693 CURVE SMOOTH",
"2216 797 OFFCURVE",
"2108 899 OFFCURVE",
"1988 1000 CURVE SMOOTH",
"1748 1200 OFFCURVE",
"1547 1317 OFFCURVE",
"1399 1350 CURVE",
"1414 1370 OFFCURVE",
"1434 1392 OFFCURVE",
"1434 1415 CURVE SMOOTH",
"1434 1448 OFFCURVE",
"1420 1483 OFFCURVE",
"1391 1520 CURVE SMOOTH",
"1333 1595 OFFCURVE",
"1210 1672 OFFCURVE",
"1145 1679 CURVE",
"1075 1622 OFFCURVE",
"1040 1548 OFFCURVE",
"1040 1458 CURVE SMOOTH",
"1040 1410 OFFCURVE",
"1059 1370 OFFCURVE",
"1096 1337 CURVE",
"1064 1332 OFFCURVE",
"1041 1327 OFFCURVE",
"1026 1323 CURVE",
"1028 1335 LINE",
"1028 1368 OFFCURVE",
"1014 1403 OFFCURVE",
"985 1440 CURVE SMOOTH",
"927 1515 OFFCURVE",
"804 1592 OFFCURVE",
"739 1599 CURVE",
"670 1542 OFFCURVE",
"635 1468 OFFCURVE",
"635 1378 CURVE SMOOTH",
"635 1267 OFFCURVE",
"694 1203 OFFCURVE",
"793 1192 CURVE",
"743 1147 OFFCURVE",
"698 1093 OFFCURVE",
"657 1028 CURVE",
"643 1039 OFFCURVE",
"628 1050 OFFCURVE",
"611 1059 CURVE SMOOTH",
"594 1068 OFFCURVE",
"579 1076 OFFCURVE",
"565 1085 CURVE",
"536 1102 OFFCURVE",
"514 1119 OFFCURVE",
"514 1139 CURVE SMOOTH",
"514 1160 OFFCURVE",
"539 1193 OFFCURVE",
"588 1237 CURVE",
"551 1250 OFFCURVE",
"521 1257 OFFCURVE",
"498 1257 CURVE SMOOTH",
"425 1257 OFFCURVE",
"377 1202 OFFCURVE",
"377 1130 CURVE SMOOTH",
"377 1087 OFFCURVE",
"408 1054 OFFCURVE",
"473 1017 CURVE SMOOTH",
"513 994 OFFCURVE",
"539 977 OFFCURVE",
"551 966 CURVE SMOOTH",
"563 955 OFFCURVE",
"569 943 OFFCURVE",
"569 932 CURVE SMOOTH",
"569 892 OFFCURVE",
"547 846 OFFCURVE",
"510 786 CURVE",
"543 786 LINE",
"528 745 LINE",
"486 771 LINE",
"459 785 OFFCURVE",
"439 798 OFFCURVE",
"426 809 CURVE SMOOTH",
"413 820 OFFCURVE",
"406 831 OFFCURVE",
"406 842 CURVE SMOOTH",
"406 863 OFFCURVE",
"430 896 OFFCURVE",
"479 940 CURVE",
"442 954 OFFCURVE",
"412 961 OFFCURVE",
"389 961 CURVE SMOOTH",
"316 961 OFFCURVE",
"268 904 OFFCURVE",
"268 836 CURVE SMOOTH",
"268 794 OFFCURVE",
"301 755 OFFCURVE",
"366 719 CURVE SMOOTH",
"399 700 OFFCURVE",
"424 685 OFFCURVE",
"440 672 CURVE SMOOTH",
"455 659 OFFCURVE",
"463 647 OFFCURVE",
"463 635 CURVE SMOOTH",
"463 610 OFFCURVE",
"443 562 OFFCURVE",
"403 489 CURVE",
"426 489 OFFCURVE",
"444 490 OFFCURVE",
"457 492 CURVE",
"442 434 LINE",
"428 446 OFFCURVE",
"412 457 OFFCURVE",
"395 467 CURVE",
"378 476 OFFCURVE",
"362 486 OFFCURVE",
"347 495 CURVE SMOOTH",
"318 513 OFFCURVE",
"295 529 OFFCURVE",
"295 549 CURVE SMOOTH",
"295 570 OFFCURVE",
"320 603 OFFCURVE",
"369 647 CURVE",
"332 661 OFFCURVE",
"302 668 OFFCURVE",
"279 668 CURVE SMOOTH",
"206 668 OFFCURVE",
"158 613 OFFCURVE",
"158 541 CURVE SMOOTH",
"158 500 OFFCURVE",
"190 462 OFFCURVE",
"255 426 CURVE SMOOTH",
"291 406 OFFCURVE",
"316 390 OFFCURVE",
"331 378 CURVE SMOOTH",
"345 366 OFFCURVE",
"352 354 OFFCURVE",
"352 342 CURVE SMOOTH",
"352 315 OFFCURVE",
"332 266 OFFCURVE",
"293 197 CURVE",
"330 197 OFFCURVE",
"362 201 OFFCURVE",
"389 209 CURVE",
"366 94 OFFCURVE",
"354 24 OFFCURVE",
"354 0 CURVE"
);
},
{
closed = 1;
nodes = (
"789 1266 OFFCURVE",
"745 1320 OFFCURVE",
"745 1391 CURVE SMOOTH",
"745 1420 OFFCURVE",
"753 1449 OFFCURVE",
"768 1477 CURVE",
"849 1449 OFFCURVE",
"918 1364 OFFCURVE",
"918 1319 CURVE SMOOTH",
"918 1296 OFFCURVE",
"899 1266 OFFCURVE",
"854 1266 CURVE SMOOTH"
);
},
{
closed = 1;
nodes = (
"1473 942 OFFCURVE",
"1523 969 OFFCURVE",
"1581 1024 CURVE",
"1500 1052 OFFCURVE",
"1453 1087 OFFCURVE",
"1440 1128 CURVE",
"1300 1081 LINE",
"1331 988 OFFCURVE",
"1375 942 OFFCURVE",
"1432 942 CURVE SMOOTH"
);
},
{
closed = 1;
nodes = (
"1196 1346 OFFCURVE",
"1149 1398 OFFCURVE",
"1149 1473 CURVE SMOOTH",
"1149 1505 OFFCURVE",
"1157 1533 OFFCURVE",
"1174 1556 CURVE",
"1251 1529 OFFCURVE",
"1323 1448 OFFCURVE",
"1323 1399 CURVE SMOOTH",
"1323 1368 OFFCURVE",
"1296 1346 OFFCURVE",
"1257 1346 CURVE SMOOTH"
);
}
);
width = 2525;
}
);
note = g95;
},
{
glyphname = g96;
lastChange = "2016-11-10 14:31:18 +0000";
layers = (
{
layerId = "04B77939-8555-4652-993D-1D9FD1321E1B";
paths = (
{
closed = 1;
nodes = (
"776 0 LINE",
"688 236 OFFCURVE",
"636 507 OFFCURVE",
"636 770 CURVE SMOOTH",
"636 815 OFFCURVE",
"638 858 OFFCURVE",
"641 899 CURVE",
"559 872 OFFCURVE",
"518 786 OFFCURVE",
"518 643 CURVE SMOOTH",
"518 538 OFFCURVE",
"544 366 OFFCURVE",
"596 129 CURVE",
"287 129 LINE",
"343 425 OFFCURVE",
"426 729 OFFCURVE",
"491 868 CURVE SMOOTH",
"555 1007 OFFCURVE",
"633 1102 OFFCURVE",
"725 1158 CURVE SMOOTH",
"817 1213 OFFCURVE",
"914 1237 OFFCURVE",
"1094 1237 CURVE SMOOTH",
"1186 1237 OFFCURVE",
"1327 1167 OFFCURVE",
"1484 1055 CURVE SMOOTH",
"1640 942 OFFCURVE",
"1851 755 OFFCURVE",
"1994 602 CURVE SMOOTH",
"2065 525 OFFCURVE",
"2101 480 OFFCURVE",
"2101 467 CURVE SMOOTH",
"2101 434 OFFCURVE",
"2035 368 OFFCURVE",
"1978 348 CURVE",
"1913 378 OFFCURVE",
"1854 411 OFFCURVE",
"1801 447 CURVE SMOOTH",
"1748 482 OFFCURVE",
"1695 517 OFFCURVE",
"1642 551 CURVE",
"1610 548 OFFCURVE",
"1567 547 OFFCURVE",
"1513 547 CURVE SMOOTH",
"1424 547 OFFCURVE",
"1338 574 OFFCURVE",
"1257 629 CURVE",
"1248 604 OFFCURVE",
"1243 578 OFFCURVE",
"1243 553 CURVE SMOOTH",
"1243 522 OFFCURVE",
"1255 495 OFFCURVE",
"1279 473 CURVE SMOOTH",
"1327 429 OFFCURVE",
"1413 403 OFFCURVE",
"1489 403 CURVE SMOOTH",
"1541 403 OFFCURVE",
"1577 405 OFFCURVE",
"1597 408 CURVE",
"1687 350 OFFCURVE",
"1757 309 OFFCURVE",
"1806 284 CURVE SMOOTH",
"1855 259 OFFCURVE",
"1894 246 OFFCURVE",
"1921 246 CURVE SMOOTH",
"1951 246 OFFCURVE",
"1980 256 OFFCURVE",
"2007 276 CURVE",
"2018 269 OFFCURVE",
"2031 266 OFFCURVE",
"2044 266 CURVE SMOOTH",
"2135 266 OFFCURVE",
"2238 387 OFFCURVE",
"2238 498 CURVE SMOOTH",
"2238 523 OFFCURVE",
"2191 588 OFFCURVE",
"2096 691 CURVE SMOOTH",
"2001 794 OFFCURVE",
"1896 894 OFFCURVE",
"1779 993 CURVE SMOOTH",
"1545 1190 OFFCURVE",
"1339 1313 OFFCURVE",
"1190 1350 CURVE",
"1206 1372 OFFCURVE",
"1214 1394 OFFCURVE",
"1214 1415 CURVE SMOOTH",
"1214 1448 OFFCURVE",
"1199 1483 OFFCURVE",
"1170 1520 CURVE SMOOTH",
"1111 1595 OFFCURVE",
"990 1672 OFFCURVE",
"926 1679 CURVE",
"856 1622 OFFCURVE",
"821 1548 OFFCURVE",
"821 1458 CURVE SMOOTH",
"821 1410 OFFCURVE",
"840 1370 OFFCURVE",
"877 1337 CURVE",
"845 1332 OFFCURVE",
"822 1327 OFFCURVE",
"807 1323 CURVE",
"809 1335 LINE",
"809 1368 OFFCURVE",
"795 1403 OFFCURVE",
"766 1440 CURVE SMOOTH",
"708 1515 OFFCURVE",
"585 1592 OFFCURVE",
"520 1599 CURVE",
"451 1542 OFFCURVE",
"416 1468 OFFCURVE",
"416 1378 CURVE SMOOTH",
"416 1266 OFFCURVE",
"477 1203 OFFCURVE",
"573 1192 CURVE",
"523 1146 OFFCURVE",
"478 1091 OFFCURVE",
"438 1028 CURVE",
"424 1039 OFFCURVE",
"409 1050 OFFCURVE",
"392 1059 CURVE SMOOTH",
"375 1068 OFFCURVE",
"360 1076 OFFCURVE",
"346 1085 CURVE",
"317 1102 OFFCURVE",
"295 1119 OFFCURVE",
"295 1139 CURVE SMOOTH",
"295 1160 OFFCURVE",
"320 1193 OFFCURVE",
"369 1237 CURVE",
"332 1250 OFFCURVE",
"302 1257 OFFCURVE",
"279 1257 CURVE SMOOTH",
"206 1257 OFFCURVE",
"158 1202 OFFCURVE",
"158 1130 CURVE SMOOTH",
"158 1087 OFFCURVE",
"189 1054 OFFCURVE",
"254 1017 CURVE SMOOTH",
"294 994 OFFCURVE",
"320 977 OFFCURVE",
"332 966 CURVE SMOOTH",
"344 955 OFFCURVE",
"350 943 OFFCURVE",
"350 932 CURVE SMOOTH",
"350 892 OFFCURVE",
"328 846 OFFCURVE",
"291 786 CURVE",
"324 786 LINE",
"271 607 OFFCURVE",
"227 441 OFFCURVE",
"190 287 CURVE SMOOTH",
"153 132 OFFCURVE",
"135 37 OFFCURVE",
"135 0 CURVE"
);
},
{
closed = 1;
nodes = (
"1329 0 LINE",
"1178 293 OFFCURVE",
"1088 627 OFFCURVE",
"1071 899 CURVE",
"1010 899 OFFCURVE",
"970 826 OFFCURVE",
"970 709 CURVE SMOOTH",
"970 537 OFFCURVE",
"1058 236 OFFCURVE",
"1178 0 CURVE"
);
},
{
closed = 1;
nodes = (
"567 1270 OFFCURVE",
"526 1323 OFFCURVE",
"526 1391 CURVE SMOOTH",
"526 1420 OFFCURVE",
"534 1449 OFFCURVE",
"549 1477 CURVE",
"629 1449 OFFCURVE",
"698 1367 OFFCURVE",
"698 1319 CURVE SMOOTH",
"698 1294 OFFCURVE",
"666 1270 OFFCURVE",
"635 1270 CURVE SMOOTH"
);
},
{
closed = 1;
nodes = (
"1362 989 LINE",
"1331 1082 OFFCURVE",
"1288 1128 OFFCURVE",
"1231 1128 CURVE SMOOTH",
"1188 1128 OFFCURVE",
"1138 1101 OFFCURVE",
"1081 1047 CURVE",
"1158 1020 OFFCURVE",
"1204 993 OFFCURVE",
"1223 942 CURVE"
);
},
{
closed = 1;
nodes = (
"975 1350 OFFCURVE",
"930 1400 OFFCURVE",
"930 1473 CURVE SMOOTH",
"930 1504 OFFCURVE",
"938 1532 OFFCURVE",
"954 1556 CURVE",
"1031 1529 OFFCURVE",
"1104 1446 OFFCURVE",
"1104 1399 CURVE SMOOTH",
"1104 1370 OFFCURVE",
"1073 1350 OFFCURVE",
"1038 1350 CURVE SMOOTH"
);
}
);
width = 2306;
}
);
note = g96;
},
{
glyphname = g97;
lastChange = "2016-11-10 14:31:18 +0000";
layers = (
{
layerId = "04B77939-8555-4652-993D-1D9FD1321E1B";
paths = (
{
closed = 1;
nodes = (
"520 0 LINE",
"520 27 OFFCURVE",
"534 106 OFFCURVE",
"561 238 CURVE",
"866 156 LINE",
"899 281 LINE",
"590 365 LINE",
"633 537 LINE",
"944 453 LINE",
"977 578 LINE",
"668 662 LINE",
"707 793 OFFCURVE",
"756 902 OFFCURVE",
"813 988 CURVE SMOOTH",
"928 1159 OFFCURVE",
"1075 1237 OFFCURVE",
"1346 1237 CURVE SMOOTH",
"1438 1237 OFFCURVE",
"1579 1167 OFFCURVE",
"1736 1055 CURVE SMOOTH",
"1892 942 OFFCURVE",
"2103 755 OFFCURVE",
"2246 602 CURVE SMOOTH",
"2317 525 OFFCURVE",
"2353 480 OFFCURVE",
"2353 467 CURVE SMOOTH",
"2353 434 OFFCURVE",
"2287 368 OFFCURVE",
"2230 348 CURVE",
"2165 378 OFFCURVE",
"2106 411 OFFCURVE",
"2053 447 CURVE SMOOTH",
"2000 482 OFFCURVE",
"1947 517 OFFCURVE",
"1894 551 CURVE",
"1798 539 OFFCURVE",
"1742 533 OFFCURVE",
"1727 532 CURVE SMOOTH",
"1712 531 OFFCURVE",
"1694 530 OFFCURVE",
"1673 530 CURVE SMOOTH",
"1545 530 OFFCURVE",
"1443 551 OFFCURVE",
"1368 592 CURVE",
"1343 699 OFFCURVE",
"1328 801 OFFCURVE",
"1323 899 CURVE",
"1262 899 OFFCURVE",
"1222 826 OFFCURVE",
"1222 709 CURVE SMOOTH",
"1222 537 OFFCURVE",
"1310 236 OFFCURVE",
"1430 0 CURVE",
"1581 0 LINE",
"1517 124 OFFCURVE",
"1456 284 OFFCURVE",
"1397 479 CURVE",
"1403 481 LINE",
"1435 424 OFFCURVE",
"1497 395 OFFCURVE",
"1642 395 CURVE SMOOTH",
"1705 395 LINE SMOOTH",
"1760 395 OFFCURVE",
"1808 399 OFFCURVE",
"1849 408 CURVE",
"1939 350 OFFCURVE",
"2009 309 OFFCURVE",
"2058 284 CURVE SMOOTH",
"2107 259 OFFCURVE",
"2146 246 OFFCURVE",
"2173 246 CURVE SMOOTH",
"2203 246 OFFCURVE",
"2232 256 OFFCURVE",
"2259 276 CURVE",
"2270 269 OFFCURVE",
"2283 266 OFFCURVE",
"2296 266 CURVE SMOOTH",
"2387 266 OFFCURVE",
"2490 387 OFFCURVE",
"2490 498 CURVE SMOOTH",
"2490 524 OFFCURVE",
"2441 590 OFFCURVE",
"2343 697 CURVE SMOOTH",
"2244 803 OFFCURVE",
"2136 905 OFFCURVE",
"2018 1003 CURVE SMOOTH",
"1782 1199 OFFCURVE",
"1576 1321 OFFCURVE",
"1432 1350 CURVE",
"1447 1370 OFFCURVE",
"1466 1392 OFFCURVE",
"1466 1415 CURVE SMOOTH",
"1466 1448 OFFCURVE",
"1451 1483 OFFCURVE",
"1422 1520 CURVE SMOOTH",
"1363 1595 OFFCURVE",
"1242 1672 OFFCURVE",
"1178 1679 CURVE",
"1108 1622 OFFCURVE",
"1073 1548 OFFCURVE",
"1073 1458 CURVE SMOOTH",
"1073 1411 OFFCURVE",
"1091 1370 OFFCURVE",
"1128 1337 CURVE",
"1095 1332 OFFCURVE",
"1072 1327 OFFCURVE",
"1059 1323 CURVE",
"1061 1335 LINE",
"1061 1368 OFFCURVE",
"1047 1403 OFFCURVE",
"1018 1440 CURVE SMOOTH",
"960 1515 OFFCURVE",
"837 1592 OFFCURVE",
"772 1599 CURVE",
"703 1542 OFFCURVE",
"668 1468 OFFCURVE",
"668 1378 CURVE SMOOTH",
"668 1266 OFFCURVE",
"729 1203 OFFCURVE",
"825 1192 CURVE",
"775 1146 OFFCURVE",
"730 1091 OFFCURVE",
"690 1028 CURVE",
"676 1039 OFFCURVE",
"661 1050 OFFCURVE",
"644 1059 CURVE SMOOTH",
"627 1068 OFFCURVE",
"612 1076 OFFCURVE",
"598 1085 CURVE",
"569 1102 OFFCURVE",
"547 1119 OFFCURVE",
"547 1139 CURVE SMOOTH",
"547 1160 OFFCURVE",
"572 1193 OFFCURVE",
"621 1237 CURVE",
"584 1250 OFFCURVE",
"553 1257 OFFCURVE",
"530 1257 CURVE SMOOTH",
"454 1257 OFFCURVE",
"410 1201 OFFCURVE",
"410 1130 CURVE SMOOTH",
"410 1087 OFFCURVE",
"441 1054 OFFCURVE",
"506 1017 CURVE SMOOTH",
"546 994 OFFCURVE",
"572 977 OFFCURVE",
"584 966 CURVE SMOOTH",
"596 955 OFFCURVE",
"602 943 OFFCURVE",
"602 932 CURVE SMOOTH",
"602 892 OFFCURVE",
"580 846 OFFCURVE",
"543 786 CURVE",
"575 786 LINE",
"547 694 LINE",
"248 772 LINE",
"215 647 LINE",
"512 569 LINE",
"497 521 OFFCURVE",
"482 464 OFFCURVE",
"467 397 CURVE",
"170 475 LINE",
"135 350 LINE",
"436 272 LINE",
"403 125 OFFCURVE",
"387 34 OFFCURVE",
"387 0 CURVE"
);
},
{
closed = 1;
nodes = (
"819 1270 OFFCURVE",
"778 1323 OFFCURVE",
"778 1391 CURVE SMOOTH",
"778 1420 OFFCURVE",
"786 1449 OFFCURVE",
"801 1477 CURVE",
"881 1449 OFFCURVE",
"950 1367 OFFCURVE",
"950 1319 CURVE SMOOTH",
"950 1298 OFFCURVE",
"910 1270 OFFCURVE",
"887 1270 CURVE SMOOTH"
);
},
{
closed = 1;
nodes = (
"1506 942 OFFCURVE",
"1556 969 OFFCURVE",
"1614 1024 CURVE",
"1533 1052 OFFCURVE",
"1486 1087 OFFCURVE",
"1473 1128 CURVE",
"1333 1081 LINE",
"1364 988 OFFCURVE",
"1407 942 OFFCURVE",
"1464 942 CURVE SMOOTH"
);
},
{
closed = 1;
nodes = (
"1227 1350 OFFCURVE",
"1182 1400 OFFCURVE",
"1182 1473 CURVE SMOOTH",
"1182 1504 OFFCURVE",
"1190 1532 OFFCURVE",
"1206 1556 CURVE",
"1283 1529 OFFCURVE",
"1356 1446 OFFCURVE",
"1356 1399 CURVE SMOOTH",
"1356 1374 OFFCURVE",
"1318 1350 OFFCURVE",
"1290 1350 CURVE SMOOTH"
);
}
);
width = 2558;
}
);
note = g97;
},
{
glyphname = g98;
lastChange = "2016-11-10 14:31:18 +0000";
layers = (
{
layerId = "04B77939-8555-4652-993D-1D9FD1321E1B";
paths = (
{
closed = 1;
nodes = (
"743 0 LINE",
"775 315 OFFCURVE",
"836 666 OFFCURVE",
"893 864 CURVE SMOOTH",
"921 963 OFFCURVE",
"944 1012 OFFCURVE",
"963 1012 CURVE SMOOTH",
"978 1012 OFFCURVE",
"999 959 OFFCURVE",
"1028 854 CURVE SMOOTH",
"1085 642 OFFCURVE",
"1153 253 OFFCURVE",
"1180 0 CURVE",
"1321 0 LINE",
"1273 409 OFFCURVE",
"1187 866 OFFCURVE",
"1108 1031 CURVE SMOOTH",
"1069 1114 OFFCURVE",
"1020 1155 OFFCURVE",
"963 1155 CURVE SMOOTH",
"878 1155 OFFCURVE",
"824 1082 OFFCURVE",
"770 899 CURVE SMOOTH",
"716 716 OFFCURVE",
"650 344 OFFCURVE",
"606 0 CURVE"
);
},
{
closed = 1;
nodes = (
"1339 1192 LINE",
"1214 1296 LINE SMOOTH",
"1123 1375 OFFCURVE",
"1047 1407 OFFCURVE",
"954 1407 CURVE SMOOTH",
"899 1407 OFFCURVE",
"835 1380 OFFCURVE",
"748 1327 CURVE SMOOTH",
"660 1274 OFFCURVE",
"581 1247 OFFCURVE",
"510 1247 CURVE SMOOTH",
"389 1247 OFFCURVE",
"338 1332 OFFCURVE",
"338 1503 CURVE",
"1438 1503 LINE",
"1438 1632 LINE",
"68 1632 LINE",
"68 1503 LINE",
"195 1503 LINE",
"195 1417 OFFCURVE",
"206 1345 OFFCURVE",
"227 1288 CURVE SMOOTH",
"269 1173 OFFCURVE",
"353 1118 OFFCURVE",
"516 1118 CURVE SMOOTH",
"601 1118 OFFCURVE",
"684 1158 OFFCURVE",
"759 1198 CURVE SMOOTH",
"834 1238 OFFCURVE",
"901 1278 OFFCURVE",
"954 1278 CURVE SMOOTH",
"1018 1278 OFFCURVE",
"1062 1257 OFFCURVE",
"1145 1186 CURVE SMOOTH",
"1245 1096 LINE"
);
}
);
width = 1618;
}
);
note = g98;
},
{
glyphname = g99;
lastChange = "2016-11-10 14:31:18 +0000";
layers = (
{
layerId = "04B77939-8555-4652-993D-1D9FD1321E1B";
paths = (
{
closed = 1;
nodes = (
"1034 0 LINE",
"1034 461 LINE",
"1296 461 LINE",
"1296 590 LINE",
"1034 590 LINE",
"1034 768 LINE",
"1296 768 LINE",
"1296 897 LINE",
"1034 897 LINE",
"1034 1116 LINE",
"891 1116 LINE",
"891 897 LINE",
"631 897 LINE",
"631 768 LINE",
"891 768 LINE",
"891 590 LINE",
"631 590 LINE",
"631 461 LINE",
"891 461 LINE",
"891 0 LINE"
);
},
{
closed = 1;
nodes = (
"1339 1192 LINE",
"1214 1296 LINE SMOOTH",
"1123 1375 OFFCURVE",
"1047 1407 OFFCURVE",
"954 1407 CURVE SMOOTH",
"899 1407 OFFCURVE",
"835 1380 OFFCURVE",
"748 1327 CURVE SMOOTH",
"660 1274 OFFCURVE",
"581 1247 OFFCURVE",
"510 1247 CURVE SMOOTH",
"389 1247 OFFCURVE",
"338 1332 OFFCURVE",
"338 1503 CURVE",
"1438 1503 LINE",
"1438 1632 LINE",
"68 1632 LINE",
"68 1503 LINE",
"195 1503 LINE",
"195 1417 OFFCURVE",
"206 1345 OFFCURVE",
"227 1288 CURVE SMOOTH",
"269 1173 OFFCURVE",
"353 1118 OFFCURVE",
"516 1118 CURVE SMOOTH",
"601 1118 OFFCURVE",
"684 1158 OFFCURVE",
"759 1198 CURVE SMOOTH",
"834 1238 OFFCURVE",
"901 1278 OFFCURVE",
"954 1278 CURVE SMOOTH",
"1018 1278 OFFCURVE",
"1062 1257 OFFCURVE",
"1145 1186 CURVE SMOOTH",
"1245 1096 LINE"
);
}
);
width = 1618;
}
);
note = g99;
},
{
glyphname = g100;
lastChange = "2016-11-10 14:31:18 +0000";
layers = (
{
layerId = "04B77939-8555-4652-993D-1D9FD1321E1B";
paths = (
{
closed = 1;
nodes = (
"795 0 LINE",
"825 301 OFFCURVE",
"863 579 OFFCURVE",
"908 834 CURVE SMOOTH",
"953 1089 OFFCURVE",
"988 1217 OFFCURVE",
"1014 1217 CURVE SMOOTH",
"1058 1217 OFFCURVE",
"1188 431 OFFCURVE",
"1231 0 CURVE",
"1372 0 LINE",
"1335 320 OFFCURVE",
"1213 986 OFFCURVE",
"1170 1141 CURVE SMOOTH",
"1149 1218 OFFCURVE",
"1126 1274 OFFCURVE",
"1102 1309 CURVE SMOOTH",
"1078 1343 OFFCURVE",
"1049 1360 OFFCURVE",
"1014 1360 CURVE SMOOTH",
"971 1360 OFFCURVE",
"934 1325 OFFCURVE",
"903 1256 CURVE SMOOTH",
"872 1186 OFFCURVE",
"837 1053 OFFCURVE",
"799 856 CURVE SMOOTH",
"723 463 OFFCURVE",
"681 185 OFFCURVE",
"657 0 CURVE"
);
},
{
closed = 1;
nodes = (
"358 1399 LINE SMOOTH",
"415 1450 OFFCURVE",
"452 1493 OFFCURVE",
"469 1528 CURVE",
"475 1519 LINE",
"492 1488 OFFCURVE",
"526 1449 OFFCURVE",
"575 1403 CURVE SMOOTH",
"774 1225 LINE",
"872 1331 LINE",
"520 1640 LINE",
"420 1640 LINE",
"68 1331 LINE",
"166 1225 LINE"
);
},
{
closed = 1;
nodes = (
"1577 1235 LINE",
"1544 1242 OFFCURVE",
"1515 1260 OFFCURVE",
"1490 1287 CURVE SMOOTH",
"1465 1314 OFFCURVE",
"1427 1369 OFFCURVE",
"1377 1452 CURVE SMOOTH",
"1302 1576 OFFCURVE",
"1192 1638 OFFCURVE",
"1047 1638 CURVE",
"1047 1509 LINE",
"1159 1509 OFFCURVE",
"1226 1457 OFFCURVE",
"1289 1334 CURVE SMOOTH",
"1353 1206 OFFCURVE",
"1424 1137 OFFCURVE",
"1536 1114 CURVE"
);
}
);
width = 1645;
}
);
note = g100;
},
{
glyphname = g101;
lastChange = "2016-11-10 14:31:18 +0000";
layers = (
{
layerId = "04B77939-8555-4652-993D-1D9FD1321E1B";
paths = (
{
closed = 1;
nodes = (
"1047 0 LINE",
"1047 461 LINE",
"1296 461 LINE",
"1296 590 LINE",
"1047 590 LINE",
"1047 768 LINE",
"1296 768 LINE",
"1296 897 LINE",
"1047 897 LINE",
"1047 1509 LINE",
"1159 1509 OFFCURVE",
"1226 1457 OFFCURVE",
"1289 1334 CURVE SMOOTH",
"1353 1206 OFFCURVE",
"1424 1137 OFFCURVE",
"1536 1114 CURVE",
"1577 1235 LINE",
"1544 1242 OFFCURVE",
"1515 1260 OFFCURVE",
"1490 1287 CURVE SMOOTH",
"1465 1314 OFFCURVE",
"1427 1369 OFFCURVE",
"1377 1452 CURVE SMOOTH",
"1302 1576 OFFCURVE",
"1192 1638 OFFCURVE",
"1047 1638 CURVE SMOOTH",
"903 1638 LINE",
"903 897 LINE",
"651 897 LINE",
"651 768 LINE",
"903 768 LINE",
"903 590 LINE",
"651 590 LINE",
"651 461 LINE",
"903 461 LINE",
"903 0 LINE"
);
},
{
closed = 1;
nodes = (
"358 1399 LINE SMOOTH",
"415 1450 OFFCURVE",
"452 1493 OFFCURVE",
"469 1528 CURVE",
"475 1519 LINE",
"492 1488 OFFCURVE",
"526 1449 OFFCURVE",
"575 1403 CURVE SMOOTH",
"774 1225 LINE",
"872 1331 LINE",
"520 1640 LINE",
"420 1640 LINE",
"68 1331 LINE",
"166 1225 LINE"
);
}
);
width = 1645;
}
);
note = g101;
},
{
glyphname = g102;
lastChange = "2016-11-10 14:31:18 +0000";
layers = (
{
layerId = "04B77939-8555-4652-993D-1D9FD1321E1B";
paths = (
{
closed = 1;
nodes = (
"295 0 LINE",
"360 431 OFFCURVE",
"433 647 OFFCURVE",
"514 647 CURVE SMOOTH",
"542 647 OFFCURVE",
"570 622 OFFCURVE",
"598 572 CURVE SMOOTH",
"654 471 OFFCURVE",
"704 271 OFFCURVE",
"731 0 CURVE",
"870 0 LINE",
"863 79 OFFCURVE",
"853 159 OFFCURVE",
"838 240 CURVE SMOOTH",
"808 403 OFFCURVE",
"766 559 OFFCURVE",
"735 617 CURVE SMOOTH",
"703 675 OFFCURVE",
"659 713 OFFCURVE",
"580 745 CURVE",
"582 752 LINE",
"650 730 OFFCURVE",
"726 715 OFFCURVE",
"811 707 CURVE SMOOTH",
"1016 688 LINE SMOOTH",
"1087 683 OFFCURVE",
"1138 680 OFFCURVE",
"1169 680 CURVE SMOOTH",
"1256 680 OFFCURVE",
"1308 722 OFFCURVE",
"1341 805 CURVE",
"1420 820 OFFCURVE",
"1434 844 OFFCURVE",
"1460 923 CURVE SMOOTH",
"1473 962 OFFCURVE",
"1490 1029 OFFCURVE",
"1511 1122 CURVE",
"1437 1118 OFFCURVE",
"1368 1116 OFFCURVE",
"1303 1116 CURVE SMOOTH",
"1266 1116 OFFCURVE",
"1203 1139 OFFCURVE",
"1114 1185 CURVE SMOOTH",
"1023 1232 OFFCURVE",
"959 1258 OFFCURVE",
"924 1262 CURVE SMOOTH",
"582 1294 LINE",
"581 1384 OFFCURVE",
"571 1455 OFFCURVE",
"552 1508 CURVE SMOOTH",
"512 1613 OFFCURVE",
"437 1659 OFFCURVE",
"276 1659 CURVE SMOOTH",
"189 1659 OFFCURVE",
"156 1614 OFFCURVE",
"156 1530 CURVE SMOOTH",
"156 1334 OFFCURVE",
"249 1223 OFFCURVE",
"444 1184 CURVE",
"444 772 LINE",
"396 748 OFFCURVE",
"338 669 OFFCURVE",
"298 570 CURVE SMOOTH",
"257 471 OFFCURVE",
"185 179 OFFCURVE",
"162 0 CURVE"
);
},
{
closed = 1;
nodes = (
"341 1350 OFFCURVE",
"289 1400 OFFCURVE",
"289 1487 CURVE SMOOTH",
"289 1517 OFFCURVE",
"301 1532 OFFCURVE",
"326 1532 CURVE SMOOTH",
"410 1532 OFFCURVE",
"441 1470 OFFCURVE",
"444 1317 CURVE"
);
},
{
closed = 1;
nodes = (
"1004 817 LINE",
"582 856 LINE",
"582 1167 LINE",
"807 1147 LINE",
"807 1139 LINE",
"713 1114 LINE",
"718 1078 OFFCURVE",
"725 1052 OFFCURVE",
"733 1036 CURVE SMOOTH",
"748 1004 OFFCURVE",
"772 985 OFFCURVE",
"803 985 CURVE SMOOTH",
"838 985 OFFCURVE",
"885 1014 OFFCURVE",
"946 1071 CURVE",
"901 1085 OFFCURVE",
"871 1108 OFFCURVE",
"856 1139 CURVE",
"899 1135 LINE SMOOTH",
"972 1127 OFFCURVE",
"1031 1097 OFFCURVE",
"1087 1066 CURVE SMOOTH",
"1142 1034 OFFCURVE",
"1195 1004 OFFCURVE",
"1260 993 CURVE",
"1321 986 LINE",
"1337 985 LINE",
"1325 936 OFFCURVE",
"1309 895 OFFCURVE",
"1290 862 CURVE",
"1204 862 LINE",
"1193 823 OFFCURVE",
"1171 809 OFFCURVE",
"1122 809 CURVE"
);
}
);
width = 1599;
}
);
note = g102;
},
{
glyphname = g103;
lastChange = "2016-11-10 14:31:18 +0000";
layers = (
{
layerId = "04B77939-8555-4652-993D-1D9FD1321E1B";
paths = (
{
closed = 1;
nodes = (
"567 0 LINE",
"567 158 LINE",
"838 158 LINE",
"838 287 LINE",
"567 287 LINE",
"567 465 LINE",
"838 465 LINE",
"838 594 LINE",
"567 594 LINE",
"567 725 LINE",
"995 688 LINE SMOOTH",
"1068 683 OFFCURVE",
"1119 680 OFFCURVE",
"1149 680 CURVE SMOOTH",
"1236 680 OFFCURVE",
"1288 722 OFFCURVE",
"1321 805 CURVE",
"1397 820 OFFCURVE",
"1412 844 OFFCURVE",
"1436 911 CURVE SMOOTH",
"1447 944 OFFCURVE",
"1466 1015 OFFCURVE",
"1491 1122 CURVE",
"1417 1118 OFFCURVE",
"1347 1116 OFFCURVE",
"1282 1116 CURVE SMOOTH",
"1263 1116 OFFCURVE",
"1240 1121 OFFCURVE",
"1212 1131 CURVE SMOOTH",
"1184 1141 OFFCURVE",
"1145 1159 OFFCURVE",
"1094 1185 CURVE SMOOTH",
"1001 1232 OFFCURVE",
"937 1258 OFFCURVE",
"903 1262 CURVE SMOOTH",
"567 1294 LINE",
"566 1385 OFFCURVE",
"555 1457 OFFCURVE",
"534 1510 CURVE SMOOTH",
"493 1614 OFFCURVE",
"416 1659 OFFCURVE",
"256 1659 CURVE SMOOTH",
"169 1659 OFFCURVE",
"135 1614 OFFCURVE",
"135 1530 CURVE SMOOTH",
"135 1334 OFFCURVE",
"228 1221 OFFCURVE",
"424 1184 CURVE",
"424 594 LINE",
"172 594 LINE",
"172 465 LINE",
"424 465 LINE",
"424 287 LINE",
"172 287 LINE",
"172 158 LINE",
"424 158 LINE",
"424 0 LINE"
);
},
{
closed = 1;
nodes = (
"321 1350 OFFCURVE",
"268 1400 OFFCURVE",
"268 1487 CURVE SMOOTH",
"268 1517 OFFCURVE",
"280 1532 OFFCURVE",
"305 1532 CURVE SMOOTH",
"388 1532 OFFCURVE",
"421 1473 OFFCURVE",
"424 1317 CURVE"
);
},
{
closed = 1;
nodes = (
"983 817 LINE",
"567 856 LINE",
"567 1167 LINE",
"786 1147 LINE",
"786 1139 LINE",
"692 1114 LINE",
"697 1078 OFFCURVE",
"704 1052 OFFCURVE",
"712 1036 CURVE SMOOTH",
"727 1004 OFFCURVE",
"751 985 OFFCURVE",
"782 985 CURVE SMOOTH",
"817 985 OFFCURVE",
"865 1014 OFFCURVE",
"926 1071 CURVE",
"881 1085 OFFCURVE",
"851 1108 OFFCURVE",
"836 1139 CURVE",
"947 1130 OFFCURVE",
"983 1113 OFFCURVE",
"1066 1066 CURVE SMOOTH",
"1195 991 OFFCURVE",
"1253 985 OFFCURVE",
"1317 985 CURVE",
"1306 941 OFFCURVE",
"1291 900 OFFCURVE",
"1270 862 CURVE",
"1184 862 LINE",
"1173 823 OFFCURVE",
"1151 809 OFFCURVE",
"1102 809 CURVE"
);
}
);
width = 1561;
}
);
note = g103;
},
{
glyphname = g104;
lastChange = "2016-11-10 14:31:18 +0000";
layers = (
{
layerId = "04B77939-8555-4652-993D-1D9FD1321E1B";
paths = (
{
closed = 1;
nodes = (
"276 0 LINE",
"307 309 OFFCURVE",
"368 664 OFFCURVE",
"425 863 CURVE SMOOTH",
"454 962 OFFCURVE",
"477 1012 OFFCURVE",
"496 1012 CURVE SMOOTH",
"511 1012 OFFCURVE",
"532 959 OFFCURVE",
"561 854 CURVE SMOOTH",
"618 642 OFFCURVE",
"686 253 OFFCURVE",
"713 0 CURVE",
"854 0 LINE",
"817 320 OFFCURVE",
"749 710 OFFCURVE",
"681 919 CURVE SMOOTH",
"647 1023 OFFCURVE",
"611 1086 OFFCURVE",
"573 1108 CURVE",
"573 1116 LINE",
"1092 1116 LINE",
"1092 803 LINE",
"969 803 LINE",
"969 674 LINE",
"1362 674 LINE",
"1362 803 LINE",
"1235 803 LINE",
"1235 1509 LINE",
"1436 1509 LINE",
"1436 1638 LINE",
"1092 1638 LINE",
"1092 1245 LINE",
"565 1245 LINE",
"565 1311 LINE SMOOTH",
"565 1394 OFFCURVE",
"557 1460 OFFCURVE",
"540 1511 CURVE SMOOTH",
"506 1612 OFFCURVE",
"445 1659 OFFCURVE",
"328 1659 CURVE SMOOTH",
"199 1659 OFFCURVE",
"113 1565 OFFCURVE",
"113 1425 CURVE SMOOTH",
"113 1368 OFFCURVE",
"127 1316 OFFCURVE",
"154 1270 CURVE SMOOTH",
"208 1177 OFFCURVE",
"308 1120 OFFCURVE",
"416 1116 CURVE",
"416 1108 LINE",
"379 1087 OFFCURVE",
"344 1028 OFFCURVE",
"313 931 CURVE SMOOTH",
"250 738 OFFCURVE",
"184 356 OFFCURVE",
"139 0 CURVE"
);
},
{
closed = 1;
nodes = (
"318 1245 OFFCURVE",
"246 1307 OFFCURVE",
"246 1411 CURVE SMOOTH",
"246 1492 OFFCURVE",
"275 1532 OFFCURVE",
"334 1532 CURVE SMOOTH",
"393 1532 OFFCURVE",
"422 1458 OFFCURVE",
"422 1311 CURVE SMOOTH",
"422 1245 LINE"
);
}
);
width = 1561;
}
);
note = g104;
},
{
glyphname = g105;
lastChange = "2016-11-10 14:31:18 +0000";
layers = (
{
layerId = "04B77939-8555-4652-993D-1D9FD1321E1B";
paths = (
{
closed = 1;
nodes = (
"565 0 LINE",
"565 461 LINE",
"827 461 LINE",
"827 590 LINE",
"565 590 LINE",
"565 768 LINE",
"827 768 LINE",
"827 897 LINE",
"565 897 LINE",
"565 1116 LINE",
"1092 1116 LINE",
"1092 803 LINE",
"969 803 LINE",
"969 674 LINE",
"1362 674 LINE",
"1362 803 LINE",
"1235 803 LINE",
"1235 1509 LINE",
"1436 1509 LINE",
"1436 1638 LINE",
"1092 1638 LINE",
"1092 1245 LINE",
"565 1245 LINE",
"565 1311 LINE SMOOTH",
"565 1394 OFFCURVE",
"557 1460 OFFCURVE",
"540 1511 CURVE SMOOTH",
"506 1612 OFFCURVE",
"445 1659 OFFCURVE",
"328 1659 CURVE SMOOTH",
"199 1659 OFFCURVE",
"113 1565 OFFCURVE",
"113 1425 CURVE SMOOTH",
"113 1364 OFFCURVE",
"127 1311 OFFCURVE",
"155 1264 CURVE SMOOTH",
"210 1170 OFFCURVE",
"310 1116 OFFCURVE",
"422 1116 CURVE",
"422 897 LINE",
"162 897 LINE",
"162 768 LINE",
"422 768 LINE",
"422 590 LINE",
"162 590 LINE",
"162 461 LINE",
"422 461 LINE",
"422 0 LINE"
);
},
{
closed = 1;
nodes = (
"318 1245 OFFCURVE",
"246 1307 OFFCURVE",
"246 1411 CURVE SMOOTH",
"246 1492 OFFCURVE",
"275 1532 OFFCURVE",
"334 1532 CURVE SMOOTH",
"393 1532 OFFCURVE",
"422 1458 OFFCURVE",
"422 1311 CURVE SMOOTH",
"422 1245 LINE"
);
}
);
width = 1561;
}
);
note = g105;
},
{
glyphname = g106;
lastChange = "2016-11-10 14:31:18 +0000";
layers = (
{
layerId = "04B77939-8555-4652-993D-1D9FD1321E1B";
paths = (
{
closed = 1;
nodes = (
"809 0 LINE",
"809 774 LINE",
"1403 774 LINE",
"1403 903 LINE",
"1272 903 LINE",
"1272 1004 LINE SMOOTH",
"1272 1092 OFFCURVE",
"1233 1174 OFFCURVE",
"1149 1274 CURVE SMOOTH",
"1048 1393 OFFCURVE",
"1018 1445 OFFCURVE",
"1014 1509 CURVE",
"1178 1509 LINE",
"1178 1638 LINE",
"297 1638 LINE",
"297 1509 LINE",
"461 1509 LINE",
"456 1445 OFFCURVE",
"419 1385 OFFCURVE",
"326 1274 CURVE SMOOTH",
"246 1179 OFFCURVE",
"203 1092 OFFCURVE",
"203 1004 CURVE SMOOTH",
"203 903 LINE",
"72 903 LINE",
"72 774 LINE",
"666 774 LINE",
"666 0 LINE"
);
},
{
closed = 1;
nodes = (
"346 1004 LINE SMOOTH",
"346 1061 OFFCURVE",
"381 1126 OFFCURVE",
"470 1238 CURVE SMOOTH",
"555 1346 OFFCURVE",
"597 1429 OFFCURVE",
"604 1509 CURVE",
"666 1509 LINE",
"666 903 LINE",
"346 903 LINE"
);
},
{
closed = 1;
nodes = (
"809 1509 LINE",
"870 1509 LINE",
"875 1435 OFFCURVE",
"919 1345 OFFCURVE",
"1004 1238 CURVE SMOOTH",
"1051 1178 OFFCURVE",
"1084 1131 OFFCURVE",
"1102 1097 CURVE SMOOTH",
"1119 1063 OFFCURVE",
"1128 1032 OFFCURVE",
"1128 1004 CURVE SMOOTH",
"1128 903 LINE",
"809 903 LINE"
);
}
);
width = 1475;
}
);
note = g106;
},
{
glyphname = g107;
lastChange = "2016-11-10 14:31:18 +0000";
layers = (
{
layerId = "04B77939-8555-4652-993D-1D9FD1321E1B";
paths = (
{
closed = 1;
nodes = (
"983 0 LINE",
"983 1487 LINE SMOOTH",
"983 1574 OFFCURVE",
"914 1638 OFFCURVE",
"817 1638 CURVE SMOOTH",
"369 1638 LINE",
"369 1509 LINE",
"840 1509 LINE",
"840 1214 LINE",
"496 1214 LINE SMOOTH",
"325 1214 OFFCURVE",
"246 1353 OFFCURVE",
"246 1638 CURVE",
"102 1638 LINE",
"105 1258 OFFCURVE",
"225 1085 OFFCURVE",
"502 1085 CURVE SMOOTH",
"840 1085 LINE",
"840 0 LINE"
);
}
);
width = 1208;
}
);
note = g107;
},
{
glyphname = g108;
lastChange = "2016-11-10 14:31:18 +0000";
layers = (
{
layerId = "04B77939-8555-4652-993D-1D9FD1321E1B";
paths = (
{
closed = 1;
nodes = (
"954 0 LINE",
"954 637 LINE SMOOTH",
"954 712 OFFCURVE",
"997 758 OFFCURVE",
"1106 803 CURVE SMOOTH",
"1203 844 OFFCURVE",
"1272 882 OFFCURVE",
"1312 917 CURVE SMOOTH",
"1392 988 OFFCURVE",
"1434 1090 OFFCURVE",
"1434 1233 CURVE SMOOTH",
"1434 1432 LINE SMOOTH",
"1434 1592 OFFCURVE",
"1373 1679 OFFCURVE",
"1257 1679 CURVE SMOOTH",
"1140 1679 OFFCURVE",
"1081 1589 OFFCURVE",
"1081 1432 CURVE SMOOTH",
"1081 1341 LINE SMOOTH",
"1081 1309 OFFCURVE",
"1080 1284 OFFCURVE",
"1077 1266 CURVE SMOOTH",
"1071 1229 OFFCURVE",
"1062 1214 OFFCURVE",
"1026 1214 CURVE SMOOTH",
"994 1214 OFFCURVE",
"984 1231 OFFCURVE",
"979 1267 CURVE",
"976 1284 OFFCURVE",
"975 1309 OFFCURVE",
"975 1341 CURVE SMOOTH",
"975 1432 LINE SMOOTH",
"975 1592 OFFCURVE",
"914 1679 OFFCURVE",
"799 1679 CURVE SMOOTH",
"682 1679 OFFCURVE",
"623 1589 OFFCURVE",
"623 1432 CURVE SMOOTH",
"623 1341 LINE SMOOTH",
"623 1308 OFFCURVE",
"621 1282 OFFCURVE",
"618 1264 CURVE SMOOTH",
"611 1228 OFFCURVE",
"602 1214 OFFCURVE",
"567 1214 CURVE SMOOTH",
"536 1214 OFFCURVE",
"527 1230 OFFCURVE",
"521 1266 CURVE SMOOTH",
"518 1283 OFFCURVE",
"516 1308 OFFCURVE",
"516 1341 CURVE SMOOTH",
"516 1432 LINE SMOOTH",
"516 1592 OFFCURVE",
"456 1679 OFFCURVE",
"340 1679 CURVE SMOOTH",
"223 1679 OFFCURVE",
"164 1589 OFFCURVE",
"164 1432 CURVE SMOOTH",
"164 1149 LINE SMOOTH",
"164 990 OFFCURVE",
"223 901 OFFCURVE",
"340 901 CURVE SMOOTH",
"352 901 LINE",
"348 1020 LINE",
"338 1020 LINE SMOOTH",
"306 1020 OFFCURVE",
"296 1037 OFFCURVE",
"291 1072 CURVE SMOOTH",
"288 1089 OFFCURVE",
"287 1114 OFFCURVE",
"287 1147 CURVE SMOOTH",
"287 1434 LINE SMOOTH",
"287 1482 OFFCURVE",
"291 1515 OFFCURVE",
"298 1534 CURVE SMOOTH",
"305 1552 OFFCURVE",
"318 1561 OFFCURVE",
"338 1561 CURVE SMOOTH",
"361 1561 OFFCURVE",
"376 1552 OFFCURVE",
"383 1533 CURVE SMOOTH",
"390 1514 OFFCURVE",
"393 1481 OFFCURVE",
"393 1434 CURVE SMOOTH",
"393 1343 LINE SMOOTH",
"393 1186 OFFCURVE",
"452 1096 OFFCURVE",
"569 1096 CURVE SMOOTH",
"685 1096 OFFCURVE",
"745 1183 OFFCURVE",
"745 1343 CURVE SMOOTH",
"745 1434 LINE SMOOTH",
"745 1466 OFFCURVE",
"747 1491 OFFCURVE",
"750 1510 CURVE SMOOTH",
"757 1547 OFFCURVE",
"766 1561 OFFCURVE",
"797 1561 CURVE SMOOTH",
"820 1561 OFFCURVE",
"835 1551 OFFCURVE",
"842 1531 CURVE SMOOTH",
"849 1511 OFFCURVE",
"852 1479 OFFCURVE",
"852 1434 CURVE SMOOTH",
"852 1343 LINE SMOOTH",
"852 1186 OFFCURVE",
"911 1096 OFFCURVE",
"1028 1096 CURVE SMOOTH",
"1144 1096 OFFCURVE",
"1204 1183 OFFCURVE",
"1204 1343 CURVE SMOOTH",
"1204 1434 LINE SMOOTH",
"1204 1482 OFFCURVE",
"1208 1515 OFFCURVE",
"1215 1534 CURVE SMOOTH",
"1222 1552 OFFCURVE",
"1235 1561 OFFCURVE",
"1255 1561 CURVE SMOOTH",
"1278 1561 OFFCURVE",
"1294 1551 OFFCURVE",
"1301 1531 CURVE SMOOTH",
"1308 1511 OFFCURVE",
"1311 1479 OFFCURVE",
"1311 1434 CURVE SMOOTH",
"1311 1231 LINE SMOOTH",
"1311 1135 OFFCURVE",
"1280 1071 OFFCURVE",
"1233 1024 CURVE SMOOTH",
"1186 976 OFFCURVE",
"1124 946 OFFCURVE",
"1061 916 CURVE SMOOTH",
"998 886 OFFCURVE",
"936 857 OFFCURVE",
"889 816 CURVE SMOOTH",
"842 775 OFFCURVE",
"811 719 OFFCURVE",
"811 635 CURVE SMOOTH",
"811 0 LINE"
);
}
);
width = 1597;
}
);
note = g108;
},
{
glyphname = g109;
lastChange = "2016-11-10 14:31:18 +0000";
layers = (
{
layerId = "04B77939-8555-4652-993D-1D9FD1321E1B";
paths = (
{
closed = 1;
nodes = (
"1321 0 LINE",
"1321 1198 LINE",
"862 1653 LINE",
"401 1198 LINE",
"401 948 LINE",
"214 944 OFFCURVE",
"102 870 OFFCURVE",
"102 743 CURVE SMOOTH",
"102 685 OFFCURVE",
"130 637 OFFCURVE",
"185 599 CURVE SMOOTH",
"245 558 OFFCURVE",
"268 533 OFFCURVE",
"268 500 CURVE SMOOTH",
"268 436 OFFCURVE",
"225 412 OFFCURVE",
"156 403 CURVE",
"158 281 LINE",
"293 293 OFFCURVE",
"380 350 OFFCURVE",
"401 449 CURVE",
"401 0 LINE"
);
},
{
closed = 1;
nodes = (
"389 584 OFFCURVE",
"349 614 OFFCURVE",
"311 640 CURVE SMOOTH",
"273 666 OFFCURVE",
"238 688 OFFCURVE",
"238 731 CURVE SMOOTH",
"238 788 OFFCURVE",
"292 818 OFFCURVE",
"401 823 CURVE",
"401 528 LINE"
);
},
{
closed = 1;
nodes = (
"545 623 LINE",
"1178 623 LINE",
"1178 129 LINE",
"545 129 LINE"
);
},
{
closed = 1;
nodes = (
"545 1069 LINE",
"1178 1069 LINE",
"1178 752 LINE",
"545 752 LINE"
);
},
{
closed = 1;
nodes = (
"860 1477 LINE",
"1151 1198 LINE",
"571 1198 LINE"
);
}
);
width = 1546;
}
);
note = g109;
},
{
glyphname = g110;
lastChange = "2016-11-10 14:31:18 +0000";
layers = (
{
layerId = "04B77939-8555-4652-993D-1D9FD1321E1B";
paths = (
{
closed = 1;
nodes = (
"369 0 LINE",
"369 793 LINE",
"563 793 LINE SMOOTH",
"840 793 OFFCURVE",
"960 966 OFFCURVE",
"963 1346 CURVE",
"819 1346 LINE",
"819 1058 OFFCURVE",
"741 922 OFFCURVE",
"569 922 CURVE SMOOTH",
"383 922 LINE",
"404 973 OFFCURVE",
"446 1005 OFFCURVE",
"492 1044 CURVE SMOOTH",
"538 1083 OFFCURVE",
"588 1125 OFFCURVE",
"628 1193 CURVE SMOOTH",
"667 1261 OFFCURVE",
"694 1356 OFFCURVE",
"694 1497 CURVE SMOOTH",
"694 1638 LINE",
"571 1638 LINE",
"571 1495 LINE SMOOTH",
"571 1444 OFFCURVE",
"565 1401 OFFCURVE",
"554 1364 CURVE SMOOTH",
"531 1290 OFFCURVE",
"509 1247 OFFCURVE",
"398 1150 CURVE SMOOTH",
"391 1144 OFFCURVE",
"369 1125 OFFCURVE",
"334 1094 CURVE SMOOTH",
"262 1030 OFFCURVE",
"225 945 OFFCURVE",
"225 840 CURVE SMOOTH",
"225 0 LINE"
);
}
);
width = 1065;
}
);
note = g110;
},
{
glyphname = g111;
lastChange = "2016-11-10 14:31:18 +0000";
layers = (
{
layerId = "04B77939-8555-4652-993D-1D9FD1321E1B";
paths = (
{
closed = 1;
nodes = (
"639 -41 OFFCURVE",
"715 -21 OFFCURVE",
"786 18 CURVE SMOOTH",
"926 97 OFFCURVE",
"1012 242 OFFCURVE",
"1012 401 CURVE SMOOTH",
"1012 622 OFFCURVE",
"848 806 OFFCURVE",
"629 838 CURVE",
"629 1202 LINE",
"287 1202 LINE",
"287 1509 LINE",
"629 1509 LINE",
"629 1638 LINE",
"143 1638 LINE",
"143 1073 LINE",
"485 1073 LINE",
"485 838 LINE",
"264 806 OFFCURVE",
"102 621 OFFCURVE",
"102 401 CURVE SMOOTH",
"102 321 OFFCURVE",
"122 247 OFFCURVE",
"163 179 CURVE SMOOTH",
"243 43 OFFCURVE",
"393 -41 OFFCURVE",
"557 -41 CURVE SMOOTH"
);
},
{
closed = 1;
nodes = (
"374 127 OFFCURVE",
"283 216 OFFCURVE",
"258 340 CURVE",
"485 340 LINE",
"485 102 LINE"
);
},
{
closed = 1;
nodes = (
"283 585 OFFCURVE",
"368 675 OFFCURVE",
"485 702 CURVE",
"485 469 LINE",
"258 469 LINE"
);
},
{
closed = 1;
nodes = (
"629 340 LINE",
"856 340 LINE",
"833 227 OFFCURVE",
"742 131 OFFCURVE",
"629 102 CURVE"
);
},
{
closed = 1;
nodes = (
"629 700 LINE",
"740 673 OFFCURVE",
"830 581 OFFCURVE",
"854 469 CURVE",
"629 469 LINE"
);
}
);
width = 1114;
}
);
note = g111;
},
{
glyphname = g112;
lastChange = "2016-11-10 14:31:18 +0000";
layers = (
{
layerId = "04B77939-8555-4652-993D-1D9FD1321E1B";
paths = (
{
closed = 1;
nodes = (
"789 -41 OFFCURVE",
"938 104 OFFCURVE",
"938 287 CURVE SMOOTH",
"938 442 OFFCURVE",
"828 579 OFFCURVE",
"672 610 CURVE",
"672 1024 LINE",
"858 1024 LINE",
"858 1153 LINE",
"672 1153 LINE",
"672 1165 LINE",
"756 1196 OFFCURVE",
"815 1280 OFFCURVE",
"815 1401 CURVE SMOOTH",
"815 1512 OFFCURVE",
"765 1593 OFFCURVE",
"690 1628 CURVE",
"864 1835 LINE",
"645 2089 LINE",
"557 2089 LINE",
"338 1835 LINE",
"512 1628 LINE",
"437 1593 OFFCURVE",
"389 1512 OFFCURVE",
"389 1401 CURVE SMOOTH",
"389 1280 OFFCURVE",
"445 1196 OFFCURVE",
"528 1165 CURVE",
"528 1153 LINE",
"164 1153 LINE",
"164 1024 LINE",
"281 1024 LINE",
"281 698 LINE",
"528 698 LINE",
"528 610 LINE",
"372 581 OFFCURVE",
"262 443 OFFCURVE",
"262 287 CURVE SMOOTH",
"262 103 OFFCURVE",
"411 -41 OFFCURVE",
"600 -41 CURVE SMOOTH"
);
},
{
closed = 1;
nodes = (
"466 107 OFFCURVE",
"414 162 OFFCURVE",
"395 231 CURVE",
"537 231 LINE",
"537 84 LINE"
);
},
{
closed = 1;
nodes = (
"416 416 OFFCURVE",
"469 471 OFFCURVE",
"537 492 CURVE",
"537 348 LINE",
"397 348 LINE"
);
},
{
closed = 1;
nodes = (
"664 231 LINE",
"803 231 LINE",
"784 162 OFFCURVE",
"729 107 OFFCURVE",
"664 84 CURVE"
);
},
{
closed = 1;
nodes = (
"664 492 LINE",
"729 469 OFFCURVE",
"782 416 OFFCURVE",
"803 348 CURVE",
"664 348 LINE"
);
},
{
closed = 1;
nodes = (
"403 1024 LINE",
"528 1024 LINE",
"528 817 LINE",
"403 817 LINE"
);
},
{
closed = 1;
nodes = (
"544 1282 OFFCURVE",
"516 1322 OFFCURVE",
"516 1401 CURVE SMOOTH",
"516 1480 OFFCURVE",
"544 1520 OFFCURVE",
"600 1520 CURVE SMOOTH",
"656 1520 OFFCURVE",
"684 1480 OFFCURVE",
"684 1401 CURVE SMOOTH",
"684 1322 OFFCURVE",
"656 1282 OFFCURVE",
"600 1282 CURVE SMOOTH"
);
},
{
closed = 1;
nodes = (
"591 1718 LINE SMOOTH",
"584 1739 OFFCURVE",
"563 1765 OFFCURVE",
"528 1796 CURVE SMOOTH",
"487 1833 LINE",
"533 1877 OFFCURVE",
"561 1905 OFFCURVE",
"570 1917 CURVE",
"579 1928 OFFCURVE",
"585 1939 OFFCURVE",
"590 1949 CURVE SMOOTH",
"596 1962 LINE",
"604 1962 LINE",
"610 1949 LINE SMOOTH",
"619 1928 OFFCURVE",
"638 1903 OFFCURVE",
"668 1876 CURVE SMOOTH",
"713 1833 LINE",
"668 1792 LINE SMOOTH",
"637 1765 OFFCURVE",
"618 1740 OFFCURVE",
"610 1718 CURVE",
"604 1704 LINE",
"596 1704 LINE"
);
}
);
width = 1102;
}
);
note = g112;
},
{
glyphname = g113;
lastChange = "2016-11-10 14:31:18 +0000";
layers = (
{
layerId = "04B77939-8555-4652-993D-1D9FD1321E1B";
paths = (
{
closed = 1;
nodes = (
"1122 0 LINE",
"1122 788 LINE",
"1323 824 OFFCURVE",
"1477 984 OFFCURVE",
"1477 1161 CURVE SMOOTH",
"1477 1292 OFFCURVE",
"1374 1386 OFFCURVE",
"1237 1386 CURVE SMOOTH",
"1196 1386 OFFCURVE",
"1157 1379 OFFCURVE",
"1122 1366 CURVE",
"1122 1509 LINE",
"950 1509 LINE SMOOTH",
"846 1509 OFFCURVE",
"729 1461 OFFCURVE",
"641 1389 CURVE",
"456 1406 OFFCURVE",
"280 1515 OFFCURVE",
"248 1638 CURVE",
"102 1638 LINE",
"115 1573 OFFCURVE",
"149 1512 OFFCURVE",
"205 1454 CURVE SMOOTH",
"317 1338 OFFCURVE",
"493 1264 OFFCURVE",
"664 1260 CURVE",
"719 1301 OFFCURVE",
"760 1327 OFFCURVE",
"787 1340 CURVE SMOOTH",
"840 1365 OFFCURVE",
"898 1379 OFFCURVE",
"979 1380 CURVE",
"979 1182 LINE",
"950 1182 LINE SMOOTH",
"849 1182 OFFCURVE",
"734 1138 OFFCURVE",
"641 1061 CURVE",
"460 1078 OFFCURVE",
"281 1187 OFFCURVE",
"248 1311 CURVE",
"102 1311 LINE",
"115 1247 OFFCURVE",
"149 1186 OFFCURVE",
"205 1128 CURVE SMOOTH",
"316 1011 OFFCURVE",
"493 936 OFFCURVE",
"664 932 CURVE",
"796 1032 OFFCURVE",
"860 1050 OFFCURVE",
"979 1053 CURVE",
"979 0 LINE"
);
},
{
closed = 1;
nodes = (
"1122 1245 LINE",
"1150 1262 OFFCURVE",
"1185 1270 OFFCURVE",
"1227 1270 CURVE SMOOTH",
"1306 1270 OFFCURVE",
"1358 1235 OFFCURVE",
"1358 1163 CURVE SMOOTH",
"1358 1055 OFFCURVE",
"1263 954 OFFCURVE",
"1122 913 CURVE"
);
}
);
width = 1579;
}
);
note = g113;
},
{
glyphname = g114;
lastChange = "2016-11-10 14:31:18 +0000";
layers = (
{
layerId = "04B77939-8555-4652-993D-1D9FD1321E1B";
paths = (
{
closed = 1;
nodes = (
"371 0 LINE",
"371 1116 LINE",
"723 1116 LINE",
"723 0 LINE",
"866 0 LINE",
"866 1116 LINE",
"1221 1116 LINE",
"1221 0 LINE",
"1364 0 LINE",
"1364 1245 LINE",
"371 1245 LINE",
"371 1509 LINE",
"1364 1509 LINE",
"1364 1638 LINE",
"227 1638 LINE",
"227 0 LINE"
);
},
{
closed = 1;
nodes = (
"682 367 LINE",
"504 543 LINE",
"414 451 LINE",
"590 272 LINE"
);
},
{
closed = 1;
nodes = (
"1171 213 LINE",
"993 389 LINE",
"901 297 LINE",
"1077 119 LINE"
);
},
{
closed = 1;
nodes = (
"682 827 LINE",
"504 1004 LINE",
"414 911 LINE",
"590 733 LINE"
);
},
{
closed = 1;
nodes = (
"1171 674 LINE",
"993 850 LINE",
"901 758 LINE",
"1077 580 LINE"
);
}
);
width = 1591;
}
);
note = g114;
},
{
glyphname = g115;
lastChange = "2016-11-10 14:31:18 +0000";
layers = (
{
layerId = "04B77939-8555-4652-993D-1D9FD1321E1B";
paths = (
{
closed = 1;
nodes = (
"1008 0 LINE",
"1008 129 LINE",
"909 129 LINE",
"1065 268 OFFCURVE",
"1210 512 OFFCURVE",
"1210 637 CURVE",
"1192 736 OFFCURVE",
"1139 826 OFFCURVE",
"1051 907 CURVE",
"1190 1002 OFFCURVE",
"1286 1146 OFFCURVE",
"1286 1270 CURVE SMOOTH",
"1286 1381 OFFCURVE",
"1214 1462 OFFCURVE",
"1110 1473 CURVE",
"1110 1481 LINE",
"813 1481 LINE",
"860 1520 OFFCURVE",
"891 1585 OFFCURVE",
"891 1649 CURVE SMOOTH",
"891 1756 OFFCURVE",
"817 1823 OFFCURVE",
"672 1823 CURVE SMOOTH",
"664 1823 LINE",
"664 1925 LINE",
"530 1925 LINE",
"530 1481 LINE",
"266 1481 LINE",
"266 1466 LINE",
"159 1455 OFFCURVE",
"90 1373 OFFCURVE",
"90 1264 CURVE SMOOTH",
"90 1136 OFFCURVE",
"192 990 OFFCURVE",
"324 903 CURVE",
"236 820 OFFCURVE",
"185 730 OFFCURVE",
"170 633 CURVE",
"199 464 OFFCURVE",
"329 253 OFFCURVE",
"469 129 CURVE",
"375 129 LINE",
"375 0 LINE"
);
},
{
closed = 1;
nodes = (
"475 281 OFFCURVE",
"335 494 OFFCURVE",
"303 635 CURVE",
"335 766 OFFCURVE",
"459 888 OFFCURVE",
"616 948 CURVE",
"616 150 LINE"
);
},
{
closed = 1;
nodes = (
"760 950 LINE",
"924 886 OFFCURVE",
"1048 763 OFFCURVE",
"1073 635 CURVE",
"1042 492 OFFCURVE",
"903 282 OFFCURVE",
"760 145 CURVE"
);
},
{
closed = 1;
nodes = (
"296 1054 OFFCURVE",
"225 1158 OFFCURVE",
"225 1266 CURVE SMOOTH",
"225 1305 OFFCURVE",
"240 1331 OFFCURVE",
"270 1343 CURVE",
"270 1214 LINE",
"367 1214 LINE",
"367 1337 LINE",
"432 1294 OFFCURVE",
"482 1149 OFFCURVE",
"489 1020 CURVE",
"459 1004 OFFCURVE",
"439 992 OFFCURVE",
"428 985 CURVE"
);
},
{
closed = 1;
nodes = (
"600 1178 OFFCURVE",
"562 1274 OFFCURVE",
"502 1352 CURVE",
"616 1352 LINE",
"616 1065 LINE"
);
},
{
closed = 1;
nodes = (
"760 1352 LINE",
"870 1352 LINE",
"811 1276 OFFCURVE",
"775 1181 OFFCURVE",
"760 1067 CURVE"
);
},
{
closed = 1;
nodes = (
"921 1002 OFFCURVE",
"902 1013 OFFCURVE",
"885 1020 CURVE",
"892 1160 OFFCURVE",
"945 1304 OFFCURVE",
"1010 1343 CURVE",
"1010 1214 LINE",
"1106 1214 LINE",
"1106 1350 LINE",
"1136 1338 OFFCURVE",
"1151 1312 OFFCURVE",
"1151 1272 CURVE SMOOTH",
"1151 1159 OFFCURVE",
"1070 1053 OFFCURVE",
"942 989 CURVE"
);
},
{
closed = 1;
nodes = (
"664 1706 LINE",
"740 1706 OFFCURVE",
"772 1688 OFFCURVE",
"772 1640 CURVE SMOOTH",
"772 1589 OFFCURVE",
"744 1546 OFFCURVE",
"664 1495 CURVE"
);
}
);
width = 1376;
}
);
note = g115;
},
{
glyphname = g116;
lastChange = "2016-11-10 14:31:18 +0000";
layers = (
{
layerId = "04B77939-8555-4652-993D-1D9FD1321E1B";
paths = (
{
closed = 1;
nodes = (
"489 641 LINE SMOOTH",
"530 641 OFFCURVE",
"571 646 OFFCURVE",
"612 657 CURVE",
"651 646 OFFCURVE",
"692 641 OFFCURVE",
"735 641 CURVE SMOOTH",
"887 641 LINE",
"887 770 LINE",
"795 770 LINE",
"886 861 OFFCURVE",
"937 988 OFFCURVE",
"948 1151 CURVE",
"805 1151 LINE",
"793 1006 OFFCURVE",
"719 868 OFFCURVE",
"612 805 CURVE",
"504 868 OFFCURVE",
"429 1004 OFFCURVE",
"420 1151 CURVE",
"276 1151 LINE",
"289 987 OFFCURVE",
"339 860 OFFCURVE",
"428 770 CURVE",
"338 770 LINE",
"338 641 LINE"
);
},
{
closed = 1;
nodes = (
"684 0 LINE",
"684 565 LINE",
"541 565 LINE",
"541 0 LINE"
);
},
{
closed = 1;
nodes = (
"246 532 LINE",
"246 938 LINE",
"102 938 LINE",
"102 532 LINE"
);
},
{
closed = 1;
nodes = (
"1122 532 LINE",
"1122 938 LINE",
"979 938 LINE",
"979 532 LINE"
);
},
{
closed = 1;
nodes = (
"684 1092 LINE",
"684 1249 LINE",
"784 1249 LINE",
"784 1378 LINE",
"684 1378 LINE",
"684 1454 LINE",
"784 1454 LINE",
"784 1583 LINE",
"684 1583 LINE",
"684 1782 LINE",
"541 1782 LINE",
"541 1583 LINE",
"440 1583 LINE",
"440 1454 LINE",
"541 1454 LINE",
"541 1378 LINE",
"440 1378 LINE",
"440 1249 LINE",
"541 1249 LINE",
"541 1092 LINE"
);
}
);
width = 1225;
}
);
note = g116;
},
{
glyphname = g117;
lastChange = "2016-11-10 14:31:18 +0000";
layers = (
{
layerId = "04B77939-8555-4652-993D-1D9FD1321E1B";
paths = (
{
closed = 1;
nodes = (
"818 114 OFFCURVE",
"859 198 OFFCURVE",
"864 229 CURVE",
"872 229 LINE",
"878 204 OFFCURVE",
"917 121 OFFCURVE",
"989 -20 CURVE",
"1116 41 LINE",
"987 291 LINE",
"1075 291 LINE",
"1075 420 LINE",
"942 420 LINE",
"942 1282 LINE",
"1059 1509 LINE",
"1147 1498 OFFCURVE",
"1188 1483 OFFCURVE",
"1188 1438 CURVE SMOOTH",
"1188 1423 OFFCURVE",
"1182 1407 OFFCURVE",
"1169 1388 CURVE SMOOTH",
"1156 1369 OFFCURVE",
"1134 1344 OFFCURVE",
"1105 1313 CURVE SMOOTH",
"1050 1255 OFFCURVE",
"1022 1197 OFFCURVE",
"1022 1139 CURVE SMOOTH",
"1022 1026 OFFCURVE",
"1106 944 OFFCURVE",
"1214 944 CURVE SMOOTH",
"1357 944 OFFCURVE",
"1456 1050 OFFCURVE",
"1477 1229 CURVE",
"1362 1229 LINE",
"1342 1121 OFFCURVE",
"1292 1067 OFFCURVE",
"1212 1067 CURVE SMOOTH",
"1180 1067 OFFCURVE",
"1157 1096 OFFCURVE",
"1157 1145 CURVE SMOOTH",
"1157 1196 OFFCURVE",
"1185 1244 OFFCURVE",
"1240 1291 CURVE SMOOTH",
"1295 1337 OFFCURVE",
"1323 1387 OFFCURVE",
"1323 1442 CURVE SMOOTH",
"1323 1561 OFFCURVE",
"1205 1626 OFFCURVE",
"969 1638 CURVE",
"916 1532 OFFCURVE",
"887 1473 OFFCURVE",
"882 1462 CURVE SMOOTH",
"877 1450 OFFCURVE",
"874 1441 OFFCURVE",
"872 1434 CURVE",
"864 1434 LINE",
"743 1638 LINE",
"82 1638 LINE",
"82 1509 LINE",
"334 1509 LINE",
"334 946 LINE",
"477 946 LINE",
"477 1509 LINE",
"678 1509 LINE",
"799 1280 LINE",
"799 1163 LINE",
"660 1112 OFFCURVE",
"549 947 OFFCURVE",
"549 780 CURVE SMOOTH",
"549 635 OFFCURVE",
"626 487 OFFCURVE",
"729 420 CURVE",
"657 420 LINE",
"657 291 LINE",
"750 291 LINE",
"616 41 LINE",
"743 -23 LINE"
);
},
{
closed = 1;
nodes = (
"732 598 OFFCURVE",
"698 674 OFFCURVE",
"698 782 CURVE SMOOTH",
"698 891 OFFCURVE",
"732 967 OFFCURVE",
"799 1010 CURVE",
"799 553 LINE"
);
}
);
width = 1559;
}
);
note = g117;
},
{
glyphname = g118;
lastChange = "2016-11-10 14:31:18 +0000";
layers = (
{
layerId = "04B77939-8555-4652-993D-1D9FD1321E1B";
paths = (
{
closed = 1;
nodes = (
"369 0 LINE",
"369 821 LINE",
"870 821 LINE",
"870 545 LINE",
"1014 545 LINE",
"1014 1638 LINE",
"870 1638 LINE",
"870 1350 LINE",
"369 1350 LINE",
"369 1720 LINE",
"225 1720 LINE",
"225 0 LINE"
);
},
{
closed = 1;
nodes = (
"369 1221 LINE",
"870 1221 LINE",
"870 950 LINE",
"369 950 LINE"
);
}
);
width = 1178;
}
);
note = g118;
},
{
glyphname = g119;
lastChange = "2016-11-10 14:31:18 +0000";
layers = (
{
layerId = "04B77939-8555-4652-993D-1D9FD1321E1B";
paths = (
{
closed = 1;
nodes = (
"311 0 LINE",
"372 231 OFFCURVE",
"484 503 OFFCURVE",
"597 695 CURVE SMOOTH",
"653 791 OFFCURVE",
"696 844 OFFCURVE",
"725 854 CURVE",
"752 845 OFFCURVE",
"796 792 OFFCURVE",
"856 693 CURVE SMOOTH",
"976 495 OFFCURVE",
"1082 239 OFFCURVE",
"1137 0 CURVE",
"1288 0 LINE",
"1192 359 OFFCURVE",
"995 781 OFFCURVE",
"846 942 CURVE",
"924 1021 OFFCURVE",
"997 1143 OFFCURVE",
"1064 1308 CURVE SMOOTH",
"1094 1380 OFFCURVE",
"1121 1432 OFFCURVE",
"1144 1463 CURVE SMOOTH",
"1167 1494 OFFCURVE",
"1192 1509 OFFCURVE",
"1219 1509 CURVE SMOOTH",
"1268 1509 LINE",
"1268 1638 LINE",
"1208 1638 LINE SMOOTH",
"1109 1638 OFFCURVE",
"1033 1557 OFFCURVE",
"957 1376 CURVE SMOOTH",
"868 1164 OFFCURVE",
"806 1066 OFFCURVE",
"725 1018 CURVE",
"642 1067 OFFCURVE",
"580 1167 OFFCURVE",
"495 1376 CURVE SMOOTH",
"422 1552 OFFCURVE",
"345 1638 OFFCURVE",
"244 1638 CURVE SMOOTH",
"184 1638 LINE",
"184 1509 LINE",
"233 1509 LINE SMOOTH",
"260 1509 OFFCURVE",
"285 1493 OFFCURVE",
"309 1462 CURVE SMOOTH",
"332 1431 OFFCURVE",
"359 1379 OFFCURVE",
"388 1308 CURVE SMOOTH",
"455 1143 OFFCURVE",
"528 1021 OFFCURVE",
"606 942 CURVE",
"455 781 OFFCURVE",
"243 324 OFFCURVE",
"164 0 CURVE"
);
},
{
closed = 1;
nodes = (
"397 772 LINE",
"349 789 OFFCURVE",
"319 840 OFFCURVE",
"319 907 CURVE SMOOTH",
"319 979 OFFCURVE",
"357 1035 OFFCURVE",
"418 1047 CURVE",
"379 1167 LINE",
"271 1143 OFFCURVE",
"184 1026 OFFCURVE",
"184 913 CURVE SMOOTH",
"184 800 OFFCURVE",
"251 694 OFFCURVE",
"350 655 CURVE"
);
},
{
closed = 1;
nodes = (
"1201 694 OFFCURVE",
"1268 798 OFFCURVE",
"1268 913 CURVE SMOOTH",
"1268 1028 OFFCURVE",
"1180 1144 OFFCURVE",
"1073 1167 CURVE",
"1034 1047 LINE",
"1097 1034 OFFCURVE",
"1133 979 OFFCURVE",
"1133 907 CURVE SMOOTH",
"1133 842 OFFCURVE",
"1104 791 OFFCURVE",
"1055 772 CURVE",
"1102 655 LINE"
);
},
{
closed = 1;
nodes = (
"686 1307 LINE",
"686 1509 LINE",
"766 1509 LINE",
"766 1307 LINE",
"889 1307 LINE",
"889 1509 LINE",
"975 1509 LINE",
"975 1638 LINE",
"477 1638 LINE",
"477 1509 LINE",
"563 1509 LINE",
"563 1307 LINE"
);
}
);
width = 1452;
}
);
note = g119;
},
{
glyphname = g120;
lastChange = "2016-11-10 14:31:18 +0000";
layers = (
{
layerId = "04B77939-8555-4652-993D-1D9FD1321E1B";
paths = (
{
closed = 1;
nodes = (
"1106 -20 OFFCURVE",
"1210 8 OFFCURVE",
"1306 64 CURVE SMOOTH",
"1498 175 OFFCURVE",
"1618 381 OFFCURVE",
"1618 604 CURVE SMOOTH",
"1618 717 OFFCURVE",
"1589 822 OFFCURVE",
"1532 920 CURVE SMOOTH",
"1417 1116 OFFCURVE",
"1212 1229 OFFCURVE",
"995 1229 CURVE SMOOTH",
"931 1229 OFFCURVE",
"869 1219 OFFCURVE",
"809 1200 CURVE",
"813 1217 OFFCURVE",
"815 1234 OFFCURVE",
"815 1251 CURVE",
"814 1314 OFFCURVE",
"794 1376 OFFCURVE",
"756 1437 CURVE SMOOTH",
"680 1557 OFFCURVE",
"546 1638 OFFCURVE",
"422 1638 CURVE SMOOTH",
"271 1638 OFFCURVE",
"164 1524 OFFCURVE",
"164 1376 CURVE SMOOTH",
"164 1317 OFFCURVE",
"180 1260 OFFCURVE",
"211 1204 CURVE SMOOTH",
"274 1092 OFFCURVE",
"389 1010 OFFCURVE",
"506 993 CURVE",
"415 880 OFFCURVE",
"369 751 OFFCURVE",
"369 604 CURVE SMOOTH",
"369 493 OFFCURVE",
"397 390 OFFCURVE",
"453 293 CURVE SMOOTH",
"565 99 OFFCURVE",
"771 -20 OFFCURVE",
"995 -20 CURVE SMOOTH"
);
},
{
closed = 1;
nodes = (
"889 375 LINE",
"889 504 LINE",
"647 504 LINE",
"647 375 LINE"
);
},
{
closed = 1;
nodes = (
"889 723 LINE",
"889 852 LINE",
"647 852 LINE",
"647 723 LINE"
);
},
{
closed = 1;
nodes = (
"912 115 OFFCURVE",
"833 136 OFFCURVE",
"760 178 CURVE SMOOTH",
"612 261 OFFCURVE",
"512 424 OFFCURVE",
"512 604 CURVE SMOOTH",
"512 691 OFFCURVE",
"534 773 OFFCURVE",
"578 850 CURVE SMOOTH",
"666 1003 OFFCURVE",
"824 1096 OFFCURVE",
"995 1096 CURVE SMOOTH",
"1080 1096 OFFCURVE",
"1160 1074 OFFCURVE",
"1235 1029 CURVE SMOOTH",
"1383 940 OFFCURVE",
"1475 777 OFFCURVE",
"1475 604 CURVE SMOOTH",
"1475 518 OFFCURVE",
"1454 437 OFFCURVE",
"1411 362 CURVE SMOOTH",
"1326 211 OFFCURVE",
"1164 115 OFFCURVE",
"995 115 CURVE SMOOTH"
);
},
{
closed = 1;
nodes = (
"1339 375 LINE",
"1339 504 LINE",
"1098 504 LINE",
"1098 375 LINE"
);
},
{
closed = 1;
nodes = (
"512 1124 OFFCURVE",
"474 1137 OFFCURVE",
"437 1164 CURVE SMOOTH",
"361 1216 OFFCURVE",
"307 1307 OFFCURVE",
"307 1382 CURVE SMOOTH",
"307 1453 OFFCURVE",
"349 1505 OFFCURVE",
"420 1505 CURVE SMOOTH",
"459 1505 OFFCURVE",
"499 1492 OFFCURVE",
"539 1466 CURVE SMOOTH",
"618 1414 OFFCURVE",
"672 1324 OFFCURVE",
"672 1247 CURVE SMOOTH",
"672 1176 OFFCURVE",
"622 1124 OFFCURVE",
"549 1124 CURVE SMOOTH"
);
},
{
closed = 1;
nodes = (
"1339 723 LINE",
"1339 852 LINE",
"1098 852 LINE",
"1098 723 LINE"
);
}
);
width = 1823;
}
);
note = g120;
},
{
glyphname = g121;
lastChange = "2016-11-10 14:31:18 +0000";
layers = (
{
layerId = "04B77939-8555-4652-993D-1D9FD1321E1B";
paths = (
{
closed = 1;
nodes = (
"958 324 LINE",
"958 1356 LINE",
"1105 1380 OFFCURVE",
"1211 1477 OFFCURVE",
"1260 1638 CURVE",
"1106 1638 LINE",
"1075 1560 OFFCURVE",
"1026 1510 OFFCURVE",
"958 1489 CURVE",
"958 1638 LINE",
"815 1638 LINE",
"815 1489 LINE",
"747 1510 OFFCURVE",
"699 1559 OFFCURVE",
"670 1638 CURVE",
"514 1638 LINE",
"562 1477 OFFCURVE",
"670 1379 OFFCURVE",
"815 1356 CURVE",
"815 324 LINE"
);
},
{
closed = 1;
nodes = (
"1184 0 LINE",
"1184 129 LINE",
"590 129 LINE",
"590 0 LINE"
);
},
{
closed = 1;
nodes = (
"723 301 LINE",
"608 301 OFFCURVE",
"528 345 OFFCURVE",
"528 414 CURVE SMOOTH",
"528 479 OFFCURVE",
"602 522 OFFCURVE",
"723 522 CURVE",
"717 635 LINE",
"512 635 OFFCURVE",
"410 561 OFFCURVE",
"410 412 CURVE SMOOTH",
"410 266 OFFCURVE",
"512 193 OFFCURVE",
"717 193 CURVE"
);
},
{
closed = 1;
nodes = (
"369 596 LINE",
"369 1307 LINE",
"432 1372 LINE",
"518 1282 LINE",
"518 733 LINE",
"662 733 LINE",
"662 1313 LINE",
"344 1653 LINE",
"250 1565 LINE",
"344 1464 LINE",
"225 1337 LINE",
"225 596 LINE"
);
},
{
closed = 1;
nodes = (
"1264 193 OFFCURVE",
"1366 266 OFFCURVE",
"1366 412 CURVE SMOOTH",
"1366 561 OFFCURVE",
"1264 635 OFFCURVE",
"1059 635 CURVE",
"1053 522 LINE",
"1173 522 OFFCURVE",
"1247 479 OFFCURVE",
"1247 414 CURVE SMOOTH",
"1247 346 OFFCURVE",
"1166 301 OFFCURVE",
"1053 301 CURVE",
"1059 193 LINE"
);
},
{
closed = 1;
nodes = (
"1548 596 LINE",
"1548 1337 LINE",
"1430 1464 LINE",
"1524 1565 LINE",
"1430 1653 LINE",
"1112 1313 LINE",
"1112 733 LINE",
"1255 733 LINE",
"1255 1282 LINE",
"1341 1372 LINE",
"1405 1307 LINE",
"1405 596 LINE"
);
}
);
width = 1774;
}
);
note = g121;
},
{
glyphname = g122;
lastChange = "2016-11-10 14:31:18 +0000";
layers = (
{
layerId = "04B77939-8555-4652-993D-1D9FD1321E1B";
paths = (
{
closed = 1;
nodes = (
"369 0 LINE",
"369 211 LINE",
"696 211 LINE",
"696 0 LINE",
"840 0 LINE",
"840 211 LINE",
"1167 211 LINE",
"1167 0 LINE",
"1311 0 LINE",
"1311 1638 LINE",
"1208 1638 LINE",
"1065 1550 LINE",
"1065 1491 OFFCURVE",
"1051 1435 OFFCURVE",
"1022 1384 CURVE SMOOTH",
"965 1280 OFFCURVE",
"862 1214 OFFCURVE",
"766 1214 CURVE SMOOTH",
"719 1214 OFFCURVE",
"672 1229 OFFCURVE",
"625 1260 CURVE SMOOTH",
"530 1321 OFFCURVE",
"469 1431 OFFCURVE",
"469 1550 CURVE",
"328 1638 LINE",
"225 1638 LINE",
"225 0 LINE"
);
},
{
closed = 1;
nodes = (
"852 416 OFFCURVE",
"930 458 OFFCURVE",
"979 549 CURVE",
"879 612 LINE",
"852 563 OFFCURVE",
"818 539 OFFCURVE",
"776 539 CURVE SMOOTH",
"743 539 OFFCURVE",
"707 561 OFFCURVE",
"707 598 CURVE SMOOTH",
"707 607 OFFCURVE",
"713 617 OFFCURVE",
"724 626 CURVE SMOOTH",
"735 635 OFFCURVE",
"770 656 OFFCURVE",
"829 689 CURVE SMOOTH",
"910 734 OFFCURVE",
"950 783 OFFCURVE",
"950 838 CURVE SMOOTH",
"950 933 OFFCURVE",
"867 1010 OFFCURVE",
"762 1010 CURVE SMOOTH",
"674 1010 OFFCURVE",
"592 969 OFFCURVE",
"543 877 CURVE",
"643 813 LINE",
"662 856 OFFCURVE",
"686 887 OFFCURVE",
"745 887 CURVE SMOOTH",
"778 887 OFFCURVE",
"815 864 OFFCURVE",
"815 823 CURVE SMOOTH",
"815 814 OFFCURVE",
"809 805 OFFCURVE",
"797 797 CURVE SMOOTH",
"773 780 OFFCURVE",
"736 761 OFFCURVE",
"693 738 CURVE SMOOTH",
"612 693 OFFCURVE",
"571 639 OFFCURVE",
"571 575 CURVE SMOOTH",
"571 480 OFFCURVE",
"659 416 OFFCURVE",
"776 416 CURVE SMOOTH"
);
},
{
closed = 1;
nodes = (
"369 1497 LINE",
"375 1418 OFFCURVE",
"396 1347 OFFCURVE",
"433 1284 CURVE SMOOTH",
"505 1157 OFFCURVE",
"629 1083 OFFCURVE",
"764 1083 CURVE SMOOTH",
"831 1083 OFFCURVE",
"895 1100 OFFCURVE",
"954 1135 CURVE SMOOTH",
"1073 1204 OFFCURVE",
"1154 1338 OFFCURVE",
"1167 1497 CURVE",
"1167 340 LINE",
"369 340 LINE"
);
}
);
width = 1536;
}
);
note = g122;
},
{
glyphname = g123;
lastChange = "2016-11-10 14:31:18 +0000";
layers = (
{
layerId = "04B77939-8555-4652-993D-1D9FD1321E1B";
paths = (
{
closed = 1;
nodes = (
"1055 0 LINE",
"1055 129 LINE",
"592 129 LINE",
"592 1427 LINE",
"449 1427 LINE",
"449 0 LINE"
);
},
{
closed = 1;
nodes = (
"983 227 LINE",
"983 356 LINE",
"879 356 LINE SMOOTH",
"823 356 OFFCURVE",
"813 367 OFFCURVE",
"813 403 CURVE SMOOTH",
"813 571 LINE",
"670 571 LINE",
"670 379 LINE SMOOTH",
"670 291 OFFCURVE",
"741 227 OFFCURVE",
"836 227 CURVE SMOOTH"
);
},
{
closed = 1;
nodes = (
"1278 0 LINE",
"1278 1427 LINE",
"1135 1427 LINE",
"1135 0 LINE"
);
},
{
closed = 1;
nodes = (
"244 1298 LINE",
"287 1457 OFFCURVE",
"378 1536 OFFCURVE",
"518 1536 CURVE SMOOTH",
"662 1536 OFFCURVE",
"763 1446 OFFCURVE",
"795 1298 CURVE",
"1055 1298 LINE",
"1055 1427 LINE",
"885 1427 LINE",
"810 1574 OFFCURVE",
"683 1665 OFFCURVE",
"518 1665 CURVE SMOOTH",
"319 1665 OFFCURVE",
"161 1527 OFFCURVE",
"102 1298 CURVE"
);
},
{
closed = 1;
nodes = (
"1677 1280 LINE",
"1677 1409 LINE",
"1530 1409 LINE",
"1303 1653 LINE",
"1208 1565 LINE",
"1477 1280 LINE"
);
}
);
width = 1780;
}
);
note = g123;
},
{
glyphname = g124;
lastChange = "2016-11-10 14:31:18 +0000";
layers = (
{
layerId = "04B77939-8555-4652-993D-1D9FD1321E1B";
paths = (
{
closed = 1;
nodes = (
"2365 0 LINE",
"2365 109 LINE",
"2296 109 LINE",
"2296 354 LINE SMOOTH",
"2296 439 OFFCURVE",
"2286 523 OFFCURVE",
"2265 604 CURVE",
"2281 600 OFFCURVE",
"2297 598 OFFCURVE",
"2314 598 CURVE SMOOTH",
"2442 598 OFFCURVE",
"2515 665 OFFCURVE",
"2515 786 CURVE SMOOTH",
"2515 874 OFFCURVE",
"2480 948 OFFCURVE",
"2410 1008 CURVE",
"2349 1003 OFFCURVE",
"2234 929 OFFCURVE",
"2173 858 CURVE",
"2128 942 LINE",
"2161 943 OFFCURVE",
"2194 952 OFFCURVE",
"2227 968 CURVE SMOOTH",
"2293 999 OFFCURVE",
"2337 1053 OFFCURVE",
"2337 1124 CURVE SMOOTH",
"2337 1212 OFFCURVE",
"2302 1286 OFFCURVE",
"2232 1346 CURVE",
"2157 1337 OFFCURVE",
"2015 1240 OFFCURVE",
"1964 1151 CURVE",
"1946 1169 OFFCURVE",
"1919 1193 OFFCURVE",
"1884 1223 CURVE",
"1972 1246 OFFCURVE",
"2032 1313 OFFCURVE",
"2032 1393 CURVE SMOOTH",
"2032 1480 OFFCURVE",
"1997 1554 OFFCURVE",
"1927 1614 CURVE",
"1895 1611 OFFCURVE",
"1855 1594 OFFCURVE",
"1808 1564 CURVE SMOOTH",
"1713 1504 OFFCURVE",
"1652 1431 OFFCURVE",
"1640 1372 CURVE",
"1463 1453 OFFCURVE",
"1263 1493 OFFCURVE",
"1040 1493 CURVE SMOOTH",
"877 1493 OFFCURVE",
"722 1457 OFFCURVE",
"575 1384 CURVE SMOOTH",
"281 1238 OFFCURVE",
"102 969 OFFCURVE",
"102 672 CURVE SMOOTH",
"102 578 OFFCURVE",
"112 499 OFFCURVE",
"133 434 CURVE",
"229 492 LINE",
"384 843 OFFCURVE",
"666 1038 OFFCURVE",
"999 1038 CURVE SMOOTH",
"1154 1038 OFFCURVE",
"1289 1006 OFFCURVE",
"1405 941 CURVE SMOOTH",
"1636 811 OFFCURVE",
"1763 563 OFFCURVE",
"1763 256 CURVE SMOOTH",
"1763 109 LINE",
"1686 109 LINE",
"1686 0 LINE"
);
},
{
closed = 1;
nodes = (
"1907 266 LINE SMOOTH",
"1907 443 OFFCURVE",
"1870 602 OFFCURVE",
"1797 741 CURVE SMOOTH",
"1650 1019 OFFCURVE",
"1370 1171 OFFCURVE",
"1006 1171 CURVE SMOOTH",
"682 1171 OFFCURVE",
"395 1008 OFFCURVE",
"246 743 CURVE",
"251 850 OFFCURVE",
"289 951 OFFCURVE",
"361 1047 CURVE SMOOTH",
"504 1238 OFFCURVE",
"758 1360 OFFCURVE",
"1018 1360 CURVE SMOOTH",
"1365 1360 OFFCURVE",
"1646 1262 OFFCURVE",
"1842 1082 CURVE SMOOTH",
"2037 902 OFFCURVE",
"2152 633 OFFCURVE",
"2152 344 CURVE SMOOTH",
"2152 109 LINE",
"1907 109 LINE"
);
},
{
closed = 1;
nodes = (
"2271 688 OFFCURVE",
"2232 707 OFFCURVE",
"2232 727 CURVE SMOOTH",
"2232 774 OFFCURVE",
"2302 857 OFFCURVE",
"2382 885 CURVE",
"2397 857 OFFCURVE",
"2404 828 OFFCURVE",
"2404 799 CURVE SMOOTH",
"2404 730 OFFCURVE",
"2363 688 OFFCURVE",
"2296 688 CURVE SMOOTH"
);
},
{
closed = 1;
nodes = (
"1788 1294 OFFCURVE",
"1749 1313 OFFCURVE",
"1749 1333 CURVE SMOOTH",
"1749 1381 OFFCURVE",
"1819 1464 OFFCURVE",
"1898 1491 CURVE",
"1915 1466 OFFCURVE",
"1923 1438 OFFCURVE",
"1923 1407 CURVE SMOOTH",
"1923 1340 OFFCURVE",
"1877 1294 OFFCURVE",
"1812 1294 CURVE SMOOTH"
);
},
{
closed = 1;
nodes = (
"2091 1026 OFFCURVE",
"2054 1045 OFFCURVE",
"2054 1065 CURVE SMOOTH",
"2054 1112 OFFCURVE",
"2124 1195 OFFCURVE",
"2204 1223 CURVE",
"2220 1198 OFFCURVE",
"2228 1170 OFFCURVE",
"2228 1139 CURVE SMOOTH",
"2228 1075 OFFCURVE",
"2187 1026 OFFCURVE",
"2118 1026 CURVE SMOOTH"
);
}
);
width = 2609;
}
);
note = g124;
},
{
glyphname = g125;
lastChange = "2016-11-10 14:31:18 +0000";
layers = (
{
layerId = "04B77939-8555-4652-993D-1D9FD1321E1B";
paths = (
{
closed = 1;
nodes = (
"1565 610 LINE",
"1462 697 OFFCURVE",
"1403 841 OFFCURVE",
"1403 1034 CURVE SMOOTH",
"1403 1205 OFFCURVE",
"1481 1367 OFFCURVE",
"1636 1520 CURVE",
"1556 1653 LINE",
"1459 1613 OFFCURVE",
"1383 1585 OFFCURVE",
"1328 1570 CURVE SMOOTH",
"1219 1538 OFFCURVE",
"1099 1520 OFFCURVE",
"956 1520 CURVE SMOOTH",
"782 1520 LINE SMOOTH",
"569 1520 OFFCURVE",
"441 1550 OFFCURVE",
"180 1653 CURVE",
"102 1520 LINE",
"249 1372 OFFCURVE",
"336 1197 OFFCURVE",
"336 1034 CURVE SMOOTH",
"336 841 OFFCURVE",
"277 697 OFFCURVE",
"174 610 CURVE",
"868 -20 LINE"
);
},
{
closed = 1;
nodes = (
"727 893 LINE",
"805 893 LINE",
"805 623 LINE",
"727 623 LINE"
);
},
{
closed = 1;
nodes = (
"340 621 LINE",
"409 696 OFFCURVE",
"455 865 OFFCURVE",
"455 1030 CURVE SMOOTH",
"455 1202 OFFCURVE",
"403 1327 OFFCURVE",
"244 1511 CURVE",
"369 1432 OFFCURVE",
"593 1384 OFFCURVE",
"805 1384 CURVE SMOOTH",
"934 1384 LINE SMOOTH",
"1150 1384 OFFCURVE",
"1370 1432 OFFCURVE",
"1495 1511 CURVE",
"1338 1328 OFFCURVE",
"1284 1201 OFFCURVE",
"1284 1030 CURVE SMOOTH",
"1284 867 OFFCURVE",
"1330 696 OFFCURVE",
"1399 621 CURVE",
"868 131 LINE"
);
},
{
closed = 1;
nodes = (
"932 893 LINE",
"1010 893 LINE",
"1010 623 LINE",
"932 623 LINE"
);
},
{
closed = 1;
nodes = (
"1198 514 LINE",
"1198 623 LINE",
"1137 623 LINE",
"1137 893 LINE",
"1198 893 LINE",
"1198 1001 LINE",
"1126 1001 LINE",
"961 1155 LINE",
"1055 1243 LINE",
"979 1321 LINE",
"633 1001 LINE",
"539 1001 LINE",
"539 893 LINE",
"600 893 LINE",
"600 623 LINE",
"539 623 LINE",
"539 514 LINE"
);
},
{
closed = 1;
nodes = (
"881 1081 LINE",
"967 1001 LINE",
"797 1001 LINE"
);
}
);
width = 1739;
}
);
note = g125;
},
{
glyphname = g126;
lastChange = "2016-11-10 14:31:18 +0000";
layers = (
{
layerId = "04B77939-8555-4652-993D-1D9FD1321E1B";
paths = (
{
closed = 1;
nodes = (
"1333 563 LINE",
"1177 698 OFFCURVE",
"1120 810 OFFCURVE",
"1120 963 CURVE SMOOTH",
"1120 1126 OFFCURVE",
"1189 1241 OFFCURVE",
"1333 1354 CURVE",
"717 1956 LINE",
"102 1354 LINE",
"246 1242 OFFCURVE",
"315 1126 OFFCURVE",
"315 963 CURVE SMOOTH",
"315 804 OFFCURVE",
"255 692 OFFCURVE",
"102 563 CURVE",
"717 -41 LINE"
);
},
{
closed = 1;
nodes = (
"266 563 LINE",
"378 666 OFFCURVE",
"434 799 OFFCURVE",
"434 961 CURVE SMOOTH",
"434 1125 OFFCURVE",
"391 1243 OFFCURVE",
"276 1362 CURVE",
"717 1800 LINE",
"1159 1362 LINE",
"1047 1247 OFFCURVE",
"1001 1122 OFFCURVE",
"1001 961 CURVE SMOOTH",
"1001 799 OFFCURVE",
"1057 666 OFFCURVE",
"1169 563 CURVE",
"717 115 LINE"
);
},
{
closed = 1;
nodes = (
"780 362 LINE",
"780 702 LINE",
"813 732 OFFCURVE",
"841 792 OFFCURVE",
"864 881 CURVE SMOOTH",
"887 970 OFFCURVE",
"907 1086 OFFCURVE",
"924 1231 CURVE",
"924 1245 LINE",
"922 1257 LINE",
"941 1287 OFFCURVE",
"950 1321 OFFCURVE",
"950 1358 CURVE SMOOTH",
"950 1471 OFFCURVE",
"857 1556 OFFCURVE",
"717 1556 CURVE SMOOTH",
"576 1556 OFFCURVE",
"485 1470 OFFCURVE",
"485 1358 CURVE SMOOTH",
"485 1322 OFFCURVE",
"493 1289 OFFCURVE",
"510 1260 CURVE",
"508 1217 LINE",
"525 1068 OFFCURVE",
"545 953 OFFCURVE",
"568 872 CURVE SMOOTH",
"591 791 OFFCURVE",
"620 736 OFFCURVE",
"653 707 CURVE",
"653 362 LINE"
);
},
{
closed = 1;
nodes = (
"698 815 OFFCURVE",
"681 846 OFFCURVE",
"666 908 CURVE SMOOTH",
"651 969 OFFCURVE",
"639 1056 OFFCURVE",
"631 1169 CURVE",
"657 1161 OFFCURVE",
"686 1157 OFFCURVE",
"717 1157 CURVE SMOOTH",
"749 1157 OFFCURVE",
"776 1160 OFFCURVE",
"797 1167 CURVE",
"788 1054 OFFCURVE",
"776 967 OFFCURVE",
"763 906 CURVE SMOOTH",
"750 845 OFFCURVE",
"735 815 OFFCURVE",
"719 815 CURVE SMOOTH"
);
},
{
closed = 1;
nodes = (
"640 1276 OFFCURVE",
"600 1304 OFFCURVE",
"600 1360 CURVE SMOOTH",
"600 1416 OFFCURVE",
"640 1444 OFFCURVE",
"719 1444 CURVE SMOOTH",
"798 1444 OFFCURVE",
"838 1416 OFFCURVE",
"838 1360 CURVE SMOOTH",
"838 1304 OFFCURVE",
"798 1276 OFFCURVE",
"719 1276 CURVE SMOOTH"
);
}
);
width = 1436;
}
);
note = g126;
},
{
glyphname = g127;
lastChange = "2016-11-10 14:31:18 +0000";
layers = (
{
layerId = "04B77939-8555-4652-993D-1D9FD1321E1B";
paths = (
{
closed = 1;
nodes = (
"269 576 OFFCURVE",
"319 594 OFFCURVE",
"360 625 CURVE SMOOTH",
"443 688 OFFCURVE",
"489 794 OFFCURVE",
"489 911 CURVE SMOOTH",
"489 1031 OFFCURVE",
"444 1134 OFFCURVE",
"360 1198 CURVE",
"662 1507 LINE",
"739 1492 OFFCURVE",
"829 1485 OFFCURVE",
"934 1485 CURVE SMOOTH",
"985 1485 LINE SMOOTH",
"1089 1485 OFFCURVE",
"1180 1492 OFFCURVE",
"1257 1507 CURVE",
"1559 1196 LINE",
"1475 1132 OFFCURVE",
"1430 1031 OFFCURVE",
"1430 911 CURVE SMOOTH",
"1430 852 OFFCURVE",
"1441 798 OFFCURVE",
"1464 748 CURVE SMOOTH",
"1508 647 OFFCURVE",
"1593 580 OFFCURVE",
"1708 571 CURVE",
"1708 682 LINE",
"1615 701 OFFCURVE",
"1548 798 OFFCURVE",
"1548 913 CURVE SMOOTH",
"1548 998 OFFCURVE",
"1580 1063 OFFCURVE",
"1645 1108 CURVE",
"1731 1020 LINE",
"1817 1104 LINE",
"1391 1548 LINE",
"1411 1557 OFFCURVE",
"1433 1570 OFFCURVE",
"1456 1587 CURVE",
"1456 1729 LINE",
"1344 1661 OFFCURVE",
"1164 1620 OFFCURVE",
"985 1620 CURVE SMOOTH",
"934 1620 LINE SMOOTH",
"757 1620 OFFCURVE",
"574 1662 OFFCURVE",
"463 1729 CURVE",
"463 1587 LINE",
"482 1572 OFFCURVE",
"504 1559 OFFCURVE",
"528 1548 CURVE",
"102 1104 LINE",
"188 1020 LINE",
"272 1108 LINE",
"338 1061 OFFCURVE",
"371 996 OFFCURVE",
"371 913 CURVE SMOOTH",
"371 798 OFFCURVE",
"304 701 OFFCURVE",
"211 682 CURVE",
"211 571 LINE"
);
},
{
closed = 1;
nodes = (
"905 0 LINE",
"905 483 LINE SMOOTH",
"905 571 OFFCURVE",
"834 635 OFFCURVE",
"739 635 CURVE SMOOTH",
"469 635 LINE",
"469 506 LINE",
"696 506 LINE SMOOTH",
"752 506 OFFCURVE",
"762 496 OFFCURVE",
"762 459 CURVE SMOOTH",
"762 0 LINE"
);
},
{
closed = 1;
nodes = (
"1157 0 LINE",
"1157 459 LINE SMOOTH",
"1157 496 OFFCURVE",
"1167 506 OFFCURVE",
"1223 506 CURVE SMOOTH",
"1450 506 LINE",
"1450 635 LINE",
"1180 635 LINE SMOOTH",
"1085 635 OFFCURVE",
"1014 571 OFFCURVE",
"1014 483 CURVE SMOOTH",
"1014 0 LINE"
);
}
);
width = 1919;
}
);
note = g127;
},
{
glyphname = g128;
lastChange = "2016-11-10 14:31:18 +0000";
layers = (
{
layerId = "04B77939-8555-4652-993D-1D9FD1321E1B";
paths = (
{
closed = 1;
nodes = (
"692 0 LINE",
"759 53 OFFCURVE",
"805 93 OFFCURVE",
"830 119 CURVE SMOOTH",
"879 171 OFFCURVE",
"913 224 OFFCURVE",
"913 279 CURVE SMOOTH",
"913 396 OFFCURVE",
"837 461 OFFCURVE",
"705 461 CURVE",
"705 348 LINE",
"756 348 OFFCURVE",
"782 325 OFFCURVE",
"782 279 CURVE SMOOTH",
"782 243 OFFCURVE",
"731 185 OFFCURVE",
"629 104 CURVE",
"629 518 LINE",
"844 518 LINE",
"844 647 LINE",
"629 647 LINE",
"629 700 LINE",
"807 842 LINE SMOOTH",
"870 892 OFFCURVE",
"914 930 OFFCURVE",
"937 956 CURVE SMOOTH",
"983 1007 OFFCURVE",
"1012 1060 OFFCURVE",
"1012 1120 CURVE SMOOTH",
"1012 1257 OFFCURVE",
"913 1327 OFFCURVE",
"715 1331 CURVE",
"715 1219 LINE",
"826 1213 OFFCURVE",
"881 1180 OFFCURVE",
"881 1120 CURVE SMOOTH",
"881 1080 OFFCURVE",
"841 1030 OFFCURVE",
"762 970 CURVE SMOOTH",
"707 928 LINE",
"629 864 LINE",
"629 1462 LINE SMOOTH",
"629 1499 OFFCURVE",
"639 1509 OFFCURVE",
"694 1509 CURVE SMOOTH",
"860 1509 LINE",
"860 1638 LINE",
"651 1638 LINE SMOOTH",
"551 1638 OFFCURVE",
"485 1571 OFFCURVE",
"485 1487 CURVE SMOOTH",
"485 864 LINE",
"432 908 OFFCURVE",
"388 943 OFFCURVE",
"353 970 CURVE SMOOTH",
"273 1030 OFFCURVE",
"233 1080 OFFCURVE",
"233 1120 CURVE SMOOTH",
"233 1180 OFFCURVE",
"288 1213 OFFCURVE",
"399 1219 CURVE",
"399 1331 LINE",
"201 1327 OFFCURVE",
"102 1257 OFFCURVE",
"102 1120 CURVE SMOOTH",
"102 1039 OFFCURVE",
"150 963 OFFCURVE",
"307 842 CURVE SMOOTH",
"485 700 LINE",
"485 647 LINE",
"270 647 LINE",
"270 518 LINE",
"485 518 LINE",
"485 104 LINE",
"383 181 OFFCURVE",
"332 240 OFFCURVE",
"332 279 CURVE SMOOTH",
"332 325 OFFCURVE",
"358 348 OFFCURVE",
"410 348 CURVE",
"410 461 LINE",
"277 461 OFFCURVE",
"201 396 OFFCURVE",
"201 279 CURVE SMOOTH",
"201 226 OFFCURVE",
"234 172 OFFCURVE",
"282 121 CURVE SMOOTH",
"306 96 OFFCURVE",
"353 55 OFFCURVE",
"422 0 CURVE"
);
}
);
width = 1114;
}
);
note = g128;
},
{
glyphname = g129;
lastChange = "2016-11-10 14:31:18 +0000";
layers = (
{
layerId = "04B77939-8555-4652-993D-1D9FD1321E1B";
paths = (
{
closed = 1;
nodes = (
"999 399 LINE",
"999 528 LINE",
"877 528 LINE",
"877 623 LINE",
"965 768 LINE",
"966 729 OFFCURVE",
"973 695 OFFCURVE",
"985 666 CURVE SMOOTH",
"1008 606 OFFCURVE",
"1035 567 OFFCURVE",
"1135 483 CURVE",
"1231 588 LINE",
"1193 624 LINE SMOOTH",
"1136 675 OFFCURVE",
"1108 729 OFFCURVE",
"1108 788 CURVE SMOOTH",
"1108 887 LINE SMOOTH",
"1108 1035 OFFCURVE",
"1032 1177 OFFCURVE",
"887 1290 CURVE",
"906 1353 OFFCURVE",
"967 1416 OFFCURVE",
"1071 1479 CURVE SMOOTH",
"1196 1552 LINE",
"1128 1673 LINE",
"1006 1602 LINE SMOOTH",
"857 1515 OFFCURVE",
"768 1412 OFFCURVE",
"743 1305 CURVE",
"584 1192 OFFCURVE",
"502 1039 OFFCURVE",
"502 887 CURVE SMOOTH",
"502 788 LINE SMOOTH",
"502 729 OFFCURVE",
"474 675 OFFCURVE",
"418 624 CURVE SMOOTH",
"379 588 LINE",
"475 483 LINE",
"526 526 OFFCURVE",
"560 559 OFFCURVE",
"579 584 CURVE SMOOTH",
"616 632 OFFCURVE",
"639 689 OFFCURVE",
"643 766 CURVE",
"733 621 LINE",
"733 528 LINE",
"610 528 LINE",
"610 399 LINE"
);
},
{
closed = 1;
nodes = (
"538 -25 OFFCURVE",
"668 19 OFFCURVE",
"828 122 CURVE SMOOTH",
"992 227 OFFCURVE",
"1100 268 OFFCURVE",
"1229 268 CURVE SMOOTH",
"1328 268 OFFCURVE",
"1378 239 OFFCURVE",
"1378 180 CURVE SMOOTH",
"1378 129 OFFCURVE",
"1341 88 OFFCURVE",
"1286 88 CURVE SMOOTH",
"1237 88 OFFCURVE",
"1180 116 OFFCURVE",
"1155 172 CURVE",
"1053 129 LINE",
"1085 32 OFFCURVE",
"1165 -25 OFFCURVE",
"1278 -25 CURVE SMOOTH",
"1406 -25 OFFCURVE",
"1507 63 OFFCURVE",
"1507 180 CURVE SMOOTH",
"1507 313 OFFCURVE",
"1410 387 OFFCURVE",
"1229 387 CURVE SMOOTH",
"1073 387 OFFCURVE",
"944 344 OFFCURVE",
"783 241 CURVE SMOOTH",
"610 129 OFFCURVE",
"509 94 OFFCURVE",
"381 94 CURVE SMOOTH",
"281 94 OFFCURVE",
"231 123 OFFCURVE",
"231 182 CURVE SMOOTH",
"231 242 OFFCURVE",
"276 274 OFFCURVE",
"324 274 CURVE SMOOTH",
"373 274 OFFCURVE",
"430 246 OFFCURVE",
"455 190 CURVE",
"557 233 LINE",
"525 330 OFFCURVE",
"445 387 OFFCURVE",
"332 387 CURVE SMOOTH",
"203 387 OFFCURVE",
"102 299 OFFCURVE",
"102 182 CURVE SMOOTH",
"102 47 OFFCURVE",
"200 -25 OFFCURVE",
"381 -25 CURVE SMOOTH"
);
},
{
closed = 1;
nodes = (
"649 983 LINE",
"665 1054 OFFCURVE",
"706 1113 OFFCURVE",
"803 1182 CURVE",
"902 1111 OFFCURVE",
"942 1056 OFFCURVE",
"958 985 CURVE",
"807 733 LINE",
"799 733 LINE"
);
}
);
width = 1610;
}
);
note = g129;
},
